<svg width="1920" height="1080" viewBox="0 0 1920 1080" fill="none" xmlns="http://www.w3.org/2000/svg">
<rect width="1920" height="1080" fill="#13161D"/>
<g clip-path="url(#clip0_109_2)">
<path d="M226.125 269.033C234.94 247.552 247.785 227.835 258.916 207.488C273.945 180.019 287.169 151.675 301.965 124.099C307.885 113.066 314.049 102.09 320.607 91.4081C323.116 87.3197 325.851 83.3613 329.291 79.9699C331.202 78.087 331.987 77.8612 331.462 80.8554C329.548 91.7822 325.952 102.4 322.179 112.809C301.652 169.432 278.018 224.997 256.371 281.21C243.983 313.38 232.024 345.705 219.462 377.808C217.234 383.5 223.677 366.335 225.825 360.613C246.37 305.9 265.626 250.751 286.767 196.234C297.442 168.706 309.774 141.744 324.687 116.166C324.962 115.695 328.468 109.173 328.468 113.547C328.468 118.593 326.83 124.087 325.698 128.896C319.976 153.199 313.132 177.328 305.858 201.216C287.649 261.016 264.4 319.01 243.045 377.734C240.615 384.415 235.558 393.918 235.558 401.422C235.558 402.994 236.654 398.47 237.205 396.994C240.758 387.49 243.848 377.816 247.537 368.362C255.596 347.706 265.556 327.757 275.237 307.813C287.814 281.906 300.575 256.086 314.056 230.623C321.234 217.064 328.561 203.575 335.917 190.109C338.222 185.889 341.146 180.542 343.591 176.31C344.222 175.218 346.676 169.88 348.607 169.041C349.538 168.636 349.432 171.758 349.43 171.845C349.291 178.219 347.943 184.706 346.511 190.884C341.177 213.892 333.487 236.466 325.997 258.85C314.727 292.529 302.267 325.714 288.863 358.621C282.099 375.226 275.572 392.055 267.9 408.285C266.179 411.927 264.277 415.807 261.612 418.912C260.58 420.114 260.45 419.203 260.638 418.174C261.634 412.733 263.975 407.378 265.916 402.234C272.489 384.816 280.041 367.904 288.002 351.057C304.322 316.525 320.78 282.041 337.602 247.743C360.147 201.776 382.128 155.327 407.153 110.595C408.572 108.058 408.934 107.485 410.147 105.208C410.345 104.838 410.511 103.753 410.746 104.101C411.502 105.219 409.87 110.216 409.698 110.816C405.179 126.588 398.186 141.807 392.105 157.012C377.372 193.848 362.784 230.708 347.521 267.336C328.342 313.362 271.748 451.805 291.633 406.071C293.048 402.817 293.997 399.356 295.227 396.035C301.327 379.569 308.253 363.367 315.591 347.404C342.959 287.868 375.984 230.724 406.666 172.804C410.777 165.044 414.55 156.436 419.656 149.19C421.117 147.116 420.684 148.887 420.442 150.186C419.219 156.746 417.415 163.152 415.538 169.557C405.333 204.386 394.265 239.011 382.596 273.387C368.654 314.464 353.507 355.109 338.5 395.814C332.981 410.783 327.05 425.767 322.928 441.198C322.518 442.729 320.571 447.673 321.281 449.537C322.268 452.133 323.07 444.278 323.938 441.641C328.372 428.174 334.035 415.129 339.848 402.197C353.383 372.086 367.355 342.172 380.8 312.019C396.599 276.586 412.41 241.174 428.827 206.012C439.539 183.068 450.018 159.935 462.517 137.862C462.718 137.506 469.636 123.019 471.95 122.734C474.741 122.39 472.088 128.341 471.426 131.036C467.813 145.742 462.566 160.16 457.239 174.317C434.391 235.034 409.464 294.989 386.49 355.669C375.244 385.37 364.258 415.138 353.997 445.183C350.493 455.444 346.635 465.7 343.815 476.177C342.684 480.379 341.366 492.461 344.527 481.269C353.602 449.131 364.411 417.488 375.784 386.073C393.802 336.301 417.518 289.364 443.912 243.426C447.398 237.36 450.993 231.318 454.768 225.42C455.325 224.551 455.891 223.535 455.891 225.125C455.891 249.045 446.468 273.341 439.495 295.821C423.009 348.974 403.867 401.249 386.04 453.964C385.232 456.356 384.026 463.707 383.794 461.196C383.313 455.979 386.079 449.181 387.65 444.556C396.625 418.123 407.686 392.23 418.271 366.406C436.651 321.56 456.219 277.285 477.153 233.538C495.435 195.333 514.227 157.328 534.015 119.856C542.377 104.021 550.717 88.0091 560.255 72.8117C560.508 72.4088 561.847 69.6302 561.678 71.8524C561.046 80.1602 558.007 88.8909 555.763 96.7952C546.564 129.204 534.562 160.654 522.373 192.065C499.179 251.835 474.416 310.972 450.613 370.502C445.291 383.812 440.477 397.286 435.602 410.757C433.96 415.294 431.882 419.953 431.073 424.741C431.021 425.046 430.957 425.908 431.148 425.664C431.89 424.712 432.366 423.584 432.944 422.528C438.264 412.808 442.634 402.583 447.244 392.53C472.298 337.888 496.37 282.516 523.983 229.073C530.492 216.474 537.342 204.019 544.309 191.659C545.941 188.763 549.279 180.286 550.074 183.505C551.123 187.759 548.61 195.212 547.678 199.002C541.896 222.515 533.742 245.598 526.191 268.591C502.452 340.877 476.513 412.293 449.64 483.483C447.743 488.506 445.438 493.796 445.148 499.238C445.121 499.735 444.846 502.269 445.634 500.197C450.327 487.862 454.453 475.296 459.073 462.931C475.664 418.53 495.465 375.469 516.159 332.793C530.448 303.324 545.812 274.502 562.127 246.083C570.609 231.308 578.857 216.111 588.855 202.249C589.129 201.869 596.323 191.218 598.063 191.77C600.828 192.646 596.614 208.386 596.379 209.333C583.678 260.451 562.933 309.643 545.245 359.174C536.908 382.519 528.576 405.893 521.512 429.649C519.322 437.012 517.884 445.382 514.662 452.415C513.662 454.597 515.235 447.644 515.859 445.33C519.196 432.977 523.547 420.84 528.662 409.097C535.414 393.592 543.479 378.738 551.796 364.008C554.639 358.971 558.837 347.681 564.485 344.563C566.036 343.707 566.265 347.845 566.282 348.326C566.534 355.272 564.877 362.771 563.774 369.543C561.327 384.578 557.634 399.11 553.293 413.709C548.733 429.043 545.829 443.895 543.485 459.647" stroke="#191C24" stroke-width="3" stroke-linecap="round"/>
</g>
<rect x="271.5" y="176.5" width="86" height="86" rx="8.5" stroke="#C5073D" stroke-width="3"/>
<g clip-path="url(#clip1_109_2)">
<path d="M117.125 378.033C125.94 356.552 138.785 336.835 149.916 316.488C164.945 289.019 178.169 260.675 192.965 233.099C198.885 222.066 205.049 211.09 211.607 200.408C214.116 196.32 216.851 192.361 220.291 188.97C222.202 187.087 222.987 186.861 222.462 189.855C220.548 200.782 216.952 211.4 213.179 221.809C192.652 278.432 169.018 333.997 147.371 390.21C134.983 422.38 123.024 454.705 110.462 486.808C108.234 492.5 114.677 475.335 116.825 469.613C137.37 414.9 156.626 359.751 177.767 305.234C188.442 277.706 200.774 250.744 215.687 225.166C215.962 224.695 219.468 218.173 219.468 222.547C219.468 227.593 217.83 233.087 216.698 237.896C210.976 262.199 204.132 286.328 196.858 310.216C178.649 370.016 155.4 428.01 134.045 486.734C131.615 493.415 126.558 502.918 126.558 510.422C126.558 511.994 127.654 507.47 128.205 505.994C131.758 496.49 134.848 486.816 138.537 477.362C146.596 456.706 156.556 436.757 166.237 416.813C178.814 390.906 191.575 365.086 205.056 339.623C212.234 326.064 219.561 312.575 226.917 299.109C229.222 294.889 232.146 289.542 234.591 285.31C235.222 284.218 237.676 278.88 239.607 278.041C240.538 277.636 240.432 280.758 240.43 280.845C240.291 287.219 238.943 293.706 237.511 299.884C232.177 322.892 224.487 345.466 216.997 367.85C205.727 401.529 193.267 434.714 179.863 467.621C173.099 484.226 166.572 501.055 158.9 517.285C157.179 520.927 155.277 524.807 152.612 527.912C151.58 529.114 151.45 528.203 151.638 527.174C152.634 521.733 154.975 516.378 156.916 511.234C163.489 493.816 171.041 476.904 179.002 460.057C195.322 425.525 211.78 391.041 228.602 356.743C251.147 310.776 273.128 264.327 298.153 219.595C299.572 217.058 299.934 216.485 301.147 214.208C301.345 213.838 301.511 212.753 301.746 213.101C302.502 214.219 300.87 219.216 300.698 219.816C296.179 235.588 289.186 250.807 283.105 266.012C268.372 302.848 253.784 339.708 238.521 376.336C219.342 422.362 162.748 560.805 182.633 515.071C184.048 511.817 184.997 508.356 186.227 505.035C192.327 488.569 199.253 472.367 206.591 456.404C233.959 396.868 266.984 339.724 297.666 281.804C301.777 274.044 305.55 265.436 310.656 258.19C312.117 256.116 311.684 257.887 311.442 259.186C310.219 265.746 308.415 272.152 306.538 278.557C296.333 313.386 285.265 348.011 273.596 382.387C259.654 423.464 244.507 464.109 229.5 504.814C223.981 519.783 218.05 534.767 213.928 550.198C213.518 551.729 211.571 556.673 212.281 558.537C213.268 561.133 214.07 553.278 214.938 550.641C219.372 537.174 225.035 524.129 230.848 511.197C244.383 481.086 258.355 451.172 271.8 421.019C287.599 385.586 303.41 350.174 319.827 315.012C330.539 292.068 341.018 268.935 353.517 246.862C353.718 246.506 360.636 232.019 362.95 231.734C365.741 231.39 363.088 237.341 362.426 240.036C358.813 254.742 353.566 269.16 348.239 283.317C325.391 344.034 300.464 403.989 277.49 464.669C266.244 494.37 255.258 524.138 244.997 554.183C241.493 564.444 237.635 574.7 234.815 585.177C233.684 589.379 232.366 601.461 235.527 590.269C244.602 558.131 255.411 526.488 266.784 495.073C284.802 445.301 308.518 398.364 334.912 352.426C338.398 346.36 341.993 340.318 345.768 334.42C346.325 333.551 346.891 332.535 346.891 334.125C346.891 358.045 337.468 382.341 330.495 404.821C314.009 457.974 294.867 510.249 277.04 562.964C276.232 565.356 275.026 572.707 274.794 570.196C274.313 564.979 277.079 558.181 278.65 553.556C287.625 527.123 298.686 501.23 309.271 475.406C327.651 430.56 347.219 386.285 368.153 342.538C386.435 304.333 405.227 266.328 425.015 228.856C433.377 213.021 441.717 197.009 451.255 181.812C451.508 181.409 452.847 178.63 452.678 180.852C452.046 189.16 449.007 197.891 446.763 205.795C437.564 238.204 425.562 269.654 413.373 301.065C390.179 360.835 365.416 419.972 341.613 479.502C336.291 492.812 331.477 506.286 326.602 519.757C324.96 524.294 322.882 528.953 322.073 533.741C322.021 534.046 321.957 534.908 322.148 534.664C322.89 533.712 323.366 532.584 323.944 531.528C329.264 521.808 333.634 511.583 338.244 501.53C363.298 446.888 387.37 391.516 414.983 338.073C421.492 325.474 428.342 313.019 435.309 300.659C436.941 297.763 440.279 289.286 441.074 292.505C442.123 296.759 439.61 304.212 438.678 308.002C432.896 331.515 424.742 354.598 417.191 377.591C393.452 449.877 367.513 521.293 340.64 592.483C338.743 597.506 336.438 602.796 336.148 608.238C336.121 608.735 335.846 611.269 336.634 609.197C341.327 596.862 345.453 584.296 350.073 571.931C366.664 527.53 386.465 484.469 407.159 441.793C421.448 412.324 436.812 383.502 453.127 355.083C461.609 340.308 469.857 325.111 479.855 311.249C480.129 310.869 487.323 300.218 489.063 300.77C491.828 301.646 487.614 317.386 487.379 318.333C474.678 369.451 453.933 418.643 436.245 468.174C427.908 491.519 419.576 514.893 412.512 538.649C410.322 546.012 408.884 554.382 405.662 561.415C404.662 563.597 406.235 556.644 406.859 554.33C410.196 541.977 414.547 529.84 419.662 518.097C426.414 502.592 434.479 487.738 442.796 473.008C445.639 467.971 449.837 456.681 455.485 453.563C457.036 452.707 457.265 456.845 457.282 457.326C457.534 464.272 455.877 471.771 454.774 478.543C452.327 493.578 448.634 508.11 444.293 522.709C439.733 538.043 436.829 552.895 434.485 568.647" stroke="#191C24" stroke-width="3" stroke-linecap="round"/>
</g>
<rect x="162.5" y="285.5" width="86" height="86" rx="8.5" stroke="#C5073D" stroke-width="3"/>
<g clip-path="url(#clip2_109_2)">
<path d="M268.927 303.159C274.705 297.648 280.278 291.943 285.857 286.238C295.864 276.004 302.681 263.315 312.599 253.012C314.777 250.749 317.238 248.35 319.77 246.428C320.628 245.777 320.83 245.873 320.471 246.685C314.802 259.529 305.591 271.539 298.096 283.512C276.724 317.651 254.394 351.847 237.494 388.282C237.023 389.298 233.361 394.795 234.097 396.1C234.354 396.554 234.915 396.012 234.96 395.74C235.216 394.191 236.581 392.398 237.332 391.059C241.721 383.238 246.196 375.432 251.135 367.914C264.304 347.871 276.644 327.46 290.898 308.071C295.841 301.347 300.53 294.513 305.213 287.626C306.784 285.316 308.478 282.308 310.82 280.606C312.023 279.731 310.298 285.399 310.065 286.238C308.372 292.339 304.995 297.714 301.843 303.211C289.072 325.483 276.327 347.767 264.129 370.332C256.818 383.856 249.975 397.466 244.288 411.684C242.71 415.628 240.186 420.096 239.84 424.388C239.57 427.734 240.866 427.764 242.94 425.057C264.806 396.513 282.11 365.117 300.333 334.405C309.583 318.817 318.787 303.199 328.208 287.704C332.015 281.442 335.379 274.569 339.908 268.75C340.252 268.308 343.17 264.556 343.17 266.873C343.17 271.067 339.487 275.832 337.724 279.397C326.902 301.287 315.824 323.046 303.488 344.203C294.379 359.825 285.972 375.49 278.363 391.831C274.315 400.523 270.94 409.332 267.579 418.268C266.567 420.96 266.504 420.44 267.687 418.165C273.897 406.224 282.56 395.247 290.17 384.116C301.399 367.693 311.973 350.927 322.736 334.225C331.949 319.929 341.291 305.688 350.395 291.33C353.776 285.997 356.654 280.539 360.8 275.694C362.91 273.229 364.288 272.174 364.035 275.848C363.696 280.783 361.019 286.228 359.075 290.713C351.681 307.767 342.751 324.241 335.028 341.169C328.169 356.204 321.75 371.539 316.158 387.048C313.751 393.721 311.558 400.535 310.389 407.518C310.324 407.904 309.604 410.556 310.497 409.421C319.104 398.474 326.991 387.045 334.732 375.526C356.816 342.665 376.537 308.427 398.056 275.231C398.839 274.024 400.478 270.575 400.887 271.939C401.17 272.884 400.862 274.3 400.617 275.205C395.616 293.76 387.265 311.644 380.561 329.648C374.687 345.419 369.397 361.394 364.197 377.378C362.227 383.434 361.154 389.435 360.423 395.714C360.273 397.001 359.797 399.402 361.07 397.026C364.736 390.183 368.793 383.478 372.797 376.812C377.298 369.318 382.119 361.824 387.435 354.824C388 354.081 391.044 349.197 392.854 349.964C394.193 350.532 391.828 358.291 391.694 359.376C390.816 366.495 389.139 373.458 387.57 380.464C384.89 392.43 382.953 404.478 381.019 416.57" stroke="#C5073D" stroke-width="3" stroke-linecap="round"/>
</g>
<rect x="271.5" y="285.5" width="86" height="86" rx="4.5" stroke="#C5073D" stroke-width="3"/>
<g clip-path="url(#clip3_109_2)">
<path d="M159.927 194.159C165.705 188.648 171.278 182.943 176.857 177.238C186.864 167.004 193.681 154.315 203.599 144.012C205.777 141.749 208.238 139.35 210.77 137.428C211.628 136.777 211.83 136.873 211.471 137.685C205.802 150.529 196.591 162.539 189.096 174.512C167.724 208.651 145.394 242.847 128.494 279.282C128.023 280.298 124.361 285.795 125.097 287.1C125.354 287.554 125.915 287.012 125.96 286.74C126.216 285.191 127.581 283.398 128.332 282.059C132.721 274.238 137.196 266.432 142.135 258.914C155.304 238.871 167.644 218.46 181.898 199.071C186.841 192.347 191.53 185.513 196.213 178.626C197.784 176.316 199.478 173.308 201.82 171.606C203.023 170.731 201.298 176.399 201.065 177.238C199.372 183.339 195.995 188.714 192.843 194.211C180.072 216.483 167.327 238.767 155.129 261.332C147.818 274.856 140.975 288.466 135.288 302.684C133.71 306.628 131.186 311.096 130.84 315.388C130.57 318.734 131.866 318.764 133.94 316.057C155.806 287.513 173.11 256.117 191.333 225.405C200.583 209.817 209.787 194.199 219.208 178.704C223.015 172.442 226.379 165.569 230.908 159.75C231.252 159.308 234.17 155.556 234.17 157.873C234.17 162.067 230.487 166.832 228.724 170.397C217.902 192.287 206.824 214.046 194.488 235.203C185.379 250.825 176.972 266.49 169.363 282.831C165.315 291.523 161.94 300.332 158.579 309.268C157.567 311.96 157.504 311.44 158.687 309.165C164.897 297.224 173.56 286.247 181.17 275.116C192.399 258.693 202.973 241.927 213.736 225.225C222.949 210.929 232.291 196.688 241.395 182.33C244.776 176.997 247.654 171.539 251.8 166.694C253.91 164.229 255.288 163.174 255.035 166.848C254.696 171.783 252.019 177.228 250.075 181.713C242.681 198.767 233.751 215.241 226.028 232.169C219.169 247.204 212.75 262.539 207.158 278.048C204.751 284.721 202.558 291.535 201.389 298.518C201.324 298.904 200.604 301.556 201.497 300.421C210.104 289.474 217.991 278.045 225.732 266.526C247.816 233.665 267.537 199.427 289.056 166.231C289.839 165.024 291.478 161.575 291.887 162.939C292.17 163.884 291.862 165.3 291.617 166.205C286.616 184.76 278.265 202.644 271.561 220.648C265.687 236.419 260.397 252.394 255.197 268.378C253.227 274.434 252.154 280.435 251.423 286.714C251.273 288.001 250.797 290.402 252.07 288.026C255.736 281.183 259.793 274.478 263.797 267.812C268.298 260.318 273.119 252.824 278.435 245.824C279 245.081 282.044 240.197 283.854 240.964C285.193 241.532 282.828 249.291 282.694 250.376C281.816 257.495 280.139 264.458 278.57 271.464C275.89 283.43 273.953 295.478 272.019 307.57" stroke="#C5073D" stroke-width="3" stroke-linecap="round"/>
</g>
<rect x="162.5" y="176.5" width="86" height="86" rx="4.5" stroke="#C5073D" stroke-width="3"/>
<rect x="1552.5" y="717.5" width="87" height="87" rx="8.5" stroke="#C5073D" stroke-width="3"/>
<line x1="1639.88" y1="775.884" x2="1610.88" y2="804.884" stroke="#C5073D" stroke-width="2.5"/>
<line x1="1638.88" y1="733.884" x2="1567.88" y2="804.884" stroke="#C5073D" stroke-width="2.5"/>
<line x1="1607.88" y1="717.884" x2="1551.88" y2="773.884" stroke="#C5073D" stroke-width="2.5"/>
<line x1="1639.88" y1="788.884" x2="1623.88" y2="804.884" stroke="#C5073D" stroke-width="2.5"/>
<line x1="1639.88" y1="761.884" x2="1596.88" y2="804.884" stroke="#C5073D" stroke-width="2.5"/>
<line x1="1636.88" y1="721.884" x2="1555.88" y2="802.884" stroke="#C5073D" stroke-width="2.5"/>
<line x1="1592.88" y1="716.884" x2="1551.88" y2="757.884" stroke="#C5073D" stroke-width="2.5"/>
<line x1="1638.88" y1="747.884" x2="1581.88" y2="804.884" stroke="#C5073D" stroke-width="2.5"/>
<line x1="1624.88" y1="717.884" x2="1551.88" y2="790.884" stroke="#C5073D" stroke-width="2.5"/>
<line x1="1575.88" y1="717.884" x2="1552.88" y2="740.884" stroke="#C5073D" stroke-width="2.5"/>
<g clip-path="url(#clip4_109_2)">
<path d="M1465.16 912.073C1459.65 906.296 1453.94 900.723 1448.24 895.144C1438 885.136 1425.32 878.319 1415.01 868.401C1412.75 866.224 1410.35 863.763 1408.43 861.23C1407.78 860.372 1407.87 860.171 1408.69 860.529C1421.53 866.198 1433.54 875.409 1445.51 882.905C1479.65 904.277 1513.85 926.607 1550.28 943.506C1551.3 943.978 1556.8 947.639 1558.1 946.903C1558.55 946.647 1558.01 946.085 1557.74 946.04C1556.19 945.784 1554.4 944.419 1553.06 943.668C1545.24 939.28 1537.43 934.805 1529.91 929.866C1509.87 916.696 1489.46 904.356 1470.07 890.102C1463.35 885.159 1456.51 880.47 1449.63 875.788C1447.32 874.217 1444.31 872.522 1442.61 870.18C1441.73 868.977 1447.4 870.702 1448.24 870.935C1454.34 872.628 1459.71 876.006 1465.21 879.157C1487.48 891.929 1509.77 904.674 1532.33 916.872C1545.86 924.183 1559.47 931.025 1573.68 936.713C1577.63 938.29 1582.1 940.815 1586.39 941.161C1589.73 941.431 1589.76 940.134 1587.06 938.061C1558.51 916.195 1527.12 898.89 1496.41 880.667C1480.82 871.417 1465.2 862.214 1449.7 852.792C1443.44 848.985 1436.57 845.621 1430.75 841.093C1430.31 840.748 1426.56 837.831 1428.87 837.831C1433.07 837.831 1437.83 841.514 1441.4 843.276C1463.29 854.099 1485.05 865.176 1506.2 877.513C1521.82 886.622 1537.49 895.028 1553.83 902.638C1562.52 906.685 1571.33 910.061 1580.27 913.421C1582.96 914.434 1582.44 914.496 1580.16 913.313C1568.22 907.104 1557.25 898.441 1546.12 890.83C1529.69 879.601 1512.93 869.028 1496.23 858.265C1481.93 849.052 1467.69 839.71 1453.33 830.606C1448 827.225 1442.54 824.346 1437.69 820.2C1435.23 818.091 1434.17 816.713 1437.85 816.965C1442.78 817.304 1448.23 819.981 1452.71 821.925C1469.77 829.319 1486.24 838.249 1503.17 845.972C1518.2 852.831 1533.54 859.25 1549.05 864.843C1555.72 867.249 1562.53 869.443 1569.52 870.612C1569.9 870.676 1572.56 871.396 1571.42 870.504C1560.47 861.897 1549.04 854.009 1537.53 846.269C1504.66 824.184 1470.43 804.464 1437.23 782.944C1436.02 782.162 1432.57 780.522 1433.94 780.113C1434.88 779.831 1436.3 780.139 1437.21 780.383C1455.76 785.385 1473.64 793.735 1491.65 800.44C1507.42 806.313 1523.39 811.603 1539.38 816.803C1545.43 818.773 1551.43 819.846 1557.71 820.578C1559 820.727 1561.4 821.204 1559.03 819.931C1552.18 816.264 1545.48 812.208 1538.81 808.204C1531.32 803.702 1523.82 798.882 1516.82 793.566C1516.08 793.001 1511.2 789.956 1511.96 788.147C1512.53 786.807 1520.29 789.172 1521.38 789.306C1528.49 790.184 1535.46 791.862 1542.46 793.431C1554.43 796.111 1566.48 798.048 1578.57 799.982" stroke="#C5073D" stroke-width="3" stroke-linecap="round"/>
</g>
<rect x="1447.5" y="909.5" width="87" height="87" rx="8.5" transform="rotate(-90 1447.5 909.5)" stroke="#C5073D" stroke-width="3"/>
<rect x="144" y="546" width="90" height="90" rx="10" fill="#191C24"/>
<rect x="1661" y="356" width="90" height="90" rx="10" fill="#191C24"/>
<rect x="1181.5" y="125.5" width="87" height="87" rx="8.5" stroke="#C5073D" stroke-width="3"/>
<line x1="1236.38" y1="127" x2="1236.38" y2="213" stroke="#C5073D" stroke-width="2.5"/>
<line x1="1247.38" y1="127" x2="1247.38" y2="213" stroke="#C5073D" stroke-width="2.5"/>
<line x1="1258.38" y1="127" x2="1258.38" y2="213" stroke="#C5073D" stroke-width="2.5"/>
<line x1="1225.38" y1="125" x2="1225.38" y2="211" stroke="#C5073D" stroke-width="2.5"/>
<line x1="1214.38" y1="126" x2="1214.38" y2="212" stroke="#C5073D" stroke-width="2.5"/>
<line x1="1203.38" y1="127" x2="1203.38" y2="213" stroke="#C5073D" stroke-width="2.5"/>
<path d="M1192.12 127L1192.12 213" stroke="#C5073D" stroke-width="2.5"/>
<g clip-path="url(#clip5_109_2)">
<path d="M1236.12 318.033C1244.94 296.552 1257.78 276.835 1268.92 256.488C1283.94 229.019 1297.17 200.675 1311.96 173.099C1317.89 162.066 1324.05 151.09 1330.61 140.408C1333.12 136.32 1335.85 132.361 1339.29 128.97C1341.2 127.087 1341.99 126.861 1341.46 129.855C1339.55 140.782 1335.95 151.4 1332.18 161.809C1311.65 218.432 1288.02 273.997 1266.37 330.21C1253.98 362.38 1242.02 394.705 1229.46 426.808C1227.23 432.5 1233.68 415.335 1235.83 409.613C1256.37 354.9 1275.63 299.751 1296.77 245.234C1307.44 217.706 1319.77 190.744 1334.69 165.166C1334.96 164.695 1338.47 158.173 1338.47 162.547C1338.47 167.593 1336.83 173.087 1335.7 177.896C1329.98 202.199 1323.13 226.328 1315.86 250.216C1297.65 310.016 1274.4 368.01 1253.04 426.734C1250.62 433.415 1245.56 442.918 1245.56 450.422C1245.56 451.994 1246.65 447.47 1247.21 445.994C1250.76 436.49 1253.85 426.816 1257.54 417.362C1265.6 396.706 1275.56 376.757 1285.24 356.813C1297.81 330.906 1310.57 305.086 1324.06 279.623C1331.23 266.064 1338.56 252.575 1345.92 239.109C1348.22 234.889 1351.15 229.542 1353.59 225.31C1354.22 224.218 1356.68 218.88 1358.61 218.041C1359.54 217.636 1359.43 220.758 1359.43 220.845C1359.29 227.219 1357.94 233.706 1356.51 239.884C1351.18 262.892 1343.49 285.466 1336 307.85C1324.73 341.529 1312.27 374.714 1298.86 407.621C1292.1 424.226 1285.57 441.055 1277.9 457.285C1276.18 460.927 1274.28 464.807 1271.61 467.912C1270.58 469.114 1270.45 468.203 1270.64 467.174C1271.63 461.733 1273.98 456.378 1275.92 451.234C1282.49 433.816 1290.04 416.904 1298 400.057C1314.32 365.525 1330.78 331.041 1347.6 296.743C1370.15 250.776 1392.13 204.327 1417.15 159.595C1418.57 157.058 1418.93 156.485 1420.15 154.208C1420.34 153.838 1420.51 152.753 1420.75 153.101C1421.5 154.219 1419.87 159.216 1419.7 159.816C1415.18 175.588 1408.19 190.807 1402.1 206.012C1387.37 242.848 1372.78 279.708 1357.52 316.336C1338.34 362.362 1281.75 500.805 1301.63 455.071C1303.05 451.817 1304 448.356 1305.23 445.035C1311.33 428.569 1318.25 412.367 1325.59 396.404C1352.96 336.868 1385.98 279.724 1416.67 221.804C1420.78 214.044 1424.55 205.436 1429.66 198.19C1431.12 196.116 1430.68 197.887 1430.44 199.186C1429.22 205.746 1427.41 212.152 1425.54 218.557C1415.33 253.386 1404.27 288.011 1392.6 322.387C1378.65 363.464 1363.51 404.109 1348.5 444.814C1342.98 459.783 1337.05 474.767 1332.93 490.198C1332.52 491.729 1330.57 496.673 1331.28 498.537C1332.27 501.133 1333.07 493.278 1333.94 490.641C1338.37 477.174 1344.03 464.129 1349.85 451.197C1363.38 421.086 1377.35 391.172 1390.8 361.019C1406.6 325.586 1422.41 290.174 1438.83 255.012C1449.54 232.068 1460.02 208.935 1472.52 186.862C1472.72 186.506 1479.64 172.019 1481.95 171.734C1484.74 171.39 1482.09 177.341 1481.43 180.036C1477.81 194.742 1472.57 209.16 1467.24 223.317C1444.39 284.034 1419.46 343.989 1396.49 404.669C1385.24 434.37 1374.26 464.138 1364 494.183C1360.49 504.444 1356.64 514.7 1353.82 525.177C1352.68 529.379 1351.37 541.461 1354.53 530.269C1363.6 498.131 1374.41 466.488 1385.78 435.073C1403.8 385.301 1427.52 338.364 1453.91 292.426C1457.4 286.36 1460.99 280.318 1464.77 274.42C1465.32 273.551 1465.89 272.535 1465.89 274.125C1465.89 298.045 1456.47 322.341 1449.5 344.821C1433.01 397.974 1413.87 450.249 1396.04 502.964C1395.23 505.356 1394.03 512.707 1393.79 510.196C1393.31 504.979 1396.08 498.181 1397.65 493.556C1406.62 467.123 1417.69 441.23 1428.27 415.406C1446.65 370.56 1466.22 326.285 1487.15 282.538C1505.44 244.333 1524.23 206.328 1544.01 168.856C1552.38 153.021 1560.72 137.009 1570.26 121.812C1570.51 121.409 1571.85 118.63 1571.68 120.852C1571.05 129.16 1568.01 137.891 1565.76 145.795C1556.56 178.204 1544.56 209.654 1532.37 241.065C1509.18 300.835 1484.42 359.972 1460.61 419.502C1455.29 432.812 1450.48 446.286 1445.6 459.757C1443.96 464.294 1441.88 468.953 1441.07 473.741C1441.02 474.046 1440.96 474.908 1441.15 474.664C1441.89 473.712 1442.37 472.584 1442.94 471.528C1448.26 461.808 1452.63 451.583 1457.24 441.53C1482.3 386.888 1506.37 331.516 1533.98 278.073C1540.49 265.474 1547.34 253.019 1554.31 240.659C1555.94 237.763 1559.28 229.286 1560.07 232.505C1561.12 236.759 1558.61 244.212 1557.68 248.002C1551.9 271.515 1543.74 294.598 1536.19 317.591C1512.45 389.877 1486.51 461.293 1459.64 532.483C1457.74 537.506 1455.44 542.796 1455.15 548.238C1455.12 548.735 1454.85 551.269 1455.63 549.197C1460.33 536.862 1464.45 524.296 1469.07 511.931C1485.66 467.53 1505.46 424.469 1526.16 381.793C1540.45 352.324 1555.81 323.502 1572.13 295.083C1580.61 280.308 1588.86 265.111 1598.85 251.249C1599.13 250.869 1606.32 240.218 1608.06 240.77C1610.83 241.646 1606.61 257.386 1606.38 258.333C1593.68 309.451 1572.93 358.643 1555.24 408.174C1546.91 431.519 1538.58 454.893 1531.51 478.649C1529.32 486.012 1527.88 494.382 1524.66 501.415C1523.66 503.597 1525.23 496.644 1525.86 494.33C1529.2 481.977 1533.55 469.84 1538.66 458.097C1545.41 442.592 1553.48 427.738 1561.8 413.008C1564.64 407.971 1568.84 396.681 1574.49 393.563C1576.04 392.707 1576.26 396.845 1576.28 397.326C1576.53 404.272 1574.88 411.771 1573.77 418.543C1571.33 433.578 1567.63 448.11 1563.29 462.709C1558.73 478.043 1555.83 492.895 1553.49 508.647" stroke="#191C24" stroke-width="3" stroke-linecap="round"/>
</g>
<rect x="1281.5" y="225.5" width="87" height="87" rx="8.5" stroke="#C5073D" stroke-width="3"/>
<g clip-path="url(#clip6_109_2)">
<path d="M1554.12 275.033C1562.94 253.552 1575.78 233.835 1586.92 213.488C1601.94 186.019 1615.17 157.675 1629.96 130.099C1635.89 119.066 1642.05 108.09 1648.61 97.4081C1651.12 93.3197 1653.85 89.3613 1657.29 85.9699C1659.2 84.087 1659.99 83.8612 1659.46 86.8554C1657.55 97.7822 1653.95 108.4 1650.18 118.809C1629.65 175.432 1606.02 230.997 1584.37 287.21C1571.98 319.38 1560.02 351.705 1547.46 383.808C1545.23 389.5 1551.68 372.335 1553.83 366.613C1574.37 311.9 1593.63 256.751 1614.77 202.234C1625.44 174.706 1637.77 147.744 1652.69 122.166C1652.96 121.695 1656.47 115.173 1656.47 119.547C1656.47 124.593 1654.83 130.087 1653.7 134.896C1647.98 159.199 1641.13 183.328 1633.86 207.216C1615.65 267.016 1592.4 325.01 1571.04 383.734C1568.62 390.415 1563.56 399.918 1563.56 407.422C1563.56 408.994 1564.65 404.47 1565.21 402.994C1568.76 393.49 1571.85 383.816 1575.54 374.362C1583.6 353.706 1593.56 333.757 1603.24 313.813C1615.81 287.906 1628.57 262.086 1642.06 236.623C1649.23 223.064 1656.56 209.575 1663.92 196.109C1666.22 191.889 1669.15 186.542 1671.59 182.31C1672.22 181.218 1674.68 175.88 1676.61 175.041C1677.54 174.636 1677.43 177.758 1677.43 177.845C1677.29 184.219 1675.94 190.706 1674.51 196.884C1669.18 219.892 1661.49 242.466 1654 264.85C1642.73 298.529 1630.27 331.714 1616.86 364.621C1610.1 381.226 1603.57 398.055 1595.9 414.285C1594.18 417.927 1592.28 421.807 1589.61 424.912C1588.58 426.114 1588.45 425.203 1588.64 424.174C1589.63 418.733 1591.98 413.378 1593.92 408.234C1600.49 390.816 1608.04 373.904 1616 357.057C1632.32 322.525 1648.78 288.041 1665.6 253.743C1688.15 207.776 1710.13 161.327 1735.15 116.595C1736.57 114.058 1736.93 113.485 1738.15 111.208C1738.34 110.838 1738.51 109.753 1738.75 110.101C1739.5 111.219 1737.87 116.216 1737.7 116.816C1733.18 132.588 1726.19 147.807 1720.1 163.012C1705.37 199.848 1690.78 236.708 1675.52 273.336C1656.34 319.362 1599.75 457.805 1619.63 412.071C1621.05 408.817 1622 405.356 1623.23 402.035C1629.33 385.569 1636.25 369.367 1643.59 353.404C1670.96 293.868 1703.98 236.724 1734.67 178.804C1738.78 171.044 1742.55 162.436 1747.66 155.19C1749.12 153.116 1748.68 154.887 1748.44 156.186C1747.22 162.746 1745.41 169.152 1743.54 175.557C1733.33 210.386 1722.27 245.011 1710.6 279.387C1696.65 320.464 1681.51 361.109 1666.5 401.814C1660.98 416.783 1655.05 431.767 1650.93 447.198C1650.52 448.729 1648.57 453.673 1649.28 455.537C1650.27 458.133 1651.07 450.278 1651.94 447.641C1656.37 434.174 1662.03 421.129 1667.85 408.197C1681.38 378.086 1695.35 348.172 1708.8 318.019C1724.6 282.586 1740.41 247.174 1756.83 212.012C1767.54 189.068 1778.02 165.935 1790.52 143.862C1790.72 143.506 1797.64 129.019 1799.95 128.734C1802.74 128.39 1800.09 134.341 1799.43 137.036C1795.81 151.742 1790.57 166.16 1785.24 180.317C1762.39 241.034 1737.46 300.989 1714.49 361.669C1703.24 391.37 1692.26 421.138 1682 451.183C1678.49 461.444 1674.64 471.7 1671.82 482.177C1670.68 486.379 1669.37 498.461 1672.53 487.269C1681.6 455.131 1692.41 423.488 1703.78 392.073C1721.8 342.301 1745.52 295.364 1771.91 249.426C1775.4 243.36 1778.99 237.318 1782.77 231.42C1783.32 230.551 1783.89 229.535 1783.89 231.125C1783.89 255.045 1774.47 279.341 1767.5 301.821C1751.01 354.974 1731.87 407.249 1714.04 459.964C1713.23 462.356 1712.03 469.707 1711.79 467.196C1711.31 461.979 1714.08 455.181 1715.65 450.556C1724.62 424.123 1735.69 398.23 1746.27 372.406C1764.65 327.56 1784.22 283.285 1805.15 239.538C1823.44 201.333 1842.23 163.328 1862.01 125.856C1870.38 110.021 1878.72 94.0091 1888.26 78.8117C1888.51 78.4088 1889.85 75.6302 1889.68 77.8524C1889.05 86.1602 1886.01 94.8909 1883.76 102.795C1874.56 135.204 1862.56 166.654 1850.37 198.065C1827.18 257.835 1802.42 316.972 1778.61 376.502C1773.29 389.812 1768.48 403.286 1763.6 416.757C1761.96 421.294 1759.88 425.953 1759.07 430.741C1759.02 431.046 1758.96 431.908 1759.15 431.664C1759.89 430.712 1760.37 429.584 1760.94 428.528C1766.26 418.808 1770.63 408.583 1775.24 398.53C1800.3 343.888 1824.37 288.516 1851.98 235.073C1858.49 222.474 1865.34 210.019 1872.31 197.659C1873.94 194.763 1877.28 186.286 1878.07 189.505C1879.12 193.759 1876.61 201.212 1875.68 205.002C1869.9 228.515 1861.74 251.598 1854.19 274.591C1830.45 346.877 1804.51 418.293 1777.64 489.483C1775.74 494.506 1773.44 499.796 1773.15 505.238C1773.12 505.735 1772.85 508.269 1773.63 506.197C1778.33 493.862 1782.45 481.296 1787.07 468.931C1803.66 424.53 1823.46 381.469 1844.16 338.793C1858.45 309.324 1873.81 280.502 1890.13 252.083C1898.61 237.308 1906.86 222.111 1916.85 208.249C1917.13 207.869 1924.32 197.218 1926.06 197.77C1928.83 198.646 1924.61 214.386 1924.38 215.333C1911.68 266.451 1890.93 315.643 1873.24 365.174C1864.91 388.519 1856.58 411.893 1849.51 435.649C1847.32 443.012 1845.88 451.382 1842.66 458.415C1841.66 460.597 1843.23 453.644 1843.86 451.33C1847.2 438.977 1851.55 426.84 1856.66 415.097C1863.41 399.592 1871.48 384.738 1879.8 370.008C1882.64 364.971 1886.84 353.681 1892.49 350.563C1894.04 349.707 1894.26 353.845 1894.28 354.326C1894.53 361.272 1892.88 368.771 1891.77 375.543C1889.33 390.578 1885.63 405.11 1881.29 419.709C1876.73 435.043 1873.83 449.895 1871.49 465.647" stroke="#191C24" stroke-width="6" stroke-linecap="round"/>
</g>
<rect x="1599.75" y="182.75" width="156.5" height="156.5" rx="8.25" stroke="#C5073D" stroke-width="3.5"/>
<rect x="420.499" y="775.5" width="87" height="87" rx="8.5" transform="rotate(-90 420.499 775.5)" stroke="#C5073D" stroke-width="3"/>
<line x1="478.883" y1="688.116" x2="507.883" y2="717.116" stroke="#C5073D" stroke-width="2.5"/>
<line x1="436.883" y1="689.116" x2="507.883" y2="760.116" stroke="#C5073D" stroke-width="2.5"/>
<line x1="420.883" y1="720.116" x2="476.883" y2="776.116" stroke="#C5073D" stroke-width="2.5"/>
<line x1="491.883" y1="688.116" x2="507.883" y2="704.116" stroke="#C5073D" stroke-width="2.5"/>
<line x1="464.883" y1="688.116" x2="507.883" y2="731.116" stroke="#C5073D" stroke-width="2.5"/>
<line x1="424.883" y1="691.116" x2="505.883" y2="772.116" stroke="#C5073D" stroke-width="2.5"/>
<line x1="419.883" y1="735.116" x2="460.883" y2="776.116" stroke="#C5073D" stroke-width="2.5"/>
<line x1="450.883" y1="689.116" x2="507.883" y2="746.116" stroke="#C5073D" stroke-width="2.5"/>
<line x1="420.883" y1="703.116" x2="493.883" y2="776.116" stroke="#C5073D" stroke-width="2.5"/>
<line x1="420.883" y1="752.116" x2="443.883" y2="775.116" stroke="#C5073D" stroke-width="2.5"/>
<g clip-path="url(#clip7_109_2)">
<path d="M315.125 891.033C323.94 869.552 336.785 849.835 347.916 829.488C362.945 802.019 376.169 773.675 390.965 746.099C396.885 735.066 403.049 724.09 409.607 713.408C412.116 709.32 414.851 705.361 418.291 701.97C420.202 700.087 420.987 699.861 420.462 702.855C418.548 713.782 414.952 724.4 411.179 734.809C390.652 791.432 367.018 846.997 345.371 903.21C332.983 935.38 321.024 967.705 308.462 999.808C306.234 1005.5 312.677 988.335 314.825 982.613C335.37 927.9 354.626 872.751 375.767 818.234C386.442 790.706 398.774 763.744 413.687 738.166C413.962 737.695 417.468 731.173 417.468 735.547C417.468 740.593 415.83 746.087 414.698 750.896C408.976 775.199 402.132 799.328 394.858 823.216C376.649 883.016 353.4 941.01 332.045 999.734C329.615 1006.41 324.558 1015.92 324.558 1023.42C324.558 1024.99 325.654 1020.47 326.205 1018.99C329.758 1009.49 332.848 999.816 336.537 990.362C344.596 969.706 354.556 949.757 364.237 929.813C376.814 903.906 389.575 878.086 403.056 852.623C410.234 839.064 417.561 825.575 424.917 812.109C427.222 807.889 430.146 802.542 432.591 798.31C433.222 797.218 435.676 791.88 437.607 791.041C438.538 790.636 438.432 793.758 438.43 793.845C438.291 800.219 436.943 806.706 435.511 812.884C430.177 835.892 422.487 858.466 414.997 880.85C403.727 914.529 391.267 947.714 377.863 980.621C371.099 997.226 364.572 1014.05 356.9 1030.29C355.179 1033.93 353.277 1037.81 350.612 1040.91C349.58 1042.11 349.45 1041.2 349.638 1040.17C350.634 1034.73 352.975 1029.38 354.916 1024.23C361.489 1006.82 369.041 989.904 377.002 973.057C393.322 938.525 409.78 904.041 426.602 869.743C449.147 823.776 471.128 777.327 496.153 732.595C497.572 730.058 497.934 729.485 499.147 727.208C499.345 726.838 499.511 725.753 499.746 726.101C500.502 727.219 498.87 732.216 498.698 732.816C494.179 748.588 487.186 763.807 481.105 779.012C466.372 815.848 451.784 852.708 436.521 889.336C417.342 935.362 360.748 1073.81 380.633 1028.07C382.048 1024.82 382.997 1021.36 384.227 1018.04C390.327 1001.57 397.253 985.367 404.591 969.404C431.959 909.868 464.984 852.724 495.666 794.804C499.777 787.044 503.55 778.436 508.656 771.19C510.117 769.116 509.684 770.887 509.442 772.186C508.219 778.746 506.415 785.152 504.538 791.557C494.333 826.386 483.265 861.011 471.596 895.387C457.654 936.464 442.507 977.109 427.5 1017.81C421.981 1032.78 416.05 1047.77 411.928 1063.2C411.518 1064.73 409.571 1069.67 410.281 1071.54C411.268 1074.13 412.07 1066.28 412.938 1063.64C417.372 1050.17 423.035 1037.13 428.848 1024.2C442.383 994.086 456.355 964.172 469.8 934.019C485.599 898.586 501.41 863.174 517.827 828.012C528.539 805.068 539.018 781.935 551.517 759.862C551.718 759.506 558.636 745.019 560.95 744.734C563.741 744.39 561.088 750.341 560.426 753.036C556.813 767.742 551.566 782.16 546.239 796.317C523.391 857.034 498.464 916.989 475.49 977.669C464.244 1007.37 453.258 1037.14 442.997 1067.18C439.493 1077.44 435.635 1087.7 432.815 1098.18C431.684 1102.38 430.366 1114.46 433.527 1103.27C442.602 1071.13 453.411 1039.49 464.784 1008.07C482.802 958.301 506.518 911.364 532.912 865.426C536.398 859.36 539.993 853.318 543.768 847.42C544.325 846.551 544.891 845.535 544.891 847.125C544.891 871.045 535.468 895.341 528.495 917.821C512.009 970.974 492.867 1023.25 475.04 1075.96C474.232 1078.36 473.026 1085.71 472.794 1083.2C472.313 1077.98 475.079 1071.18 476.65 1066.56C485.625 1040.12 496.686 1014.23 507.271 988.406C525.651 943.56 545.219 899.285 566.153 855.538C584.435 817.333 603.227 779.328 623.015 741.856C631.377 726.021 639.717 710.009 649.255 694.812C649.508 694.409 650.847 691.63 650.678 693.852C650.046 702.16 647.007 710.891 644.763 718.795C635.564 751.204 623.562 782.654 611.373 814.065C588.179 873.835 563.416 932.972 539.613 992.502C534.291 1005.81 529.477 1019.29 524.602 1032.76C522.96 1037.29 520.882 1041.95 520.073 1046.74C520.021 1047.05 519.957 1047.91 520.148 1047.66C520.89 1046.71 521.366 1045.58 521.944 1044.53C527.264 1034.81 531.634 1024.58 536.244 1014.53C561.298 959.888 585.37 904.516 612.983 851.073C619.492 838.474 626.342 826.019 633.309 813.659C634.941 810.763 638.279 802.286 639.074 805.505C640.123 809.759 637.61 817.212 636.678 821.002C630.896 844.515 622.742 867.598 615.191 890.591C591.452 962.877 565.513 1034.29 538.64 1105.48C536.743 1110.51 534.438 1115.8 534.148 1121.24C534.121 1121.73 533.846 1124.27 534.634 1122.2C539.327 1109.86 543.453 1097.3 548.073 1084.93C564.664 1040.53 584.465 997.469 605.159 954.793C619.448 925.324 634.812 896.502 651.127 868.083C659.609 853.308 667.857 838.111 677.855 824.249C678.129 823.869 685.323 813.218 687.063 813.77C689.828 814.646 685.614 830.386 685.379 831.333C672.678 882.451 651.933 931.643 634.245 981.174C625.908 1004.52 617.576 1027.89 610.512 1051.65C608.322 1059.01 606.884 1067.38 603.662 1074.41C602.662 1076.6 604.235 1069.64 604.859 1067.33C608.196 1054.98 612.547 1042.84 617.662 1031.1C624.414 1015.59 632.479 1000.74 640.796 986.008C643.639 980.971 647.837 969.681 653.485 966.563C655.036 965.707 655.265 969.845 655.282 970.326C655.534 977.272 653.877 984.771 652.774 991.543C650.327 1006.58 646.634 1021.11 642.293 1035.71C637.733 1051.04 634.829 1065.9 632.485 1081.65" stroke="#191C24" stroke-width="6" stroke-linecap="round"/>
</g>
<rect x="360.75" y="798.75" width="156.5" height="156.5" rx="8.25" stroke="#C5073D" stroke-width="3.5"/>
<defs>
<clipPath id="clip0_109_2">
<rect x="270" y="175" width="89" height="89" rx="10" fill="white"/>
</clipPath>
<clipPath id="clip1_109_2">
<rect x="161" y="284" width="89" height="89" rx="10" fill="white"/>
</clipPath>
<clipPath id="clip2_109_2">
<rect x="270" y="284" width="89" height="89" rx="6" fill="white"/>
</clipPath>
<clipPath id="clip3_109_2">
<rect x="161" y="175" width="89" height="89" rx="6" fill="white"/>
</clipPath>
<clipPath id="clip4_109_2">
<rect x="1446" y="911" width="90" height="90" rx="10" transform="rotate(-90 1446 911)" fill="white"/>
</clipPath>
<clipPath id="clip5_109_2">
<rect x="1280" y="224" width="90" height="90" rx="10" fill="white"/>
</clipPath>
<clipPath id="clip6_109_2">
<rect x="1598" y="181" width="160" height="160" rx="10" fill="white"/>
</clipPath>
<clipPath id="clip7_109_2">
<rect x="359" y="797" width="160" height="160" rx="10" fill="white"/>
</clipPath>
</defs>
</svg>
