<svg width="1920" height="1080" viewBox="0 0 1920 1080" fill="none" xmlns="http://www.w3.org/2000/svg">
<rect width="1920" height="1080" fill="#13161D"/>
<g clip-path="url(#clip0_109_2)">
<path d="M266.125 295.033C274.94 273.552 287.785 253.835 298.916 233.488C313.945 206.019 327.169 177.675 341.965 150.099C347.885 139.066 354.049 128.09 360.607 117.408C363.116 113.32 365.851 109.361 369.291 105.97C371.202 104.087 371.987 103.861 371.462 106.855C369.548 117.782 365.952 128.4 362.179 138.809C341.652 195.432 318.018 250.997 296.371 307.21C283.983 339.38 272.024 371.705 259.462 403.808C257.234 409.5 263.677 392.335 265.825 386.613C286.37 331.9 305.626 276.751 326.767 222.234C337.442 194.706 349.774 167.744 364.687 142.166C364.962 141.695 368.468 135.173 368.468 139.547C368.468 144.593 366.83 150.087 365.698 154.896C359.976 179.199 353.132 203.328 345.858 227.216C327.649 287.016 304.4 345.01 283.045 403.734C280.615 410.415 275.558 419.918 275.558 427.422C275.558 428.994 276.654 424.47 277.205 422.994C280.758 413.49 283.848 403.816 287.537 394.362C295.596 373.706 305.556 353.757 315.237 333.813C327.814 307.906 340.575 282.086 354.056 256.623C361.234 243.064 368.561 229.575 375.917 216.109C378.222 211.889 381.146 206.542 383.591 202.31C384.222 201.218 386.676 195.88 388.607 195.041C389.538 194.636 389.432 197.758 389.43 197.845C389.291 204.219 387.943 210.706 386.511 216.884C381.177 239.892 373.487 262.466 365.997 284.85C354.727 318.529 342.267 351.714 328.863 384.621C322.099 401.226 315.572 418.055 307.9 434.285C306.179 437.927 304.277 441.807 301.612 444.912C300.58 446.114 300.45 445.203 300.638 444.174C301.634 438.733 303.975 433.378 305.916 428.234C312.489 410.816 320.041 393.904 328.002 377.057C344.322 342.525 360.78 308.041 377.602 273.743C400.147 227.776 422.128 181.327 447.153 136.595C448.572 134.058 448.934 133.485 450.147 131.208C450.345 130.838 450.511 129.753 450.746 130.101C451.502 131.219 449.87 136.216 449.698 136.816C445.179 152.588 438.186 167.807 432.105 183.012C417.372 219.848 402.784 256.708 387.521 293.336C368.342 339.362 311.748 477.805 331.633 432.071C333.048 428.817 333.997 425.356 335.227 422.035C341.327 405.569 348.253 389.367 355.591 373.404C382.959 313.868 415.984 256.724 446.666 198.804C450.777 191.044 454.55 182.436 459.656 175.19C461.117 173.116 460.684 174.887 460.442 176.186C459.219 182.746 457.415 189.152 455.538 195.557C445.333 230.386 434.265 265.011 422.596 299.387C408.654 340.464 393.507 381.109 378.5 421.814C372.981 436.783 367.05 451.767 362.928 467.198C362.518 468.729 360.571 473.673 361.281 475.537C362.268 478.133 363.07 470.278 363.938 467.641C368.372 454.174 374.035 441.129 379.848 428.197C393.383 398.086 407.355 368.172 420.8 338.019C436.599 302.586 452.41 267.174 468.827 232.012C479.539 209.068 490.018 185.935 502.517 163.862C502.718 163.506 509.636 149.019 511.95 148.734C514.741 148.39 512.088 154.341 511.426 157.036C507.813 171.742 502.566 186.16 497.239 200.317C474.391 261.034 449.464 320.989 426.49 381.669C415.244 411.37 404.258 441.138 393.997 471.183C390.493 481.444 386.635 491.7 383.815 502.177C382.684 506.379 381.366 518.461 384.527 507.269C393.602 475.131 404.411 443.488 415.784 412.073C433.802 362.301 457.518 315.364 483.912 269.426C487.398 263.36 490.993 257.318 494.768 251.42C495.325 250.551 495.891 249.535 495.891 251.125C495.891 275.045 486.468 299.341 479.495 321.821C463.009 374.974 443.867 427.249 426.04 479.964C425.232 482.356 424.026 489.707 423.794 487.196C423.313 481.979 426.079 475.181 427.65 470.556C436.625 444.123 447.686 418.23 458.271 392.406C476.651 347.56 496.219 303.285 517.153 259.538C535.435 221.333 554.227 183.328 574.015 145.856C582.377 130.021 590.717 114.009 600.255 98.8117C600.508 98.4088 601.847 95.6302 601.678 97.8524C601.046 106.16 598.007 114.891 595.763 122.795C586.564 155.204 574.562 186.654 562.373 218.065C539.179 277.835 514.416 336.972 490.613 396.502C485.291 409.812 480.477 423.286 475.602 436.757C473.96 441.294 471.882 445.953 471.073 450.741C471.021 451.046 470.957 451.908 471.148 451.664C471.89 450.712 472.366 449.584 472.944 448.528C478.264 438.808 482.634 428.583 487.244 418.53C512.298 363.888 536.37 308.516 563.983 255.073C570.492 242.474 577.342 230.019 584.309 217.659C585.941 214.763 589.279 206.286 590.074 209.505C591.123 213.759 588.61 221.212 587.678 225.002C581.896 248.515 573.742 271.598 566.191 294.591C542.452 366.877 516.513 438.293 489.64 509.483C487.743 514.506 485.438 519.796 485.148 525.238C485.121 525.735 484.846 528.269 485.634 526.197C490.327 513.862 494.453 501.296 499.073 488.931C515.664 444.53 535.465 401.469 556.159 358.793C570.448 329.324 585.812 300.502 602.127 272.083C610.609 257.308 618.857 242.111 628.855 228.249C629.129 227.869 636.323 217.218 638.063 217.77C640.828 218.646 636.614 234.386 636.379 235.333C623.678 286.451 602.933 335.643 585.245 385.174C576.908 408.519 568.576 431.893 561.512 455.649C559.322 463.012 557.884 471.382 554.662 478.415C553.662 480.597 555.235 473.644 555.859 471.33C559.196 458.977 563.547 446.84 568.662 435.097C575.414 419.592 583.479 404.738 591.796 390.008C594.639 384.971 598.837 373.681 604.485 370.563C606.036 369.707 606.265 373.845 606.282 374.326C606.534 381.272 604.877 388.771 603.774 395.543C601.327 410.578 597.634 425.11 593.293 439.709C588.733 455.043 585.829 469.895 583.485 485.647" stroke="#191C24" stroke-width="3" stroke-linecap="round"/>
</g>
<rect x="311" y="202" width="87" height="87" rx="9" stroke="#C5073D" stroke-width="2"/>
<g clip-path="url(#clip1_109_2)">
<path d="M157.125 404.033C165.94 382.552 178.785 362.835 189.916 342.488C204.945 315.019 218.169 286.675 232.965 259.099C238.885 248.066 245.049 237.09 251.607 226.408C254.116 222.32 256.851 218.361 260.291 214.97C262.202 213.087 262.987 212.861 262.462 215.855C260.548 226.782 256.952 237.4 253.179 247.809C232.652 304.432 209.018 359.997 187.371 416.21C174.983 448.38 163.024 480.705 150.462 512.808C148.234 518.5 154.677 501.335 156.825 495.613C177.37 440.9 196.626 385.751 217.767 331.234C228.442 303.706 240.774 276.744 255.687 251.166C255.962 250.695 259.468 244.173 259.468 248.547C259.468 253.593 257.83 259.087 256.698 263.896C250.976 288.199 244.132 312.328 236.858 336.216C218.649 396.016 195.4 454.01 174.045 512.734C171.615 519.415 166.558 528.918 166.558 536.422C166.558 537.994 167.654 533.47 168.205 531.994C171.758 522.49 174.848 512.816 178.537 503.362C186.596 482.706 196.556 462.757 206.237 442.813C218.814 416.906 231.575 391.086 245.056 365.623C252.234 352.064 259.561 338.575 266.917 325.109C269.222 320.889 272.146 315.542 274.591 311.31C275.222 310.218 277.676 304.88 279.607 304.041C280.538 303.636 280.432 306.758 280.43 306.845C280.291 313.219 278.943 319.706 277.511 325.884C272.177 348.892 264.487 371.466 256.997 393.85C245.727 427.529 233.267 460.714 219.863 493.621C213.099 510.226 206.572 527.055 198.9 543.285C197.179 546.927 195.277 550.807 192.612 553.912C191.58 555.114 191.45 554.203 191.638 553.174C192.634 547.733 194.975 542.378 196.916 537.234C203.489 519.816 211.041 502.904 219.002 486.057C235.322 451.525 251.78 417.041 268.602 382.743C291.147 336.776 313.128 290.327 338.153 245.595C339.572 243.058 339.934 242.485 341.147 240.208C341.345 239.838 341.511 238.753 341.746 239.101C342.502 240.219 340.87 245.216 340.698 245.816C336.179 261.588 329.186 276.807 323.105 292.012C308.372 328.848 293.784 365.708 278.521 402.336C259.342 448.362 202.748 586.805 222.633 541.071C224.048 537.817 224.997 534.356 226.227 531.035C232.327 514.569 239.253 498.367 246.591 482.404C273.959 422.868 306.984 365.724 337.666 307.804C341.777 300.044 345.55 291.436 350.656 284.19C352.117 282.116 351.684 283.887 351.442 285.186C350.219 291.746 348.415 298.152 346.538 304.557C336.333 339.386 325.265 374.011 313.596 408.387C299.654 449.464 284.507 490.109 269.5 530.814C263.981 545.783 258.05 560.767 253.928 576.198C253.518 577.729 251.571 582.673 252.281 584.537C253.268 587.133 254.07 579.278 254.938 576.641C259.372 563.174 265.035 550.129 270.848 537.197C284.383 507.086 298.355 477.172 311.8 447.019C327.599 411.586 343.41 376.174 359.827 341.012C370.539 318.068 381.018 294.935 393.517 272.862C393.718 272.506 400.636 258.019 402.95 257.734C405.741 257.39 403.088 263.341 402.426 266.036C398.813 280.742 393.566 295.16 388.239 309.317C365.391 370.034 340.464 429.989 317.49 490.669C306.244 520.37 295.258 550.138 284.997 580.183C281.493 590.444 277.635 600.7 274.815 611.177C273.684 615.379 272.366 627.461 275.527 616.269C284.602 584.131 295.411 552.488 306.784 521.073C324.802 471.301 348.518 424.364 374.912 378.426C378.398 372.36 381.993 366.318 385.768 360.42C386.325 359.551 386.891 358.535 386.891 360.125C386.891 384.045 377.468 408.341 370.495 430.821C354.009 483.974 334.867 536.249 317.04 588.964C316.232 591.356 315.026 598.707 314.794 596.196C314.313 590.979 317.079 584.181 318.65 579.556C327.625 553.123 338.686 527.23 349.271 501.406C367.651 456.56 387.219 412.285 408.153 368.538C426.435 330.333 445.227 292.328 465.015 254.856C473.377 239.021 481.717 223.009 491.255 207.812C491.508 207.409 492.847 204.63 492.678 206.852C492.046 215.16 489.007 223.891 486.763 231.795C477.564 264.204 465.562 295.654 453.373 327.065C430.179 386.835 405.416 445.972 381.613 505.502C376.291 518.812 371.477 532.286 366.602 545.757C364.96 550.294 362.882 554.953 362.073 559.741C362.021 560.046 361.957 560.908 362.148 560.664C362.89 559.712 363.366 558.584 363.944 557.528C369.264 547.808 373.634 537.583 378.244 527.53C403.298 472.888 427.37 417.516 454.983 364.073C461.492 351.474 468.342 339.019 475.309 326.659C476.941 323.763 480.279 315.286 481.074 318.505C482.123 322.759 479.61 330.212 478.678 334.002C472.896 357.515 464.742 380.598 457.191 403.591C433.452 475.877 407.513 547.293 380.64 618.483C378.743 623.506 376.438 628.796 376.148 634.238C376.121 634.735 375.846 637.269 376.634 635.197C381.327 622.862 385.453 610.296 390.073 597.931C406.664 553.53 426.465 510.469 447.159 467.793C461.448 438.324 476.812 409.502 493.127 381.083C501.609 366.308 509.857 351.111 519.855 337.249C520.129 336.869 527.323 326.218 529.063 326.77C531.828 327.646 527.614 343.386 527.379 344.333C514.678 395.451 493.933 444.643 476.245 494.174C467.908 517.519 459.576 540.893 452.512 564.649C450.322 572.012 448.884 580.382 445.662 587.415C444.662 589.597 446.235 582.644 446.859 580.33C450.196 567.977 454.547 555.84 459.662 544.097C466.414 528.592 474.479 513.738 482.796 499.008C485.639 493.971 489.837 482.681 495.485 479.563C497.036 478.707 497.265 482.845 497.282 483.326C497.534 490.272 495.877 497.771 494.774 504.543C492.327 519.578 488.634 534.11 484.293 548.709C479.733 564.043 476.829 578.895 474.485 594.647" stroke="#191C24" stroke-width="3" stroke-linecap="round"/>
</g>
<rect x="202" y="311" width="87" height="87" rx="9" stroke="#C5073D" stroke-width="2"/>
<g clip-path="url(#clip2_109_2)">
<path d="M308.927 329.159C314.705 323.648 320.278 317.943 325.857 312.238C335.864 302.004 342.681 289.315 352.599 279.012C354.777 276.749 357.238 274.35 359.77 272.428C360.628 271.777 360.83 271.873 360.471 272.685C354.802 285.529 345.591 297.539 338.096 309.512C316.724 343.651 294.394 377.847 277.494 414.282C277.023 415.298 273.361 420.795 274.097 422.1C274.354 422.554 274.915 422.012 274.96 421.74C275.216 420.191 276.581 418.398 277.332 417.059C281.721 409.238 286.196 401.432 291.135 393.914C304.304 373.871 316.644 353.46 330.898 334.071C335.841 327.347 340.53 320.513 345.213 313.626C346.784 311.316 348.478 308.308 350.82 306.606C352.023 305.731 350.298 311.399 350.065 312.238C348.372 318.339 344.995 323.714 341.843 329.211C329.072 351.483 316.327 373.767 304.129 396.332C296.818 409.856 289.975 423.466 284.288 437.684C282.71 441.628 280.186 446.096 279.84 450.388C279.57 453.734 280.866 453.764 282.94 451.057C304.806 422.513 322.11 391.117 340.333 360.405C349.583 344.817 358.787 329.199 368.208 313.704C372.015 307.442 375.379 300.569 379.908 294.75C380.252 294.308 383.17 290.556 383.17 292.873C383.17 297.067 379.487 301.832 377.724 305.397C366.902 327.287 355.824 349.046 343.488 370.203C334.379 385.825 325.972 401.49 318.363 417.831C314.315 426.523 310.94 435.332 307.579 444.268C306.567 446.96 306.504 446.44 307.687 444.165C313.897 432.224 322.56 421.247 330.17 410.116C341.399 393.693 351.973 376.927 362.736 360.225C371.949 345.929 381.291 331.688 390.395 317.33C393.776 311.997 396.654 306.539 400.8 301.694C402.91 299.229 404.288 298.174 404.035 301.848C403.696 306.783 401.019 312.228 399.075 316.713C391.681 333.767 382.751 350.241 375.028 367.169C368.169 382.204 361.75 397.539 356.158 413.048C353.751 419.721 351.558 426.535 350.389 433.518C350.324 433.904 349.604 436.556 350.497 435.421C359.104 424.474 366.991 413.045 374.732 401.526C396.816 368.665 416.537 334.427 438.056 301.231C438.839 300.024 440.478 296.575 440.887 297.939C441.17 298.884 440.862 300.3 440.617 301.205C435.616 319.76 427.265 337.644 420.561 355.648C414.687 371.419 409.397 387.394 404.197 403.378C402.227 409.434 401.154 415.435 400.423 421.714C400.273 423.001 399.797 425.402 401.07 423.026C404.736 416.183 408.793 409.478 412.797 402.812C417.298 395.318 422.119 387.824 427.435 380.824C428 380.081 431.044 375.197 432.854 375.964C434.193 376.532 431.828 384.291 431.694 385.376C430.816 392.495 429.139 399.458 427.57 406.464C424.89 418.43 422.953 430.478 421.019 442.57" stroke="#C5073D" stroke-width="3" stroke-linecap="round"/>
</g>
<rect x="311" y="311" width="87" height="87" rx="5" stroke="#C5073D" stroke-width="2"/>
<g clip-path="url(#clip3_109_2)">
<path d="M199.927 220.159C205.705 214.648 211.278 208.943 216.857 203.238C226.864 193.004 233.681 180.315 243.599 170.012C245.777 167.749 248.238 165.35 250.77 163.428C251.628 162.777 251.83 162.873 251.471 163.685C245.802 176.529 236.591 188.539 229.096 200.512C207.724 234.651 185.394 268.847 168.494 305.282C168.023 306.298 164.361 311.795 165.097 313.1C165.354 313.554 165.915 313.012 165.96 312.74C166.216 311.191 167.581 309.398 168.332 308.059C172.721 300.238 177.196 292.432 182.135 284.914C195.304 264.871 207.644 244.46 221.898 225.071C226.841 218.347 231.53 211.513 236.213 204.626C237.784 202.316 239.478 199.308 241.82 197.606C243.023 196.731 241.298 202.399 241.065 203.238C239.372 209.339 235.995 214.714 232.843 220.211C220.072 242.483 207.327 264.767 195.129 287.332C187.818 300.856 180.975 314.466 175.288 328.684C173.71 332.628 171.186 337.096 170.84 341.388C170.57 344.734 171.866 344.764 173.94 342.057C195.806 313.513 213.11 282.117 231.333 251.405C240.583 235.817 249.787 220.199 259.208 204.704C263.015 198.442 266.379 191.569 270.908 185.75C271.252 185.308 274.17 181.556 274.17 183.873C274.17 188.067 270.487 192.832 268.724 196.397C257.902 218.287 246.824 240.046 234.488 261.203C225.379 276.825 216.972 292.49 209.363 308.831C205.315 317.523 201.94 326.332 198.579 335.268C197.567 337.96 197.504 337.44 198.687 335.165C204.897 323.224 213.56 312.247 221.17 301.116C232.399 284.693 242.973 267.927 253.736 251.225C262.949 236.929 272.291 222.688 281.395 208.33C284.776 202.997 287.654 197.539 291.8 192.694C293.91 190.229 295.288 189.174 295.035 192.848C294.696 197.783 292.019 203.228 290.075 207.713C282.681 224.767 273.751 241.241 266.028 258.169C259.169 273.204 252.75 288.539 247.158 304.048C244.751 310.721 242.558 317.535 241.389 324.518C241.324 324.904 240.604 327.556 241.497 326.421C250.104 315.474 257.991 304.045 265.732 292.526C287.816 259.665 307.537 225.427 329.056 192.231C329.839 191.024 331.478 187.575 331.887 188.939C332.17 189.884 331.862 191.3 331.617 192.205C326.616 210.76 318.265 228.644 311.561 246.648C305.687 262.419 300.397 278.394 295.197 294.378C293.227 300.434 292.154 306.435 291.423 312.714C291.273 314.001 290.797 316.402 292.07 314.026C295.736 307.183 299.793 300.478 303.797 293.812C308.298 286.318 313.119 278.824 318.435 271.824C319 271.081 322.044 266.197 323.854 266.964C325.193 267.532 322.828 275.291 322.694 276.376C321.816 283.495 320.139 290.458 318.57 297.464C315.89 309.43 313.953 321.478 312.019 333.57" stroke="#C5073D" stroke-width="3" stroke-linecap="round"/>
</g>
<rect x="202" y="202" width="87" height="87" rx="5" stroke="#C5073D" stroke-width="2"/>
<rect x="1655" y="829" width="90" height="90" rx="10" fill="#191C24"/>
<rect x="1766.5" y="830.5" width="87" height="87" rx="8.5" stroke="#C5073D" stroke-width="3"/>
<line x1="1853.88" y1="888.884" x2="1824.88" y2="917.884" stroke="#C5073D" stroke-width="2.5"/>
<line x1="1852.88" y1="846.884" x2="1781.88" y2="917.884" stroke="#C5073D" stroke-width="2.5"/>
<line x1="1821.88" y1="830.884" x2="1765.88" y2="886.884" stroke="#C5073D" stroke-width="2.5"/>
<line x1="1853.88" y1="901.884" x2="1837.88" y2="917.884" stroke="#C5073D" stroke-width="2.5"/>
<line x1="1853.88" y1="874.884" x2="1810.88" y2="917.884" stroke="#C5073D" stroke-width="2.5"/>
<line x1="1850.88" y1="834.884" x2="1769.88" y2="915.884" stroke="#C5073D" stroke-width="2.5"/>
<line x1="1806.88" y1="829.884" x2="1765.88" y2="870.884" stroke="#C5073D" stroke-width="2.5"/>
<line x1="1852.88" y1="860.884" x2="1795.88" y2="917.884" stroke="#C5073D" stroke-width="2.5"/>
<line x1="1838.88" y1="830.884" x2="1765.88" y2="903.884" stroke="#C5073D" stroke-width="2.5"/>
<line x1="1789.88" y1="830.884" x2="1766.88" y2="853.884" stroke="#C5073D" stroke-width="2.5"/>
<g clip-path="url(#clip4_109_2)">
<path d="M1653.93 953.159C1659.7 947.648 1665.28 941.943 1670.86 936.238C1680.86 926.004 1687.68 913.315 1697.6 903.012C1699.78 900.749 1702.24 898.35 1704.77 896.428C1705.63 895.777 1705.83 895.873 1705.47 896.685C1699.8 909.529 1690.59 921.539 1683.1 933.512C1661.72 967.651 1639.39 1001.85 1622.49 1038.28C1622.02 1039.3 1618.36 1044.8 1619.1 1046.1C1619.35 1046.55 1619.92 1046.01 1619.96 1045.74C1620.22 1044.19 1621.58 1042.4 1622.33 1041.06C1626.72 1033.24 1631.2 1025.43 1636.13 1017.91C1649.3 997.871 1661.64 977.46 1675.9 958.071C1680.84 951.347 1685.53 944.513 1690.21 937.626C1691.78 935.316 1693.48 932.308 1695.82 930.606C1697.02 929.731 1695.3 935.399 1695.07 936.238C1693.37 942.339 1689.99 947.714 1686.84 953.211C1674.07 975.483 1661.33 997.767 1649.13 1020.33C1641.82 1033.86 1634.98 1047.47 1629.29 1061.68C1627.71 1065.63 1625.19 1070.1 1624.84 1074.39C1624.57 1077.73 1625.87 1077.76 1627.94 1075.06C1649.81 1046.51 1667.11 1015.12 1685.33 984.405C1694.58 968.817 1703.79 953.199 1713.21 937.704C1717.02 931.442 1720.38 924.569 1724.91 918.75C1725.25 918.308 1728.17 914.556 1728.17 916.873C1728.17 921.067 1724.49 925.832 1722.72 929.397C1711.9 951.287 1700.82 973.046 1688.49 994.203C1679.38 1009.82 1670.97 1025.49 1663.36 1041.83C1659.32 1050.52 1655.94 1059.33 1652.58 1068.27C1651.57 1070.96 1651.5 1070.44 1652.69 1068.16C1658.9 1056.22 1667.56 1045.25 1675.17 1034.12C1686.4 1017.69 1696.97 1000.93 1707.74 984.225C1716.95 969.929 1726.29 955.688 1735.39 941.33C1738.78 935.997 1741.65 930.539 1745.8 925.694C1747.91 923.229 1749.29 922.174 1749.04 925.848C1748.7 930.783 1746.02 936.228 1744.08 940.713C1736.68 957.767 1727.75 974.241 1720.03 991.169C1713.17 1006.2 1706.75 1021.54 1701.16 1037.05C1698.75 1043.72 1696.56 1050.53 1695.39 1057.52C1695.32 1057.9 1694.6 1060.56 1695.5 1059.42C1704.1 1048.47 1711.99 1037.04 1719.73 1025.53C1741.82 992.665 1761.54 958.427 1783.06 925.231C1783.84 924.024 1785.48 920.575 1785.89 921.939C1786.17 922.884 1785.86 924.3 1785.62 925.205C1780.62 943.76 1772.27 961.644 1765.56 979.648C1759.69 995.419 1754.4 1011.39 1749.2 1027.38C1747.23 1033.43 1746.15 1039.43 1745.42 1045.71C1745.27 1047 1744.8 1049.4 1746.07 1047.03C1749.74 1040.18 1753.79 1033.48 1757.8 1026.81C1762.3 1019.32 1767.12 1011.82 1772.43 1004.82C1773 1004.08 1776.04 999.197 1777.85 999.964C1779.19 1000.53 1776.83 1008.29 1776.69 1009.38C1775.82 1016.49 1774.14 1023.46 1772.57 1030.46C1769.89 1042.43 1767.95 1054.48 1766.02 1066.57" stroke="#C5073D" stroke-width="3" stroke-linecap="round"/>
</g>
<rect x="1656.5" y="935.5" width="87" height="87" rx="8.5" stroke="#C5073D" stroke-width="3"/>
<rect x="1535" y="344" width="90" height="90" rx="10" fill="#191C24"/>
<rect x="1426.5" y="345.5" width="87" height="87" rx="8.5" stroke="#C5073D" stroke-width="3"/>
<line x1="1481.25" y1="347" x2="1481.25" y2="434" stroke="#C5073D" stroke-width="2.5"/>
<line x1="1492.25" y1="347" x2="1492.25" y2="434" stroke="#C5073D" stroke-width="2.5"/>
<line x1="1503.25" y1="347" x2="1503.25" y2="434" stroke="#C5073D" stroke-width="2.5"/>
<line x1="1470.25" y1="345" x2="1470.25" y2="432" stroke="#C5073D" stroke-width="2.5"/>
<line x1="1459.25" y1="346" x2="1459.25" y2="433" stroke="#C5073D" stroke-width="2.5"/>
<line x1="1448.25" y1="347" x2="1448.25" y2="434" stroke="#C5073D" stroke-width="2.5"/>
<line x1="1437.25" y1="347" x2="1437.25" y2="434" stroke="#C5073D" stroke-width="2.5"/>
<g clip-path="url(#clip5_109_2)">
<path d="M1491.12 543.033C1499.94 521.552 1512.78 501.835 1523.92 481.488C1538.94 454.019 1552.17 425.675 1566.96 398.099C1572.89 387.066 1579.05 376.09 1585.61 365.408C1588.12 361.32 1590.85 357.361 1594.29 353.97C1596.2 352.087 1596.99 351.861 1596.46 354.855C1594.55 365.782 1590.95 376.4 1587.18 386.809C1566.65 443.432 1543.02 498.997 1521.37 555.21C1508.98 587.38 1497.02 619.705 1484.46 651.808C1482.23 657.5 1488.68 640.335 1490.83 634.613C1511.37 579.9 1530.63 524.751 1551.77 470.234C1562.44 442.706 1574.77 415.744 1589.69 390.166C1589.96 389.695 1593.47 383.173 1593.47 387.547C1593.47 392.593 1591.83 398.087 1590.7 402.896C1584.98 427.199 1578.13 451.328 1570.86 475.216C1552.65 535.016 1529.4 593.01 1508.04 651.734C1505.62 658.415 1500.56 667.918 1500.56 675.422C1500.56 676.994 1501.65 672.47 1502.21 670.994C1505.76 661.49 1508.85 651.816 1512.54 642.362C1520.6 621.706 1530.56 601.757 1540.24 581.813C1552.81 555.906 1565.57 530.086 1579.06 504.623C1586.23 491.064 1593.56 477.575 1600.92 464.109C1603.22 459.889 1606.15 454.542 1608.59 450.31C1609.22 449.218 1611.68 443.88 1613.61 443.041C1614.54 442.636 1614.43 445.758 1614.43 445.845C1614.29 452.219 1612.94 458.706 1611.51 464.884C1606.18 487.892 1598.49 510.466 1591 532.85C1579.73 566.529 1567.27 599.714 1553.86 632.621C1547.1 649.226 1540.57 666.055 1532.9 682.285C1531.18 685.927 1529.28 689.807 1526.61 692.912C1525.58 694.114 1525.45 693.203 1525.64 692.174C1526.63 686.733 1528.98 681.378 1530.92 676.234C1537.49 658.816 1545.04 641.904 1553 625.057C1569.32 590.525 1585.78 556.041 1602.6 521.743C1625.15 475.776 1647.13 429.327 1672.15 384.595C1673.57 382.058 1673.93 381.485 1675.15 379.208C1675.34 378.838 1675.51 377.753 1675.75 378.101C1676.5 379.219 1674.87 384.216 1674.7 384.816C1670.18 400.588 1663.19 415.807 1657.1 431.012C1642.37 467.848 1627.78 504.708 1612.52 541.336C1593.34 587.362 1536.75 725.805 1556.63 680.071C1558.05 676.817 1559 673.356 1560.23 670.035C1566.33 653.569 1573.25 637.367 1580.59 621.404C1607.96 561.868 1640.98 504.724 1671.67 446.804C1675.78 439.044 1679.55 430.436 1684.66 423.19C1686.12 421.116 1685.68 422.887 1685.44 424.186C1684.22 430.746 1682.41 437.152 1680.54 443.557C1670.33 478.386 1659.27 513.011 1647.6 547.387C1633.65 588.464 1618.51 629.109 1603.5 669.814C1597.98 684.783 1592.05 699.767 1587.93 715.198C1587.52 716.729 1585.57 721.673 1586.28 723.537C1587.27 726.133 1588.07 718.278 1588.94 715.641C1593.37 702.174 1599.03 689.129 1604.85 676.197C1618.38 646.086 1632.35 616.172 1645.8 586.019C1661.6 550.586 1677.41 515.174 1693.83 480.012C1704.54 457.068 1715.02 433.935 1727.52 411.862C1727.72 411.506 1734.64 397.019 1736.95 396.734C1739.74 396.39 1737.09 402.341 1736.43 405.036C1732.81 419.742 1727.57 434.16 1722.24 448.317C1699.39 509.034 1674.46 568.989 1651.49 629.669C1640.24 659.37 1629.26 689.138 1619 719.183C1615.49 729.444 1611.64 739.7 1608.82 750.177C1607.68 754.379 1606.37 766.461 1609.53 755.269C1618.6 723.131 1629.41 691.488 1640.78 660.073C1658.8 610.301 1682.52 563.364 1708.91 517.426C1712.4 511.36 1715.99 505.318 1719.77 499.42C1720.32 498.551 1720.89 497.535 1720.89 499.125C1720.89 523.045 1711.47 547.341 1704.5 569.821C1688.01 622.974 1668.87 675.249 1651.04 727.964C1650.23 730.356 1649.03 737.707 1648.79 735.196C1648.31 729.979 1651.08 723.181 1652.65 718.556C1661.62 692.123 1672.69 666.23 1683.27 640.406C1701.65 595.56 1721.22 551.285 1742.15 507.538C1760.44 469.333 1779.23 431.328 1799.01 393.856C1807.38 378.021 1815.72 362.009 1825.26 346.812C1825.51 346.409 1826.85 343.63 1826.68 345.852C1826.05 354.16 1823.01 362.891 1820.76 370.795C1811.56 403.204 1799.56 434.654 1787.37 466.065C1764.18 525.835 1739.42 584.972 1715.61 644.502C1710.29 657.812 1705.48 671.286 1700.6 684.757C1698.96 689.294 1696.88 693.953 1696.07 698.741C1696.02 699.046 1695.96 699.908 1696.15 699.664C1696.89 698.712 1697.37 697.584 1697.94 696.528C1703.26 686.808 1707.63 676.583 1712.24 666.53C1737.3 611.888 1761.37 556.516 1788.98 503.073C1795.49 490.474 1802.34 478.019 1809.31 465.659C1810.94 462.763 1814.28 454.286 1815.07 457.505C1816.12 461.759 1813.61 469.212 1812.68 473.002C1806.9 496.515 1798.74 519.598 1791.19 542.591C1767.45 614.877 1741.51 686.293 1714.64 757.483C1712.74 762.506 1710.44 767.796 1710.15 773.238C1710.12 773.735 1709.85 776.269 1710.63 774.197C1715.33 761.862 1719.45 749.296 1724.07 736.931C1740.66 692.53 1760.46 649.469 1781.16 606.793C1795.45 577.324 1810.81 548.502 1827.13 520.083C1835.61 505.308 1843.86 490.111 1853.85 476.249C1854.13 475.869 1861.32 465.218 1863.06 465.77C1865.83 466.646 1861.61 482.386 1861.38 483.333C1848.68 534.451 1827.93 583.643 1810.24 633.174C1801.91 656.519 1793.58 679.893 1786.51 703.649C1784.32 711.012 1782.88 719.382 1779.66 726.415C1778.66 728.597 1780.23 721.644 1780.86 719.33C1784.2 706.977 1788.55 694.84 1793.66 683.097C1800.41 667.592 1808.48 652.738 1816.8 638.008C1819.64 632.971 1823.84 621.681 1829.49 618.563C1831.04 617.707 1831.26 621.845 1831.28 622.326C1831.53 629.272 1829.88 636.771 1828.77 643.543C1826.33 658.578 1822.63 673.11 1818.29 687.709C1813.73 703.043 1810.83 717.895 1808.49 733.647" stroke="#191C24" stroke-width="3" stroke-linecap="round"/>
</g>
<rect x="1536.5" y="450.5" width="87" height="87" rx="8.5" stroke="#C5073D" stroke-width="3"/>
<g clip-path="url(#clip6_109_2)">
<path d="M1366.12 188.033C1374.94 166.552 1387.78 146.835 1398.92 126.488C1413.94 99.0185 1427.17 70.6746 1441.96 43.0995C1447.89 32.0656 1454.05 21.0901 1460.61 10.4081C1463.12 6.31973 1465.85 2.36128 1469.29 -1.03013C1471.2 -2.91305 1471.99 -3.13884 1471.46 -0.144587C1469.55 10.7822 1465.95 21.4002 1462.18 31.8088C1441.65 88.4317 1418.02 143.997 1396.37 200.21C1383.98 232.38 1372.02 264.705 1359.46 296.808C1357.23 302.5 1363.68 285.335 1365.83 279.613C1386.37 224.9 1405.63 169.751 1426.77 115.234C1437.44 87.7059 1449.77 60.7442 1464.69 35.1665C1464.96 34.6949 1468.47 28.1728 1468.47 32.5467C1468.47 37.5926 1466.83 43.0868 1465.7 47.8961C1459.98 72.1995 1453.13 96.3279 1445.86 120.216C1427.65 180.016 1404.4 238.01 1383.04 296.734C1380.62 303.415 1375.56 312.918 1375.56 320.422C1375.56 321.994 1376.65 317.47 1377.21 315.994C1380.76 306.49 1383.85 296.816 1387.54 287.362C1395.6 266.706 1405.56 246.757 1415.24 226.813C1427.81 200.906 1440.57 175.086 1454.06 149.623C1461.23 136.064 1468.56 122.575 1475.92 109.109C1478.22 104.889 1481.15 99.5419 1483.59 95.3096C1484.22 94.2178 1486.68 88.8804 1488.61 88.0408C1489.54 87.6358 1489.43 90.7582 1489.43 90.845C1489.29 97.219 1487.94 103.706 1486.51 109.884C1481.18 132.892 1473.49 155.466 1466 177.85C1454.73 211.529 1442.27 244.714 1428.86 277.621C1422.1 294.226 1415.57 311.055 1407.9 327.285C1406.18 330.927 1404.28 334.807 1401.61 337.912C1400.58 339.114 1400.45 338.203 1400.64 337.174C1401.63 331.733 1403.98 326.378 1405.92 321.234C1412.49 303.816 1420.04 286.904 1428 270.057C1444.32 235.525 1460.78 201.041 1477.6 166.743C1500.15 120.776 1522.13 74.3268 1547.15 29.5949C1548.57 27.0579 1548.93 26.4852 1550.15 24.2079C1550.34 23.8376 1550.51 22.753 1550.75 23.1009C1551.5 24.2187 1549.87 29.2163 1549.7 29.8163C1545.18 45.5884 1538.19 60.8066 1532.1 76.0121C1517.37 112.848 1502.78 149.708 1487.52 186.336C1468.34 232.362 1411.75 370.805 1431.63 325.071C1433.05 321.817 1434 318.356 1435.23 315.035C1441.33 298.569 1448.25 282.367 1455.59 266.404C1482.96 206.868 1515.98 149.724 1546.67 91.8043C1550.78 84.044 1554.55 75.4362 1559.66 68.1899C1561.12 66.1159 1560.68 67.8869 1560.44 69.1861C1559.22 75.7465 1557.41 82.1515 1555.54 88.5573C1545.33 123.386 1534.27 158.011 1522.6 192.387C1508.65 233.464 1493.51 274.109 1478.5 314.814C1472.98 329.783 1467.05 344.767 1462.93 360.198C1462.52 361.729 1460.57 366.673 1461.28 368.537C1462.27 371.133 1463.07 363.278 1463.94 360.641C1468.37 347.174 1474.03 334.129 1479.85 321.197C1493.38 291.086 1507.35 261.172 1520.8 231.019C1536.6 195.586 1552.41 160.174 1568.83 125.012C1579.54 102.068 1590.02 78.9347 1602.52 56.8623C1602.72 56.5063 1609.64 42.0194 1611.95 41.7342C1614.74 41.3903 1612.09 47.3414 1611.43 50.0362C1607.81 64.7417 1602.57 79.1598 1597.24 93.3171C1574.39 154.034 1549.46 213.989 1526.49 274.669C1515.24 304.37 1504.26 334.138 1494 364.183C1490.49 374.444 1486.64 384.7 1483.82 395.177C1482.68 399.379 1481.37 411.461 1484.53 400.269C1493.6 368.131 1504.41 336.488 1515.78 305.073C1533.8 255.301 1557.52 208.364 1583.91 162.426C1587.4 156.36 1590.99 150.318 1594.77 144.42C1595.32 143.551 1595.89 142.535 1595.89 144.125C1595.89 168.045 1586.47 192.341 1579.5 214.821C1563.01 267.974 1543.87 320.249 1526.04 372.964C1525.23 375.356 1524.03 382.707 1523.79 380.196C1523.31 374.979 1526.08 368.181 1527.65 363.556C1536.62 337.123 1547.69 311.23 1558.27 285.406C1576.65 240.56 1596.22 196.285 1617.15 152.538C1635.44 114.333 1654.23 76.3281 1674.01 38.8562C1682.38 23.021 1690.72 7.00913 1700.26 -8.18827C1700.51 -8.59123 1701.85 -11.3698 1701.68 -9.14761C1701.05 -0.839795 1698.01 7.8909 1695.76 15.7952C1686.56 48.2045 1674.56 79.6541 1662.37 111.065C1639.18 170.835 1614.42 229.972 1590.61 289.502C1585.29 302.812 1580.48 316.286 1575.6 329.757C1573.96 334.294 1571.88 338.953 1571.07 343.741C1571.02 344.046 1570.96 344.908 1571.15 344.664C1571.89 343.712 1572.37 342.584 1572.94 341.528C1578.26 331.808 1582.63 321.583 1587.24 311.53C1612.3 256.888 1636.37 201.516 1663.98 148.073C1670.49 135.474 1677.34 123.019 1684.31 110.659C1685.94 107.763 1689.28 99.2856 1690.07 102.505C1691.12 106.759 1688.61 114.212 1687.68 118.002C1681.9 141.515 1673.74 164.598 1666.19 187.591C1642.45 259.877 1616.51 331.293 1589.64 402.483C1587.74 407.506 1585.44 412.796 1585.15 418.238C1585.12 418.735 1584.85 421.269 1585.63 419.197C1590.33 406.862 1594.45 394.296 1599.07 381.931C1615.66 337.53 1635.46 294.469 1656.16 251.793C1670.45 222.324 1685.81 193.502 1702.13 165.083C1710.61 150.308 1718.86 135.111 1728.85 121.249C1729.13 120.869 1736.32 110.218 1738.06 110.77C1740.83 111.646 1736.61 127.386 1736.38 128.333C1723.68 179.451 1702.93 228.643 1685.24 278.174C1676.91 301.519 1668.58 324.893 1661.51 348.649C1659.32 356.012 1657.88 364.382 1654.66 371.415C1653.66 373.597 1655.23 366.644 1655.86 364.33C1659.2 351.977 1663.55 339.84 1668.66 328.097C1675.41 312.592 1683.48 297.738 1691.8 283.008C1694.64 277.971 1698.84 266.681 1704.49 263.563C1706.04 262.707 1706.26 266.845 1706.28 267.326C1706.53 274.272 1704.88 281.771 1703.77 288.543C1701.33 303.578 1697.63 318.11 1693.29 332.709C1688.73 348.043 1685.83 362.895 1683.49 378.647" stroke="#191C24" stroke-width="6" stroke-linecap="round"/>
</g>
<rect x="1412.5" y="96.5" width="225" height="225" rx="7.5" stroke="#C5073D" stroke-width="5"/>
<rect x="410.499" y="753.5" width="87" height="87" rx="8.5" transform="rotate(-90 410.499 753.5)" stroke="#C5073D" stroke-width="3"/>
<line x1="468.883" y1="666.116" x2="497.883" y2="695.116" stroke="#C5073D" stroke-width="2.5"/>
<line x1="426.883" y1="667.116" x2="497.883" y2="738.116" stroke="#C5073D" stroke-width="2.5"/>
<line x1="410.883" y1="698.116" x2="466.883" y2="754.116" stroke="#C5073D" stroke-width="2.5"/>
<line x1="481.883" y1="666.116" x2="497.883" y2="682.116" stroke="#C5073D" stroke-width="2.5"/>
<line x1="454.883" y1="666.116" x2="497.883" y2="709.116" stroke="#C5073D" stroke-width="2.5"/>
<line x1="414.883" y1="669.116" x2="495.883" y2="750.116" stroke="#C5073D" stroke-width="2.5"/>
<line x1="409.883" y1="713.116" x2="450.883" y2="754.116" stroke="#C5073D" stroke-width="2.5"/>
<line x1="440.883" y1="667.116" x2="497.883" y2="724.116" stroke="#C5073D" stroke-width="2.5"/>
<line x1="410.883" y1="681.116" x2="483.883" y2="754.116" stroke="#C5073D" stroke-width="2.5"/>
<line x1="410.883" y1="730.116" x2="433.883" y2="753.116" stroke="#C5073D" stroke-width="2.5"/>
<g clip-path="url(#clip7_109_2)">
<path d="M245.125 869.034C253.94 847.553 266.785 827.836 277.916 807.489C292.945 780.02 306.169 751.676 320.965 724.1C326.885 713.067 333.049 702.091 339.607 691.409C342.116 687.321 344.851 683.362 348.291 679.971C350.202 678.088 350.987 677.862 350.462 680.856C348.548 691.783 344.952 702.401 341.179 712.81C320.652 769.433 297.018 824.998 275.371 881.211C262.983 913.381 251.024 945.706 238.462 977.809C236.234 983.501 242.677 966.336 244.825 960.614C265.37 905.901 284.626 850.752 305.767 796.235C316.442 768.707 328.774 741.745 343.687 716.167C343.962 715.696 347.468 709.174 347.468 713.548C347.468 718.594 345.83 724.088 344.698 728.897C338.976 753.2 332.132 777.329 324.858 801.217C306.649 861.016 283.4 919.011 262.045 977.735C259.615 984.416 254.558 993.919 254.558 1001.42C254.558 1003 255.654 998.47 256.205 996.995C259.758 987.491 262.848 977.817 266.537 968.363C274.596 947.707 284.556 927.758 294.237 907.814C306.814 881.907 319.575 856.087 333.056 830.624C340.234 817.065 347.561 803.576 354.917 790.11C357.222 785.89 360.146 780.543 362.591 776.311C363.222 775.219 365.676 769.881 367.607 769.042C368.538 768.637 368.432 771.759 368.43 771.846C368.291 778.22 366.943 784.707 365.511 790.885C360.177 813.893 352.487 836.467 344.997 858.851C333.727 892.53 321.267 925.715 307.863 958.622C301.099 975.227 294.572 992.056 286.9 1008.29C285.179 1011.93 283.277 1015.81 280.612 1018.91C279.58 1020.11 279.45 1019.2 279.638 1018.17C280.634 1012.73 282.975 1007.38 284.916 1002.23C291.489 984.817 299.041 967.905 307.002 951.058C323.322 916.526 339.78 882.042 356.602 847.744C379.147 801.777 401.128 755.328 426.153 710.596C427.572 708.059 427.934 707.486 429.147 705.209C429.345 704.839 429.511 703.754 429.746 704.102C430.502 705.22 428.87 710.217 428.698 710.817C424.179 726.589 417.186 741.808 411.105 757.013C396.372 793.849 381.784 830.709 366.521 867.337C347.342 913.363 290.748 1051.81 310.633 1006.07C312.048 1002.82 312.997 999.357 314.227 996.036C320.327 979.57 327.253 963.368 334.591 947.405C361.959 887.869 394.984 830.725 425.666 772.805C429.777 765.045 433.55 756.437 438.656 749.191C440.117 747.117 439.684 748.888 439.442 750.187C438.219 756.747 436.415 763.153 434.538 769.558C424.333 804.387 413.265 839.012 401.596 873.388C387.654 914.464 372.507 955.11 357.5 995.815C351.981 1010.78 346.05 1025.77 341.928 1041.2C341.518 1042.73 339.571 1047.67 340.281 1049.54C341.268 1052.13 342.07 1044.28 342.938 1041.64C347.372 1028.18 353.035 1015.13 358.848 1002.2C372.383 972.087 386.355 942.173 399.8 912.02C415.599 876.587 431.41 841.175 447.827 806.013C458.539 783.069 469.018 759.936 481.517 737.863C481.718 737.507 488.636 723.02 490.95 722.735C493.741 722.391 491.088 728.342 490.426 731.037C486.813 745.743 481.566 760.161 476.239 774.318C453.391 835.035 428.464 894.99 405.49 955.67C394.244 985.371 383.258 1015.14 372.997 1045.18C369.493 1055.45 365.635 1065.7 362.815 1076.18C361.684 1080.38 360.366 1092.46 363.527 1081.27C372.602 1049.13 383.411 1017.49 394.784 986.074C412.802 936.302 436.518 889.365 462.912 843.427C466.398 837.361 469.993 831.319 473.768 825.421C474.325 824.552 474.891 823.536 474.891 825.126C474.891 849.046 465.468 873.342 458.495 895.822C442.009 948.975 422.867 1001.25 405.04 1053.97C404.232 1056.36 403.026 1063.71 402.794 1061.2C402.313 1055.98 405.079 1049.18 406.65 1044.56C415.625 1018.12 426.686 992.231 437.271 966.407C455.651 921.561 475.219 877.286 496.153 833.539C514.435 795.334 533.227 757.329 553.015 719.857C561.377 704.022 569.717 688.01 579.255 672.813C579.508 672.41 580.847 669.631 580.678 671.853C580.046 680.161 577.007 688.892 574.763 696.796C565.564 729.205 553.562 760.655 541.373 792.066C518.179 851.836 493.416 910.973 469.613 970.503C464.291 983.813 459.477 997.287 454.602 1010.76C452.96 1015.29 450.882 1019.95 450.073 1024.74C450.021 1025.05 449.957 1025.91 450.148 1025.66C450.89 1024.71 451.366 1023.59 451.944 1022.53C457.264 1012.81 461.634 1002.58 466.244 992.531C491.298 937.889 515.37 882.516 542.983 829.074C549.492 816.475 556.342 804.02 563.309 791.66C564.941 788.764 568.279 780.287 569.074 783.506C570.123 787.76 567.61 795.213 566.678 799.003C560.896 822.516 552.742 845.599 545.191 868.592C521.452 940.878 495.513 1012.29 468.64 1083.48C466.743 1088.51 464.438 1093.8 464.148 1099.24C464.121 1099.74 463.846 1102.27 464.634 1100.2C469.327 1087.86 473.453 1075.3 478.073 1062.93C494.664 1018.53 514.465 975.469 535.159 932.794C549.448 903.325 564.812 874.503 581.127 846.084C589.609 831.309 597.857 816.112 607.855 802.25C608.129 801.87 615.323 791.219 617.063 791.771C619.828 792.647 615.614 808.387 615.379 809.334C602.678 860.452 581.933 909.644 564.245 959.175C555.908 982.52 547.576 1005.89 540.512 1029.65C538.322 1037.01 536.884 1045.38 533.662 1052.42C532.662 1054.6 534.235 1047.64 534.859 1045.33C538.196 1032.98 542.547 1020.84 547.662 1009.1C554.414 993.593 562.479 978.739 570.796 964.009C573.639 958.972 577.837 947.682 583.485 944.564C585.036 943.708 585.265 947.846 585.282 948.327C585.534 955.273 583.877 962.772 582.774 969.544C580.327 984.579 576.634 999.111 572.293 1013.71C567.733 1029.04 564.829 1043.9 562.485 1059.65" stroke="#191C24" stroke-width="6" stroke-linecap="round"/>
</g>
<rect x="291.5" y="777.501" width="215" height="215" rx="7.5" stroke="#C5073D" stroke-width="5"/>
<defs>
<clipPath id="clip0_109_2">
<rect x="310" y="201" width="89" height="89" rx="10" fill="white"/>
</clipPath>
<clipPath id="clip1_109_2">
<rect x="201" y="310" width="89" height="89" rx="10" fill="white"/>
</clipPath>
<clipPath id="clip2_109_2">
<rect x="310" y="310" width="89" height="89" rx="6" fill="white"/>
</clipPath>
<clipPath id="clip3_109_2">
<rect x="201" y="201" width="89" height="89" rx="6" fill="white"/>
</clipPath>
<clipPath id="clip4_109_2">
<rect x="1655" y="934" width="90" height="90" rx="10" fill="white"/>
</clipPath>
<clipPath id="clip5_109_2">
<rect x="1535" y="449" width="90" height="90" rx="10" fill="white"/>
</clipPath>
<clipPath id="clip6_109_2">
<rect x="1410" y="94" width="230" height="230" rx="10" fill="white"/>
</clipPath>
<clipPath id="clip7_109_2">
<rect x="289" y="775.001" width="220" height="220" rx="10" fill="white"/>
</clipPath>
</defs>
</svg>
