<svg width="74" height="74" viewBox="0 0 74 74" fill="none" xmlns="http://www.w3.org/2000/svg">
<circle cx="37" cy="37" r="37" fill="#C5073D"/>
<path d="M37 41.2335C35.4782 41.2335 34.197 40.6955 33.1563 39.6195C32.1156 38.5435 31.5953 37.237 31.5953 35.7V23.3335C31.5953 21.8518 32.1205 20.5925 33.1709 19.5555C34.2217 18.5185 35.4973 18 36.9979 18C38.4989 18 39.7752 18.5185 40.827 19.5555C41.8788 20.5925 42.4046 21.8518 42.4046 23.3335V35.7C42.4046 37.237 41.8843 38.5435 40.8436 39.6195C39.8029 40.6955 38.5217 41.2335 37 41.2335ZM35.3216 54.3335V49.4165C32.1435 49.0278 29.3991 47.7335 27.0884 45.5335C24.7774 43.3335 23.4205 40.6278 23.0177 37.4165C22.9505 36.9422 23.0747 36.5375 23.3903 36.2025C23.7055 35.8675 24.1027 35.7 24.5817 35.7C25.0611 35.7 25.4603 35.8638 25.7792 36.1915C26.0981 36.5195 26.3022 36.9223 26.3915 37.4C26.8168 39.9777 28.0418 42.0888 30.0665 43.7335C32.0908 45.3778 34.3979 46.2 36.9879 46.2C39.6144 46.2 41.9348 45.375 43.949 43.725C45.9633 42.075 47.1831 39.9667 47.6084 37.4C47.6977 36.9223 47.9038 36.5195 48.2268 36.1915C48.5497 35.8638 48.9497 35.7 49.4268 35.7C49.9041 35.7 50.2994 35.8675 50.6126 36.2025C50.9262 36.5375 51.0494 36.9422 50.9822 37.4165C50.5794 40.5832 49.2309 43.2777 46.9367 45.5C44.6428 47.7223 41.89 49.0278 38.6783 49.4165V54.3335C38.6783 54.8055 38.517 55.2013 38.1944 55.521C37.8714 55.8403 37.4713 56 36.9939 56C36.5169 56 36.1189 55.8403 35.8 55.521C35.4811 55.2013 35.3216 54.8055 35.3216 54.3335Z" fill="#13161D"/>
</svg>
