<svg width="476" height="50" viewBox="0 0 476 50" fill="none" xmlns="http://www.w3.org/2000/svg">
<path d="M5.5 31.8525C5.5 30.4718 4.38071 29.3525 3 29.3525C1.61929 29.3525 0.5 30.4718 0.5 31.8525L5.5 31.8525ZM0.500001 47L0.500001 49.5L5.5 49.5L5.5 47L0.500001 47ZM0.5 31.8525L0.500001 47L5.5 47L5.5 31.8525L0.5 31.8525Z" fill="#191C24"/>
<path d="M15.0813 11.6558C15.0813 10.275 13.962 9.15576 12.5813 9.15576C11.2006 9.15576 10.0813 10.275 10.0813 11.6558L15.0813 11.6558ZM10.0813 46.9999L10.0813 49.4999L15.0813 49.4999L15.0813 46.9999L10.0813 46.9999ZM10.0813 11.6558L10.0813 46.9999L15.0813 46.9999L15.0813 11.6558L10.0813 11.6558Z" fill="#191C24"/>
<path d="M24.6624 36.9016C24.6624 35.5209 23.5431 34.4016 22.1624 34.4016C20.7816 34.4016 19.6624 35.5209 19.6624 36.9016L24.6624 36.9016ZM19.6624 46.9999L19.6624 49.4999L24.6624 49.4999L24.6624 46.9999L19.6624 46.9999ZM19.6624 36.9016L19.6624 46.9999L24.6624 46.9999L24.6624 36.9016L19.6624 36.9016Z" fill="#191C24"/>
<path d="M34.2439 15.2622C34.2439 13.8815 33.1246 12.7622 31.7439 12.7622C30.3632 12.7622 29.2439 13.8815 29.2439 15.2622L34.2439 15.2622ZM29.2439 46.9998L29.2439 49.4998L34.2439 49.4998L34.2439 46.9998L29.2439 46.9998ZM29.2439 15.2622L29.2439 46.9998L34.2439 46.9998L34.2439 15.2622L29.2439 15.2622Z" fill="#191C24"/>
<path d="M43.8252 31.8525C43.8252 30.4718 42.7059 29.3525 41.3252 29.3525C39.9445 29.3525 38.8252 30.4718 38.8252 31.8525L43.8252 31.8525ZM38.8252 47L38.8252 49.5L43.8252 49.5L43.8252 47L38.8252 47ZM38.8252 31.8525L38.8252 47L43.8252 47L43.8252 31.8525L38.8252 31.8525Z" fill="#191C24"/>
<path d="M53.4062 15.2622C53.4062 13.8815 52.287 12.7622 50.9062 12.7622C49.5255 12.7622 48.4062 13.8815 48.4062 15.2622L53.4062 15.2622ZM48.4063 46.9998L48.4063 49.4998L53.4063 49.4998L53.4063 46.9998L48.4063 46.9998ZM48.4062 15.2622L48.4063 46.9998L53.4063 46.9998L53.4062 15.2622L48.4062 15.2622Z" fill="#191C24"/>
<path d="M62.9878 5.88525C62.9878 4.50454 61.8685 3.38525 60.4878 3.38525C59.1071 3.38525 57.9878 4.50454 57.9878 5.88525L62.9878 5.88525ZM57.9878 46.9999L57.9878 49.4999L62.9878 49.4999L62.9878 46.9999L57.9878 46.9999ZM57.9878 5.88525L57.9878 46.9999L62.9878 46.9999L62.9878 5.88525L57.9878 5.88525Z" fill="#191C24"/>
<path d="M72.5684 21.033C72.5684 19.6522 71.4491 18.533 70.0684 18.533C68.6876 18.533 67.5684 19.6522 67.5684 21.033H72.5684ZM67.5684 47.0001V49.5001H72.5684V47.0001H67.5684ZM67.5684 21.033V47.0001H72.5684V21.033H67.5684Z" fill="#191C24"/>
<path d="M82.1499 26.8032C82.1499 25.4225 81.0306 24.3032 79.6499 24.3032C78.2692 24.3032 77.1499 25.4225 77.1499 26.8032L82.1499 26.8032ZM77.1499 46.9999L77.1499 49.4999L82.1499 49.4999L82.1499 46.9999L77.1499 46.9999ZM77.1499 26.8032L77.1499 46.9999L82.1499 46.9999L82.1499 26.8032L77.1499 26.8032Z" fill="#191C24"/>
<path d="M91.7314 34.0164C91.7314 32.6356 90.6122 31.5164 89.2314 31.5164C87.8507 31.5164 86.7314 32.6356 86.7314 34.0164L91.7314 34.0164ZM86.7314 46.9999L86.7314 49.4999L91.7314 49.4999L91.7314 46.9999L86.7314 46.9999ZM86.7314 34.0164L86.7314 46.9999L91.7314 46.9999L91.7314 34.0164L86.7314 34.0164Z" fill="#191C24"/>
<path d="M101.312 40.5081C101.312 39.1273 100.193 38.0081 98.8123 38.0081C97.4315 38.0081 96.3123 39.1273 96.3123 40.5081L101.312 40.5081ZM96.3123 46.9998L96.3123 49.4998L101.312 49.4998L101.312 46.9998L96.3123 46.9998ZM96.3123 40.5081L96.3123 46.9998L101.312 46.9998L101.312 40.5081L96.3123 40.5081Z" fill="#191C24"/>
<path d="M110.894 29.6882C110.894 28.3075 109.775 27.1882 108.394 27.1882C107.013 27.1882 105.894 28.3075 105.894 29.6882L110.894 29.6882ZM105.894 46.9996L105.894 49.4996L110.894 49.4996L110.894 46.9996L105.894 46.9996ZM105.894 29.6882L105.894 46.9996L110.894 46.9996L110.894 29.6882L105.894 29.6882Z" fill="#191C24"/>
<path d="M120.475 8.04907C120.475 6.66836 119.356 5.54907 117.975 5.54907C116.595 5.54907 115.475 6.66836 115.475 8.04907L120.475 8.04907ZM115.475 46.9998L115.475 49.4998L120.475 49.4998L120.475 46.9998L115.475 46.9998ZM115.475 8.04907L115.475 46.9998L120.475 46.9998L120.475 8.04907L115.475 8.04907Z" fill="#191C24"/>
<path d="M130.056 3C130.056 1.61929 128.937 0.5 127.556 0.5C126.175 0.5 125.056 1.61929 125.056 3L130.056 3ZM125.056 46.9998L125.056 49.4998L130.056 49.4998L130.056 46.9998L125.056 46.9998ZM125.056 3L125.056 46.9998L130.056 46.9998L130.056 3L125.056 3Z" fill="#191C24"/>
<path d="M139.638 23.1968C139.638 21.8161 138.518 20.6968 137.138 20.6968C135.757 20.6968 134.638 21.8161 134.638 23.1968L139.638 23.1968ZM134.638 47L134.638 49.5L139.638 49.5L139.638 47L134.638 47ZM134.638 23.1968L134.638 47L139.638 47L139.638 23.1968L134.638 23.1968Z" fill="#191C24"/>
<path d="M149.219 21.033C149.219 19.6522 148.099 18.533 146.719 18.533C145.338 18.533 144.219 19.6522 144.219 21.033H149.219ZM144.219 47.0001V49.5001H149.219V47.0001H144.219ZM144.219 21.033V47.0001H149.219V21.033H144.219Z" fill="#191C24"/>
<path d="M158.8 25.3606C158.8 23.9799 157.681 22.8606 156.3 22.8606C154.919 22.8606 153.8 23.9799 153.8 25.3606L158.8 25.3606ZM153.8 46.9999L153.8 49.4999L158.8 49.4999L158.8 46.9999L153.8 46.9999ZM153.8 25.3606L153.8 46.9999L158.8 46.9999L158.8 25.3606L153.8 25.3606Z" fill="#191C24"/>
<path d="M168.382 15.2622C168.382 13.8815 167.262 12.7622 165.882 12.7622C164.501 12.7622 163.382 13.8815 163.382 15.2622L168.382 15.2622ZM163.382 46.9998L163.382 49.4998L168.382 49.4998L168.382 46.9998L163.382 46.9998ZM163.382 15.2622L163.382 46.9998L168.382 46.9998L168.382 15.2622L163.382 15.2622Z" fill="#191C24"/>
<path d="M177.963 25.3606C177.963 23.9799 176.843 22.8606 175.463 22.8606C174.082 22.8606 172.963 23.9799 172.963 25.3606L177.963 25.3606ZM172.963 46.9999L172.963 49.4999L177.963 49.4999L177.963 46.9999L172.963 46.9999ZM172.963 25.3606L172.963 46.9999L177.963 46.9999L177.963 25.3606L172.963 25.3606Z" fill="#191C24"/>
<path d="M187.544 11.6558C187.544 10.275 186.425 9.15576 185.044 9.15576C183.663 9.15576 182.544 10.275 182.544 11.6558L187.544 11.6558ZM182.544 46.9999L182.544 49.4999L187.544 49.4999L187.544 46.9999L182.544 46.9999ZM182.544 11.6558L182.544 46.9999L187.544 46.9999L187.544 11.6558L182.544 11.6558Z" fill="#191C24"/>
<path d="M197.125 25.3606C197.125 23.9799 196.006 22.8606 194.625 22.8606C193.245 22.8606 192.125 23.9799 192.125 25.3606L197.125 25.3606ZM192.125 46.9999L192.125 49.4999L197.125 49.4999L197.125 46.9999L192.125 46.9999ZM192.125 25.3606L192.125 46.9999L197.125 46.9999L197.125 25.3606L192.125 25.3606Z" fill="#191C24"/>
<path d="M206.707 34.0164C206.707 32.6356 205.587 31.5164 204.207 31.5164C202.826 31.5164 201.707 32.6356 201.707 34.0164L206.707 34.0164ZM201.707 46.9999L201.707 49.4999L206.707 49.4999L206.707 46.9999L201.707 46.9999ZM201.707 34.0164L201.707 46.9999L206.707 46.9999L206.707 34.0164L201.707 34.0164Z" fill="#191C24"/>
<path d="M216.288 39.7866C216.288 38.4059 215.168 37.2866 213.788 37.2866C212.407 37.2866 211.288 38.4059 211.288 39.7866L216.288 39.7866ZM211.288 46.9997L211.288 49.4997L216.288 49.4997L216.288 46.9997L211.288 46.9997ZM211.288 39.7866L211.288 46.9997L216.288 46.9997L216.288 39.7866L211.288 39.7866Z" fill="#191C24"/>
<path d="M225.869 21.033C225.869 19.6522 224.749 18.533 223.369 18.533C221.988 18.533 220.869 19.6522 220.869 21.033H225.869ZM220.869 47.0001V49.5001H225.869V47.0001H220.869ZM220.869 21.033V47.0001H225.869V21.033H220.869Z" fill="#191C24"/>
<path d="M235.45 15.2622C235.45 13.8815 234.331 12.7622 232.95 12.7622C231.569 12.7622 230.45 13.8815 230.45 15.2622L235.45 15.2622ZM230.45 46.9998L230.45 49.4998L235.45 49.4998L235.45 46.9998L230.45 46.9998ZM230.45 15.2622L230.45 46.9998L235.45 46.9998L235.45 15.2622L230.45 15.2622Z" fill="#191C24"/>
<path d="M245.031 5.88525C245.031 4.50454 243.912 3.38525 242.531 3.38525C241.151 3.38525 240.031 4.50454 240.031 5.88525L245.031 5.88525ZM240.031 46.9999L240.031 49.4999L245.031 49.4999L245.031 46.9999L240.031 46.9999ZM240.031 5.88525L240.031 46.9999L245.031 46.9999L245.031 5.88525L240.031 5.88525Z" fill="#191C24"/>
<path d="M254.613 27.5244C254.613 26.1437 253.493 25.0244 252.113 25.0244C250.732 25.0244 249.613 26.1437 249.613 27.5244L254.613 27.5244ZM249.613 46.9998L249.613 49.4998L254.613 49.4998L254.613 46.9998L249.613 46.9998ZM249.613 27.5244L249.613 46.9998L254.613 46.9998L254.613 27.5244L249.613 27.5244Z" fill="#191C24"/>
<path d="M264.194 21.033C264.194 19.6522 263.075 18.533 261.694 18.533C260.313 18.533 259.194 19.6522 259.194 21.033H264.194ZM259.194 47.0001V49.5001H264.194V47.0001H259.194ZM259.194 21.033V47.0001H264.194V21.033H259.194Z" fill="#191C24"/>
<path d="M274.182 31.8525C274.182 30.4718 273.063 29.3525 271.682 29.3525C270.301 29.3525 269.182 30.4718 269.182 31.8525L274.182 31.8525ZM269.182 47L269.182 49.5L274.182 49.5L274.182 47L269.182 47ZM269.182 31.8525L269.182 47L274.182 47L274.182 31.8525L269.182 31.8525Z" fill="#191C24"/>
<path d="M283.764 11.6558C283.764 10.275 282.644 9.15576 281.264 9.15576C279.883 9.15576 278.764 10.275 278.764 11.6558L283.764 11.6558ZM278.764 46.9999L278.764 49.4999L283.764 49.4999L283.764 46.9999L278.764 46.9999ZM278.764 11.6558L278.764 46.9999L283.764 46.9999L283.764 11.6558L278.764 11.6558Z" fill="#191C24"/>
<path d="M293.345 36.9016C293.345 35.5209 292.225 34.4016 290.845 34.4016C289.464 34.4016 288.345 35.5209 288.345 36.9016L293.345 36.9016ZM288.345 46.9999L288.345 49.4999L293.345 49.4999L293.345 46.9999L288.345 46.9999ZM288.345 36.9016L288.345 46.9999L293.345 46.9999L293.345 36.9016L288.345 36.9016Z" fill="#191C24"/>
<path d="M302.926 15.2622C302.926 13.8815 301.807 12.7622 300.426 12.7622C299.045 12.7622 297.926 13.8815 297.926 15.2622L302.926 15.2622ZM297.926 46.9998L297.926 49.4998L302.926 49.4998L302.926 46.9998L297.926 46.9998ZM297.926 15.2622L297.926 46.9998L302.926 46.9998L302.926 15.2622L297.926 15.2622Z" fill="#191C24"/>
<path d="M312.508 31.8525C312.508 30.4718 311.388 29.3525 310.008 29.3525C308.627 29.3525 307.508 30.4718 307.508 31.8525L312.508 31.8525ZM307.508 47L307.508 49.5L312.508 49.5L312.508 47L307.508 47ZM307.508 31.8525L307.508 47L312.508 47L312.508 31.8525L307.508 31.8525Z" fill="#191C24"/>
<path d="M322.089 15.2622C322.089 13.8815 320.969 12.7622 319.589 12.7622C318.208 12.7622 317.089 13.8815 317.089 15.2622L322.089 15.2622ZM317.089 46.9998L317.089 49.4998L322.089 49.4998L322.089 46.9998L317.089 46.9998ZM317.089 15.2622L317.089 46.9998L322.089 46.9998L322.089 15.2622L317.089 15.2622Z" fill="#191C24"/>
<path d="M331.67 5.88525C331.67 4.50454 330.551 3.38525 329.17 3.38525C327.789 3.38525 326.67 4.50454 326.67 5.88525L331.67 5.88525ZM326.67 46.9999L326.67 49.4999L331.67 49.4999L331.67 46.9999L326.67 46.9999ZM326.67 5.88525L326.67 46.9999L331.67 46.9999L331.67 5.88525L326.67 5.88525Z" fill="#191C24"/>
<path d="M341.251 21.033C341.251 19.6522 340.132 18.533 338.751 18.533C337.37 18.533 336.251 19.6522 336.251 21.033H341.251ZM336.251 47.0001V49.5001H341.251V47.0001H336.251ZM336.251 21.033V47.0001H341.251V21.033H336.251Z" fill="#191C24"/>
<path d="M350.833 26.8032C350.833 25.4225 349.713 24.3032 348.333 24.3032C346.952 24.3032 345.833 25.4225 345.833 26.8032L350.833 26.8032ZM345.833 46.9999L345.833 49.4999L350.833 49.4999L350.833 46.9999L345.833 46.9999ZM345.833 26.8032L345.833 46.9999L350.833 46.9999L350.833 26.8032L345.833 26.8032Z" fill="#191C24"/>
<path d="M360.414 34.0164C360.414 32.6356 359.295 31.5164 357.914 31.5164C356.533 31.5164 355.414 32.6356 355.414 34.0164L360.414 34.0164ZM355.414 46.9999L355.414 49.4999L360.414 49.4999L360.414 46.9999L355.414 46.9999ZM355.414 34.0164L355.414 46.9999L360.414 46.9999L360.414 34.0164L355.414 34.0164Z" fill="#191C24"/>
<path d="M369.995 40.5081C369.995 39.1273 368.876 38.0081 367.495 38.0081C366.114 38.0081 364.995 39.1273 364.995 40.5081L369.995 40.5081ZM364.995 46.9998L364.995 49.4998L369.995 49.4998L369.995 46.9998L364.995 46.9998ZM364.995 40.5081L364.995 46.9998L369.995 46.9998L369.995 40.5081L364.995 40.5081Z" fill="#191C24"/>
<path d="M379.576 29.6882C379.576 28.3075 378.457 27.1882 377.076 27.1882C375.696 27.1882 374.576 28.3075 374.576 29.6882L379.576 29.6882ZM374.576 46.9996L374.576 49.4996L379.576 49.4996L379.576 46.9996L374.576 46.9996ZM374.576 29.6882L374.576 46.9996L379.576 46.9996L379.576 29.6882L374.576 29.6882Z" fill="#191C24"/>
<path d="M389.158 8.04907C389.158 6.66836 388.038 5.54907 386.658 5.54907C385.277 5.54907 384.158 6.66836 384.158 8.04907L389.158 8.04907ZM384.158 46.9998L384.158 49.4998L389.158 49.4998L389.158 46.9998L384.158 46.9998ZM384.158 8.04907L384.158 46.9998L389.158 46.9998L389.158 8.04907L384.158 8.04907Z" fill="#191C24"/>
<path d="M398.739 3C398.739 1.61929 397.619 0.5 396.239 0.5C394.858 0.5 393.739 1.61929 393.739 3L398.739 3ZM393.739 46.9998L393.739 49.4998L398.739 49.4998L398.739 46.9998L393.739 46.9998ZM393.739 3L393.739 46.9998L398.739 46.9998L398.739 3L393.739 3Z" fill="#191C24"/>
<path d="M408.32 23.1968C408.32 21.8161 407.201 20.6968 405.82 20.6968C404.44 20.6968 403.32 21.8161 403.32 23.1968L408.32 23.1968ZM403.32 47L403.32 49.5L408.32 49.5L408.32 47L403.32 47ZM403.32 23.1968L403.32 47L408.32 47L408.32 23.1968L403.32 23.1968Z" fill="#191C24"/>
<path d="M418.012 31.8525C418.012 30.4718 416.893 29.3525 415.512 29.3525C414.131 29.3525 413.012 30.4718 413.012 31.8525L418.012 31.8525ZM413.012 47L413.012 49.5L418.012 49.5L418.012 47L413.012 47ZM413.012 31.8525L413.012 47L418.012 47L418.012 31.8525L413.012 31.8525Z" fill="#191C24"/>
<path d="M427.594 11.6558C427.594 10.275 426.474 9.15576 425.094 9.15576C423.713 9.15576 422.594 10.275 422.594 11.6558L427.594 11.6558ZM422.594 46.9999L422.594 49.4999L427.594 49.4999L427.594 46.9999L422.594 46.9999ZM422.594 11.6558L422.594 46.9999L427.594 46.9999L427.594 11.6558L422.594 11.6558Z" fill="#191C24"/>
<path d="M437.175 36.9016C437.175 35.5209 436.056 34.4016 434.675 34.4016C433.294 34.4016 432.175 35.5209 432.175 36.9016L437.175 36.9016ZM432.175 46.9999L432.175 49.4999L437.175 49.4999L437.175 46.9999L432.175 46.9999ZM432.175 36.9016L432.175 46.9999L437.175 46.9999L437.175 36.9016L432.175 36.9016Z" fill="#191C24"/>
<path d="M446.756 15.2622C446.756 13.8815 445.637 12.7622 444.256 12.7622C442.876 12.7622 441.756 13.8815 441.756 15.2622L446.756 15.2622ZM441.756 46.9998L441.756 49.4998L446.756 49.4998L446.756 46.9998L441.756 46.9998ZM441.756 15.2622L441.756 46.9998L446.756 46.9998L446.756 15.2622L441.756 15.2622Z" fill="#191C24"/>
<path d="M456.338 31.8525C456.338 30.4718 455.218 29.3525 453.838 29.3525C452.457 29.3525 451.338 30.4718 451.338 31.8525L456.338 31.8525ZM451.338 47L451.338 49.5L456.338 49.5L456.338 47L451.338 47ZM451.338 31.8525L451.338 47L456.338 47L456.338 31.8525L451.338 31.8525Z" fill="#191C24"/>
<path d="M465.918 15.2622C465.918 13.8815 464.799 12.7622 463.418 12.7622C462.038 12.7622 460.918 13.8815 460.918 15.2622L465.918 15.2622ZM460.918 46.9998L460.918 49.4998L465.918 49.4998L465.918 46.9998L460.918 46.9998ZM460.918 15.2622L460.918 46.9998L465.918 46.9998L465.918 15.2622L460.918 15.2622Z" fill="#191C24"/>
<path d="M475.5 5.88525C475.5 4.50454 474.381 3.38525 473 3.38525C471.619 3.38525 470.5 4.50454 470.5 5.88525L475.5 5.88525ZM470.5 46.9999L470.5 49.4999L475.5 49.4999L475.5 46.9999L470.5 46.9999ZM470.5 5.88525L470.5 46.9999L475.5 46.9999L475.5 5.88525L470.5 5.88525Z" fill="#191C24"/>
</svg>
