<svg width="46" height="46" viewBox="0 0 46 46" fill="none" xmlns="http://www.w3.org/2000/svg">
<g clip-path="url(#clip0_168_12)">
<path d="M24.62 0.567531C10.9175 -0.399969 -0.399969 10.9175 0.567531 24.62C1.37753 36.5225 11.7725 45.5 23.6975 45.5H32C33.2375 45.5 34.25 44.4875 34.25 43.25C34.25 42.0125 33.2375 41 32 41H23.7425C15.35 41 7.65503 35.555 5.56253 27.4325C2.21003 14.3825 14.36 2.21003 27.41 5.58503C35.555 7.65503 41 15.35 41 23.7425V26.2175C41 27.995 39.4025 29.75 37.625 29.75C35.8475 29.75 34.25 27.995 34.25 26.2175V23.405C34.25 17.7575 30.245 12.6725 24.665 11.885C17.015 10.7825 10.5575 17.3975 11.93 25.0925C12.695 29.39 16.0475 32.945 20.3 33.9575C24.44 34.925 28.3775 33.5975 30.965 30.965C32.9675 33.71 36.9725 35.15 40.64 33.6875C43.655 32.495 45.5 29.4125 45.5 26.1725V23.72C45.5 11.7725 36.5225 1.37753 24.62 0.567531ZM23 29.75C19.265 29.75 16.25 26.735 16.25 23C16.25 19.265 19.265 16.25 23 16.25C26.735 16.25 29.75 19.265 29.75 23C29.75 26.735 26.735 29.75 23 29.75Z" fill="#C5073D" stroke="#C5073D" stroke-width="0.5"/>
</g>
<defs>
<clipPath id="clip0_168_12">
<rect width="46" height="46" fill="white"/>
</clipPath>
</defs>
</svg>
