<svg width="44" height="44" viewBox="0 0 44 44" fill="none" xmlns="http://www.w3.org/2000/svg">
<g clip-path="url(#clip0_217_20)">
<path fill-rule="evenodd" clip-rule="evenodd" d="M33.448 9.79625L34.5611 8.59375C35.918 7.13937 35.658 4.79938 34.0005 3.68625C30.4824 1.33 26.4686 0.0625 22.4061 0.0625C14.8499 0.0625 8.17926 3.97875 4.34426 9.89375L4.34385 9.89468C1.57373 14.1357 0.274042 19.4165 1.13522 25.0061C1.50071 27.394 2.27218 29.6439 3.36846 31.6827L3.36932 31.6852C7.0987 38.6808 14.6143 43.2877 22.8856 43.117C28.3699 43.0033 33.2937 40.972 36.9906 37.6652L36.9906 37.665C36.9907 37.6649 36.9908 37.6648 36.9909 37.6648C41.2889 33.8216 43.9456 28.2561 43.9375 21.9756C43.9375 19.7412 42.1094 17.9375 39.875 17.9375H26.0625C24.2669 17.9375 22.8125 19.3919 22.8125 21.1875V22.8125C22.8125 24.6081 24.2669 26.0625 26.0625 26.0625H33.9844C34.5694 26.0625 34.9675 26.6719 34.7319 27.2081C33.8625 29.1906 32.5056 30.8969 30.7994 32.205L30.7945 32.2088C28.5121 33.9616 25.6052 35.0002 22.4062 35.0002C17.1951 35.0002 12.6575 31.9982 10.4416 27.6358L10.0402 26.7692L10.0366 26.7605L9.66765 25.7781C9.18467 24.3174 8.94891 22.7453 9.00834 21.1142C9.08147 18.8392 9.75584 16.6942 10.869 14.8336L10.8717 14.8286C12.879 11.4838 16.3144 9.03216 20.3261 8.35812C24.0393 7.74062 27.0618 8.86187 29.2636 10.2837C30.6043 11.1531 32.3593 10.9662 33.448 9.79625Z" fill="#C5073D"/>
</g>
<defs>
<clipPath id="clip0_217_20">
<rect width="44" height="44" fill="white"/>
</clipPath>
</defs>
</svg>
