<svg width="44" height="44" viewBox="0 0 44 44" fill="none" xmlns="http://www.w3.org/2000/svg">
<g clip-path="url(#clip0_217_16)">
<path d="M43.75 37.7083C43.75 41.0458 41.0458 43.75 37.7083 43.75H6.29167C2.95546 43.75 0.25 41.0458 0.25 37.7083V6.29167C0.25 2.95425 2.95546 0.25 6.29167 0.25H37.7083C41.0458 0.25 43.75 2.95425 43.75 6.29167V37.7083Z" fill="#C5073D"/>
<path d="M36.4239 14.7994C36.4795 14.6169 36.506 14.4478 36.4988 14.2967C36.4807 13.8593 36.1798 13.5415 35.4717 13.5415H32.3083C31.5096 13.5415 31.141 14.0248 30.926 14.5094C30.926 14.5094 28.954 18.5682 26.6811 21.2446C25.944 22.0192 25.5694 21.9998 25.1707 21.9998C24.9568 21.9998 24.4167 21.7413 24.4167 21.032V14.7668C24.4167 13.9282 24.2076 13.5415 23.5322 13.5415H17.9146C17.4228 13.5415 17.1667 13.9282 17.1667 14.316C17.1667 15.122 18.2517 15.3153 18.375 17.5737V21.9515C18.375 23.0148 18.1901 23.2082 17.7914 23.2082C16.716 23.2082 14.599 19.5832 13.1816 14.832C12.8747 13.8968 12.5677 13.5415 11.769 13.5415H8.57542C7.65346 13.5415 7.5 13.9934 7.5 14.4768C7.5 15.348 8.225 20.058 12.1823 25.4738C15.0521 29.4009 18.833 31.6665 22.18 31.6665C24.2076 31.6665 24.4155 31.1505 24.4155 30.3446V26.7534C24.4167 25.7855 24.6378 25.6248 25.283 25.6248C25.7434 25.6248 26.6823 25.9269 28.4948 28.0415C30.5852 30.4799 30.9646 31.6665 32.1633 31.6665H35.3267C36.0614 31.6665 36.4831 31.3584 36.5 30.7603C36.5036 30.608 36.4819 30.4376 36.4323 30.2479C36.1979 29.5519 35.1225 27.8506 33.7812 26.229C33.0381 25.3312 32.3047 24.4419 31.9675 23.9585C31.7416 23.6432 31.6558 23.4208 31.6667 23.2082C31.6775 22.9846 31.7935 22.772 31.9675 22.4747C31.9361 22.4747 36.0251 16.7339 36.4239 14.7994Z" fill="#2B1A26"/>
</g>
<defs>
<clipPath id="clip0_217_16">
<rect width="44" height="44" fill="white"/>
</clipPath>
</defs>
</svg>
