<svg width="220" height="330" viewBox="0 0 220 330" fill="none" xmlns="http://www.w3.org/2000/svg">
<rect x="121.499" y="88.4988" width="87" height="87" rx="8.5" transform="rotate(-90 121.499 88.4988)" stroke="#C5073D" stroke-width="3"/>
<line x1="179.883" y1="1.1149" x2="208.883" y2="30.1149" stroke="#C5073D" stroke-width="2.5"/>
<line x1="137.883" y1="2.1149" x2="208.883" y2="73.1149" stroke="#C5073D" stroke-width="2.5"/>
<line x1="121.883" y1="33.1149" x2="177.883" y2="89.1149" stroke="#C5073D" stroke-width="2.5"/>
<line x1="192.883" y1="1.1149" x2="208.883" y2="17.1149" stroke="#C5073D" stroke-width="2.5"/>
<line x1="165.883" y1="1.1149" x2="208.883" y2="44.1149" stroke="#C5073D" stroke-width="2.5"/>
<line x1="125.883" y1="4.1149" x2="206.883" y2="85.1149" stroke="#C5073D" stroke-width="2.5"/>
<line x1="120.883" y1="48.1149" x2="161.883" y2="89.1149" stroke="#C5073D" stroke-width="2.5"/>
<line x1="151.883" y1="2.1149" x2="208.883" y2="59.1149" stroke="#C5073D" stroke-width="2.5"/>
<line x1="121.883" y1="16.1149" x2="194.883" y2="89.1149" stroke="#C5073D" stroke-width="2.5"/>
<line x1="121.883" y1="65.1149" x2="144.883" y2="88.1149" stroke="#C5073D" stroke-width="2.5"/>
<g clip-path="url(#clip0_50_97)">
<path d="M-43.8752 204.033C-35.06 182.552 -22.2152 162.835 -11.0836 142.488C3.94477 115.019 17.1687 86.6746 31.9649 59.0995C37.8854 48.0656 44.0495 37.0901 50.6067 26.4081C53.1164 22.3197 55.8506 18.3613 59.2913 14.9699C61.2015 13.087 61.9869 12.8612 61.4624 15.8554C59.5484 26.7822 55.9523 37.4002 52.1789 47.8088C31.6519 104.432 8.01752 159.997 -13.629 216.21C-26.0173 248.38 -37.9763 280.705 -50.5384 312.808C-52.7658 318.5 -46.3232 301.335 -44.1747 295.613C-23.6297 240.9 -4.37432 185.751 16.7669 131.234C27.4424 103.706 39.7737 76.7442 54.687 51.1665C54.9619 50.6949 58.4677 44.1728 58.4677 48.5467C58.4677 53.5926 56.83 59.0868 55.6977 63.8961C49.9758 88.1995 43.1316 112.328 35.858 136.216C17.6493 196.016 -5.59999 254.01 -26.9553 312.734C-29.3849 319.415 -34.442 328.918 -34.442 336.422C-34.442 337.994 -33.3463 333.47 -32.7949 331.994C-29.2424 322.49 -26.1523 312.816 -22.4633 303.362C-14.4035 282.706 -4.44446 262.757 5.23741 242.813C17.8138 216.906 30.575 191.086 44.0559 165.623C51.234 152.064 58.5609 138.575 65.917 125.109C68.2222 120.889 71.1458 115.542 73.5909 111.31C74.2216 110.218 76.6762 104.88 78.6069 104.041C79.5383 103.636 79.4324 106.758 79.4305 106.845C79.2914 113.219 77.943 119.706 76.5107 125.884C71.1767 148.892 63.4873 171.466 55.9971 193.85C44.7272 227.529 32.2673 260.714 18.8632 293.621C12.0992 310.226 5.57152 327.055 -2.09954 343.285C-3.82105 346.927 -5.7228 350.807 -8.38835 353.912C-9.42023 355.114 -9.54991 354.203 -9.36162 353.174C-8.36636 347.733 -6.02455 342.378 -4.08351 337.234C2.48924 319.816 10.0405 302.904 18.0022 286.057C34.3217 251.525 50.78 217.041 67.6015 182.743C90.1468 136.776 112.128 90.3268 137.153 45.5949C138.572 43.0579 138.934 42.4852 140.147 40.2079C140.345 39.8376 140.511 38.753 140.746 39.1009C141.502 40.2187 139.87 45.2163 139.698 45.8163C135.179 61.5884 128.186 76.8066 122.105 92.0121C107.372 128.848 92.7844 165.708 77.5214 202.336C58.3421 248.362 1.74826 386.805 21.6333 341.071C23.0481 337.817 23.9968 334.356 25.2269 331.035C31.3265 314.569 38.2526 298.367 45.5906 282.404C72.9594 222.868 105.984 165.724 136.666 107.804C140.777 100.044 144.55 91.4362 149.656 84.1899C151.117 82.1159 150.684 83.8869 150.442 85.1861C149.219 91.7465 147.415 98.1515 145.538 104.557C135.333 139.386 124.265 174.011 112.596 208.387C98.6537 249.464 83.5075 290.109 68.4999 330.814C62.9807 345.783 57.0504 360.767 52.9276 376.198C52.5184 377.729 50.5715 382.673 51.2805 384.537C52.2684 387.133 53.0699 379.278 53.9383 376.641C58.3716 363.174 64.0346 350.129 69.8475 337.197C83.3825 307.086 97.3548 277.172 110.8 247.019C126.599 211.586 142.41 176.174 158.827 141.012C169.539 118.068 180.018 94.9347 192.517 72.8623C192.718 72.5063 199.636 58.0194 201.95 57.7342C204.741 57.3903 202.088 63.3414 201.426 66.0362C197.813 80.7417 192.566 95.1598 187.239 109.317C164.391 170.034 139.464 229.989 116.49 290.669C105.244 320.37 94.2582 350.138 83.9973 380.183C80.4929 390.444 76.6352 400.7 73.8154 411.177C72.6844 415.379 71.3662 427.461 74.5267 416.269C83.602 384.131 94.4105 352.488 105.784 321.073C123.802 271.301 147.518 224.364 173.912 178.426C177.398 172.36 180.993 166.318 184.768 160.42C185.325 159.551 185.891 158.535 185.891 160.125C185.891 184.045 176.468 208.341 169.495 230.821C153.009 283.974 133.867 336.249 116.04 388.964C115.232 391.356 114.026 398.707 113.794 396.196C113.313 390.979 116.079 384.181 117.65 379.556C126.625 353.123 137.686 327.23 148.271 301.406C166.651 256.56 186.219 212.285 207.153 168.538C225.435 130.333 244.227 92.3281 264.015 54.8562C272.377 39.021 280.717 23.0091 290.255 7.81173C290.508 7.40877 291.847 4.6302 291.678 6.85239C291.046 15.1602 288.007 23.8909 285.763 31.7952C276.564 64.2045 264.562 95.6541 252.373 127.065C229.179 186.835 204.416 245.972 180.613 305.502C175.291 318.812 170.477 332.286 165.602 345.757C163.96 350.294 161.882 354.953 161.073 359.741C161.021 360.046 160.957 360.908 161.148 360.664C161.89 359.712 162.366 358.584 162.944 357.528C168.264 347.808 172.634 337.583 177.244 327.53C202.298 272.888 226.37 217.516 253.983 164.073C260.492 151.474 267.342 139.019 274.309 126.659C275.941 123.763 279.279 115.286 280.074 118.505C281.123 122.759 278.61 130.212 277.678 134.002C271.896 157.515 263.742 180.598 256.191 203.591C232.452 275.877 206.513 347.293 179.64 418.483C177.743 423.506 175.438 428.796 175.148 434.238C175.121 434.735 174.846 437.269 175.634 435.197C180.327 422.862 184.453 410.296 189.073 397.931C205.664 353.53 225.465 310.469 246.159 267.793C260.448 238.324 275.812 209.502 292.127 181.083C300.609 166.308 308.857 151.111 318.855 137.249C319.129 136.869 326.323 126.218 328.063 126.77C330.828 127.646 326.614 143.386 326.379 144.333C313.678 195.451 292.933 244.643 275.245 294.174C266.908 317.519 258.576 340.893 251.512 364.649C249.322 372.012 247.884 380.382 244.662 387.415C243.662 389.597 245.235 382.644 245.859 380.33C249.196 367.977 253.547 355.84 258.662 344.097C265.414 328.592 273.479 313.738 281.796 299.008C284.639 293.971 288.837 282.681 294.485 279.563C296.036 278.707 296.265 282.845 296.282 283.326C296.534 290.272 294.877 297.771 293.774 304.543C291.327 319.578 287.634 334.11 283.293 348.709C278.733 364.043 275.829 378.895 273.485 394.647" stroke="#191C24" stroke-width="6" stroke-linecap="round"/>
</g>
<rect x="2.5" y="112.5" width="215" height="215" rx="7.5" stroke="#C5073D" stroke-width="5"/>
<defs>
<clipPath id="clip0_50_97">
<rect y="110" width="220" height="220" rx="10" fill="white"/>
</clipPath>
</defs>
</svg>
