<svg width="660" height="120" viewBox="0 0 660 120" fill="none" xmlns="http://www.w3.org/2000/svg">
<rect x="2" y="2" width="656" height="116" rx="18" stroke="#C5073D" stroke-width="4"/>
<path d="M42.5 67.9753C42.5 66.5946 41.3807 65.4753 40 65.4753C38.6193 65.4753 37.5 66.5946 37.5 67.9753L42.5 67.9753ZM37.5 84.7624L37.5 87.2624L42.5 87.2624L42.5 84.7624L37.5 84.7624ZM37.5 67.9753L37.5 84.7624L42.5 84.7624L42.5 67.9753L37.5 67.9753Z" fill="#C5073D"/>
<path d="M52.0928 45.5925C52.0928 44.2118 50.9735 43.0925 49.5928 43.0925C48.2121 43.0925 47.0928 44.2118 47.0928 45.5925L52.0928 45.5925ZM47.0928 84.7623L47.0928 87.2623L52.0928 87.2623L52.0928 84.7623L47.0928 84.7623ZM47.0928 45.5925L47.0928 84.7623L52.0928 84.7623L52.0928 45.5925L47.0928 45.5925Z" fill="#C5073D"/>
<path d="M61.6851 73.571C61.6851 72.1903 60.5658 71.071 59.1851 71.071C57.8043 71.071 56.6851 72.1903 56.6851 73.571L61.6851 73.571ZM56.6851 84.7624L56.6851 87.2624L61.6851 87.2624L61.6851 84.7624L56.6851 84.7624ZM56.6851 73.571L56.6851 84.7624L61.6851 84.7624L61.6851 73.571L56.6851 73.571Z" fill="#C5073D"/>
<path d="M71.2778 49.5896C71.2778 48.2089 70.1585 47.0896 68.7778 47.0896C67.3971 47.0896 66.2778 48.2089 66.2778 49.5896L71.2778 49.5896ZM66.2778 84.7624L66.2778 87.2624L71.2778 87.2624L71.2778 84.7624L66.2778 84.7624ZM66.2778 49.5896L66.2778 84.7624L71.2778 84.7624L71.2778 49.5896L66.2778 49.5896Z" fill="#C5073D"/>
<path d="M80.8706 67.9753C80.8706 66.5946 79.7513 65.4753 78.3706 65.4753C76.9899 65.4753 75.8706 66.5946 75.8706 67.9753L80.8706 67.9753ZM75.8706 84.7624L75.8706 87.2624L80.8706 87.2624L80.8706 84.7624L75.8706 84.7624ZM75.8706 67.9753L75.8706 84.7624L80.8706 84.7624L80.8706 67.9753L75.8706 67.9753Z" fill="#C5073D"/>
<path d="M90.4629 49.5896C90.4629 48.2089 89.3436 47.0896 87.9629 47.0896C86.5822 47.0896 85.4629 48.2089 85.4629 49.5896L90.4629 49.5896ZM85.4629 84.7624L85.4629 87.2624L90.4629 87.2624L90.4629 84.7624L85.4629 84.7624ZM85.4629 49.5896L85.4629 84.7624L90.4629 84.7624L90.4629 49.5896L85.4629 49.5896Z" fill="#C5073D"/>
<path d="M100.056 39.1975C100.056 37.8168 98.9364 36.6975 97.5557 36.6975C96.175 36.6975 95.0557 37.8168 95.0557 39.1975L100.056 39.1975ZM95.0557 84.7623L95.0557 87.2623L100.056 87.2623L100.056 84.7623L95.0557 84.7623ZM95.0557 39.1975L95.0557 84.7623L100.056 84.7623L100.056 39.1975L95.0557 39.1975Z" fill="#C5073D"/>
<path d="M109.648 55.9846C109.648 54.6039 108.529 53.4846 107.148 53.4846C105.767 53.4846 104.648 54.6039 104.648 55.9846H109.648ZM104.648 84.7624V87.2624H109.648V84.7624H104.648ZM104.648 55.9846V84.7624H109.648V55.9846H104.648Z" fill="#C5073D"/>
<path d="M119.241 62.3796C119.241 60.9989 118.121 59.8796 116.741 59.8796C115.36 59.8796 114.241 60.9989 114.241 62.3796L119.241 62.3796ZM114.241 84.7624L114.241 87.2624L119.241 87.2624L119.241 84.7624L114.241 84.7624ZM114.241 62.3796L114.241 84.7624L119.241 84.7624L119.241 62.3796L114.241 62.3796Z" fill="#C5073D"/>
<path d="M128.833 70.3735C128.833 68.9928 127.714 67.8735 126.333 67.8735C124.953 67.8735 123.833 68.9928 123.833 70.3735L128.833 70.3735ZM123.833 84.7624L123.833 87.2624L128.833 87.2624L128.833 84.7624L123.833 84.7624ZM123.833 70.3735L123.833 84.7624L128.833 84.7624L128.833 70.3735L123.833 70.3735Z" fill="#C5073D"/>
<path d="M138.426 77.5679C138.426 76.1872 137.306 75.0679 135.926 75.0679C134.545 75.0679 133.426 76.1872 133.426 77.5679L138.426 77.5679ZM133.426 84.7623L133.426 87.2623L138.426 87.2623L138.426 84.7623L133.426 84.7623ZM133.426 77.5679L133.426 84.7623L138.426 84.7623L138.426 77.5679L133.426 77.5679Z" fill="#C5073D"/>
<path d="M148.019 65.5771C148.019 64.1964 146.899 63.0771 145.519 63.0771C144.138 63.0771 143.019 64.1964 143.019 65.5771L148.019 65.5771ZM143.019 84.7623L143.019 87.2623L148.019 87.2623L148.019 84.7623L143.019 84.7623ZM143.019 65.5771L143.019 84.7623L148.019 84.7623L148.019 65.5771L143.019 65.5771Z" fill="#C5073D"/>
<path d="M157.611 41.5957C157.611 40.215 156.492 39.0957 155.111 39.0957C153.731 39.0957 152.611 40.215 152.611 41.5957L157.611 41.5957ZM152.611 84.7624L152.611 87.2624L157.611 87.2624L157.611 84.7624L152.611 84.7624ZM152.611 41.5957L152.611 84.7624L157.611 84.7624L157.611 41.5957L152.611 41.5957Z" fill="#C5073D"/>
<path d="M167.204 36C167.204 34.6193 166.084 33.5 164.704 33.5C163.323 33.5 162.204 34.6193 162.204 36L167.204 36ZM162.204 84.7623L162.204 87.2623L167.204 87.2623L167.204 84.7623L162.204 84.7623ZM162.204 36L162.204 84.7623L167.204 84.7623L167.204 36L162.204 36Z" fill="#C5073D"/>
<path d="M176.796 58.3828C176.796 57.0021 175.677 55.8828 174.296 55.8828C172.916 55.8828 171.796 57.0021 171.796 58.3828L176.796 58.3828ZM171.796 84.7624L171.796 87.2624L176.796 87.2624L176.796 84.7624L171.796 84.7624ZM171.796 58.3828L171.796 84.7624L176.796 84.7624L176.796 58.3828L171.796 58.3828Z" fill="#C5073D"/>
<path d="M186.389 55.9846C186.389 54.6039 185.269 53.4846 183.889 53.4846C182.508 53.4846 181.389 54.6039 181.389 55.9846H186.389ZM181.389 84.7624V87.2624H186.389V84.7624H181.389ZM181.389 55.9846V84.7624H186.389V55.9846H181.389Z" fill="#C5073D"/>
<path d="M195.981 60.7808C195.981 59.4 194.862 58.2808 193.481 58.2808C192.101 58.2808 190.981 59.4 190.981 60.7808L195.981 60.7808ZM190.981 84.7622L190.981 87.2622L195.981 87.2622L195.981 84.7622L190.981 84.7622ZM190.981 60.7808L190.981 84.7622L195.981 84.7622L195.981 60.7808L190.981 60.7808Z" fill="#C5073D"/>
<path d="M205.574 49.5896C205.574 48.2089 204.455 47.0896 203.074 47.0896C201.694 47.0896 200.574 48.2089 200.574 49.5896L205.574 49.5896ZM200.574 84.7624L200.574 87.2624L205.574 87.2624L205.574 84.7624L200.574 84.7624ZM200.574 49.5896L200.574 84.7624L205.574 84.7624L205.574 49.5896L200.574 49.5896Z" fill="#C5073D"/>
<path d="M215.167 60.7808C215.167 59.4 214.047 58.2808 212.667 58.2808C211.286 58.2808 210.167 59.4 210.167 60.7808L215.167 60.7808ZM210.167 84.7622L210.167 87.2622L215.167 87.2622L215.167 84.7622L210.167 84.7622ZM210.167 60.7808L210.167 84.7622L215.167 84.7622L215.167 60.7808L210.167 60.7808Z" fill="#C5073D"/>
<path d="M224.759 45.5925C224.759 44.2118 223.64 43.0925 222.259 43.0925C220.879 43.0925 219.759 44.2118 219.759 45.5925L224.759 45.5925ZM219.759 84.7623L219.759 87.2623L224.759 87.2623L224.759 84.7623L219.759 84.7623ZM219.759 45.5925L219.759 84.7623L224.759 84.7623L224.759 45.5925L219.759 45.5925Z" fill="#C5073D"/>
<path d="M234.352 60.7808C234.352 59.4 233.233 58.2808 231.852 58.2808C230.471 58.2808 229.352 59.4 229.352 60.7808L234.352 60.7808ZM229.352 84.7622L229.352 87.2622L234.352 87.2622L234.352 84.7622L229.352 84.7622ZM229.352 60.7808L229.352 84.7622L234.352 84.7622L234.352 60.7808L229.352 60.7808Z" fill="#C5073D"/>
<path d="M243.944 70.3735C243.944 68.9928 242.825 67.8735 241.444 67.8735C240.064 67.8735 238.944 68.9928 238.944 70.3735L243.944 70.3735ZM238.944 84.7624L238.944 87.2624L243.944 87.2624L243.944 84.7624L238.944 84.7624ZM238.944 70.3735L238.944 84.7624L243.944 84.7624L243.944 70.3735L238.944 70.3735Z" fill="#C5073D"/>
<path d="M253.537 76.7686C253.537 75.3878 252.418 74.2686 251.037 74.2686C249.656 74.2686 248.537 75.3878 248.537 76.7686L253.537 76.7686ZM248.537 84.7624L248.537 87.2624L253.537 87.2624L253.537 84.7624L248.537 84.7624ZM248.537 76.7686L248.537 84.7624L253.537 84.7624L253.537 76.7686L248.537 76.7686Z" fill="#C5073D"/>
<path d="M263.129 55.9846C263.129 54.6039 262.01 53.4846 260.629 53.4846C259.249 53.4846 258.129 54.6039 258.129 55.9846H263.129ZM258.129 84.7624V87.2624H263.129V84.7624H258.129ZM258.129 55.9846V84.7624H263.129V55.9846H258.129Z" fill="#C5073D"/>
<path d="M272.722 49.5896C272.722 48.2089 271.603 47.0896 270.222 47.0896C268.841 47.0896 267.722 48.2089 267.722 49.5896L272.722 49.5896ZM267.722 84.7624L267.722 87.2624L272.722 87.2624L272.722 84.7624L267.722 84.7624ZM267.722 49.5896L267.722 84.7624L272.722 84.7624L272.722 49.5896L267.722 49.5896Z" fill="#C5073D"/>
<path d="M282.315 39.1975C282.315 37.8168 281.196 36.6975 279.815 36.6975C278.434 36.6975 277.315 37.8168 277.315 39.1975L282.315 39.1975ZM277.315 84.7623L277.315 87.2623L282.315 87.2623L282.315 84.7623L277.315 84.7623ZM277.315 39.1975L277.315 84.7623L282.315 84.7623L282.315 39.1975L277.315 39.1975Z" fill="#C5073D"/>
<path d="M291.907 63.179C291.907 61.7982 290.788 60.679 289.407 60.679C288.027 60.679 286.907 61.7982 286.907 63.179L291.907 63.179ZM286.907 84.7623L286.907 87.2623L291.907 87.2623L291.907 84.7623L286.907 84.7623ZM286.907 63.179L286.907 84.7623L291.907 84.7623L291.907 63.179L286.907 63.179Z" fill="#C5073D"/>
<path d="M301.5 55.9846C301.5 54.6039 300.381 53.4846 299 53.4846C297.619 53.4846 296.5 54.6039 296.5 55.9846H301.5ZM296.5 84.7624V87.2624H301.5V84.7624H296.5ZM296.5 55.9846V84.7624H301.5V55.9846H296.5Z" fill="#C5073D"/>
<path d="M311.5 67.9753C311.5 66.5946 310.381 65.4753 309 65.4753C307.619 65.4753 306.5 66.5946 306.5 67.9753L311.5 67.9753ZM306.5 84.7624L306.5 87.2624L311.5 87.2624L311.5 84.7624L306.5 84.7624ZM306.5 67.9753L306.5 84.7624L311.5 84.7624L311.5 67.9753L306.5 67.9753Z" fill="#C5073D"/>
<path d="M321.093 45.5925C321.093 44.2118 319.973 43.0925 318.593 43.0925C317.212 43.0925 316.093 44.2118 316.093 45.5925L321.093 45.5925ZM316.093 84.7623L316.093 87.2623L321.093 87.2623L321.093 84.7623L316.093 84.7623ZM316.093 45.5925L316.093 84.7623L321.093 84.7623L321.093 45.5925L316.093 45.5925Z" fill="#C5073D"/>
<path d="M330.685 73.571C330.685 72.1903 329.566 71.071 328.185 71.071C326.804 71.071 325.685 72.1903 325.685 73.571L330.685 73.571ZM325.685 84.7624L325.685 87.2624L330.685 87.2624L330.685 84.7624L325.685 84.7624ZM325.685 73.571L325.685 84.7624L330.685 84.7624L330.685 73.571L325.685 73.571Z" fill="#C5073D"/>
<path d="M340.278 49.5896C340.278 48.2089 339.159 47.0896 337.778 47.0896C336.397 47.0896 335.278 48.2089 335.278 49.5896L340.278 49.5896ZM335.278 84.7624L335.278 87.2624L340.278 87.2624L340.278 84.7624L335.278 84.7624ZM335.278 49.5896L335.278 84.7624L340.278 84.7624L340.278 49.5896L335.278 49.5896Z" fill="#C5073D"/>
<path d="M349.871 67.9753C349.871 66.5946 348.751 65.4753 347.371 65.4753C345.99 65.4753 344.871 66.5946 344.871 67.9753L349.871 67.9753ZM344.871 84.7624L344.871 87.2624L349.871 87.2624L349.871 84.7624L344.871 84.7624ZM344.871 67.9753L344.871 84.7624L349.871 84.7624L349.871 67.9753L344.871 67.9753Z" fill="#C5073D"/>
<path d="M359.463 49.5896C359.463 48.2089 358.344 47.0896 356.963 47.0896C355.582 47.0896 354.463 48.2089 354.463 49.5896L359.463 49.5896ZM354.463 84.7624L354.463 87.2624L359.463 87.2624L359.463 84.7624L354.463 84.7624ZM354.463 49.5896L354.463 84.7624L359.463 84.7624L359.463 49.5896L354.463 49.5896Z" fill="#C5073D"/>
<path d="M369.056 39.1975C369.056 37.8168 367.936 36.6975 366.556 36.6975C365.175 36.6975 364.056 37.8168 364.056 39.1975L369.056 39.1975ZM364.056 84.7623L364.056 87.2623L369.056 87.2623L369.056 84.7623L364.056 84.7623ZM364.056 39.1975L364.056 84.7623L369.056 84.7623L369.056 39.1975L364.056 39.1975Z" fill="#C5073D"/>
<path d="M378.648 55.9846C378.648 54.6039 377.529 53.4846 376.148 53.4846C374.767 53.4846 373.648 54.6039 373.648 55.9846H378.648ZM373.648 84.7624V87.2624H378.648V84.7624H373.648ZM373.648 55.9846V84.7624H378.648V55.9846H373.648Z" fill="#C5073D"/>
<path d="M388.241 62.3796C388.241 60.9989 387.121 59.8796 385.741 59.8796C384.36 59.8796 383.241 60.9989 383.241 62.3796L388.241 62.3796ZM383.241 84.7624L383.241 87.2624L388.241 87.2624L388.241 84.7624L383.241 84.7624ZM383.241 62.3796L383.241 84.7624L388.241 84.7624L388.241 62.3796L383.241 62.3796Z" fill="#C5073D"/>
<path d="M397.833 70.3735C397.833 68.9928 396.714 67.8735 395.333 67.8735C393.953 67.8735 392.833 68.9928 392.833 70.3735L397.833 70.3735ZM392.833 84.7624L392.833 87.2624L397.833 87.2624L397.833 84.7624L392.833 84.7624ZM392.833 70.3735L392.833 84.7624L397.833 84.7624L397.833 70.3735L392.833 70.3735Z" fill="#C5073D"/>
<path d="M407.426 77.5679C407.426 76.1872 406.306 75.0679 404.926 75.0679C403.545 75.0679 402.426 76.1872 402.426 77.5679L407.426 77.5679ZM402.426 84.7623L402.426 87.2623L407.426 87.2623L407.426 84.7623L402.426 84.7623ZM402.426 77.5679L402.426 84.7623L407.426 84.7623L407.426 77.5679L402.426 77.5679Z" fill="#C5073D"/>
<path d="M417.019 65.5771C417.019 64.1964 415.899 63.0771 414.519 63.0771C413.138 63.0771 412.019 64.1964 412.019 65.5771L417.019 65.5771ZM412.019 84.7623L412.019 87.2623L417.019 87.2623L417.019 84.7623L412.019 84.7623ZM412.019 65.5771L412.019 84.7623L417.019 84.7623L417.019 65.5771L412.019 65.5771Z" fill="#C5073D"/>
<path d="M426.611 41.5957C426.611 40.215 425.492 39.0957 424.111 39.0957C422.731 39.0957 421.611 40.215 421.611 41.5957L426.611 41.5957ZM421.611 84.7624L421.611 87.2624L426.611 87.2624L426.611 84.7624L421.611 84.7624ZM421.611 41.5957L421.611 84.7624L426.611 84.7624L426.611 41.5957L421.611 41.5957Z" fill="#C5073D"/>
<path d="M436.204 36C436.204 34.6193 435.084 33.5 433.704 33.5C432.323 33.5 431.204 34.6193 431.204 36L436.204 36ZM431.204 84.7623L431.204 87.2623L436.204 87.2623L436.204 84.7623L431.204 84.7623ZM431.204 36L431.204 84.7623L436.204 84.7623L436.204 36L431.204 36Z" fill="#C5073D"/>
<path d="M445.796 58.3828C445.796 57.0021 444.677 55.8828 443.296 55.8828C441.916 55.8828 440.796 57.0021 440.796 58.3828L445.796 58.3828ZM440.796 84.7624L440.796 87.2624L445.796 87.2624L445.796 84.7624L440.796 84.7624ZM440.796 58.3828L440.796 84.7624L445.796 84.7624L445.796 58.3828L440.796 58.3828Z" fill="#C5073D"/>
<path d="M455.5 67.9753C455.5 66.5946 454.381 65.4753 453 65.4753C451.619 65.4753 450.5 66.5946 450.5 67.9753L455.5 67.9753ZM450.5 84.7624L450.5 87.2624L455.5 87.2624L455.5 84.7624L450.5 84.7624ZM450.5 67.9753L450.5 84.7624L455.5 84.7624L455.5 67.9753L450.5 67.9753Z" fill="#C5073D"/>
<path d="M465.093 45.5925C465.093 44.2118 463.973 43.0925 462.593 43.0925C461.212 43.0925 460.093 44.2118 460.093 45.5925L465.093 45.5925ZM460.093 84.7623L460.093 87.2623L465.093 87.2623L465.093 84.7623L460.093 84.7623ZM460.093 45.5925L460.093 84.7623L465.093 84.7623L465.093 45.5925L460.093 45.5925Z" fill="#C5073D"/>
<path d="M474.685 73.571C474.685 72.1903 473.566 71.071 472.185 71.071C470.804 71.071 469.685 72.1903 469.685 73.571L474.685 73.571ZM469.685 84.7624L469.685 87.2624L474.685 87.2624L474.685 84.7624L469.685 84.7624ZM469.685 73.571L469.685 84.7624L474.685 84.7624L474.685 73.571L469.685 73.571Z" fill="#C5073D"/>
<path d="M484.278 49.5896C484.278 48.2089 483.159 47.0896 481.778 47.0896C480.397 47.0896 479.278 48.2089 479.278 49.5896L484.278 49.5896ZM479.278 84.7624L479.278 87.2624L484.278 87.2624L484.278 84.7624L479.278 84.7624ZM479.278 49.5896L479.278 84.7624L484.278 84.7624L484.278 49.5896L479.278 49.5896Z" fill="#C5073D"/>
<path d="M493.871 67.9753C493.871 66.5946 492.751 65.4753 491.371 65.4753C489.99 65.4753 488.871 66.5946 488.871 67.9753L493.871 67.9753ZM488.871 84.7624L488.871 87.2624L493.871 87.2624L493.871 84.7624L488.871 84.7624ZM488.871 67.9753L488.871 84.7624L493.871 84.7624L493.871 67.9753L488.871 67.9753Z" fill="#C5073D"/>
<path d="M503.463 49.5896C503.463 48.2089 502.344 47.0896 500.963 47.0896C499.582 47.0896 498.463 48.2089 498.463 49.5896L503.463 49.5896ZM498.463 84.7624L498.463 87.2624L503.463 87.2624L503.463 84.7624L498.463 84.7624ZM498.463 49.5896L498.463 84.7624L503.463 84.7624L503.463 49.5896L498.463 49.5896Z" fill="#C5073D"/>
<path d="M513.056 39.1975C513.056 37.8168 511.936 36.6975 510.556 36.6975C509.175 36.6975 508.056 37.8168 508.056 39.1975L513.056 39.1975ZM508.056 84.7623L508.056 87.2623L513.056 87.2623L513.056 84.7623L508.056 84.7623ZM508.056 39.1975L508.056 84.7623L513.056 84.7623L513.056 39.1975L508.056 39.1975Z" fill="#C5073D"/>
<circle cx="600" cy="60" r="43" fill="#C5073D"/>
<path d="M600 65.1248C598.152 65.1248 596.596 64.4735 595.333 63.171C594.069 61.8684 593.437 60.2869 593.437 58.4263V43.4563C593.437 41.6627 594.075 40.1383 595.35 38.883C596.626 37.6277 598.175 37 599.997 37C601.82 37 603.37 37.6277 604.647 38.883C605.924 40.1383 606.563 41.6627 606.563 43.4563V58.4263C606.563 60.2869 605.931 61.8684 604.667 63.171C603.404 64.4735 601.848 65.1248 600 65.1248ZM597.962 80.9827V75.0305C594.103 74.56 590.77 72.9932 587.965 70.33C585.158 67.6669 583.511 64.3916 583.021 60.5042C582.94 59.93 583.091 59.4401 583.474 59.0346C583.857 58.6291 584.339 58.4263 584.921 58.4263C585.503 58.4263 585.987 58.6246 586.375 59.0213C586.762 59.4183 587.01 59.906 587.118 60.4842C587.635 63.6045 589.122 66.1602 591.581 68.1511C594.039 70.1416 596.84 71.1368 599.985 71.1368C603.175 71.1368 605.992 70.1382 608.438 68.1408C610.884 66.1434 612.365 63.5912 612.882 60.4842C612.99 59.906 613.24 59.4183 613.633 59.0213C614.025 58.6246 614.51 58.4263 615.09 58.4263C615.669 58.4263 616.149 58.6291 616.53 59.0346C616.91 59.4401 617.06 59.93 616.978 60.5042C616.489 64.3375 614.852 67.5993 612.066 70.2895C609.281 72.9797 605.938 74.56 602.038 75.0305V80.9827C602.038 81.554 601.842 82.0332 601.45 82.4202C601.058 82.8067 600.572 83 599.993 83C599.413 83 598.93 82.8067 598.543 82.4202C598.156 82.0332 597.962 81.554 597.962 80.9827Z" fill="#191C24"/>
</svg>
