<svg width="21" height="19" viewBox="0 0 21 19" fill="none" xmlns="http://www.w3.org/2000/svg">
<path d="M4.94444 14V5C4.94444 4.745 5.05093 4.53125 5.26389 4.35875C5.47685 4.18625 5.74074 4.1 6.05556 4.1C6.37037 4.1 6.63426 4.18625 6.84722 4.35875C7.06019 4.53125 7.16667 4.745 7.16667 5V14C7.16667 14.255 7.06019 14.4688 6.84722 14.6413C6.63426 14.8138 6.37037 14.9 6.05556 14.9C5.74074 14.9 5.47685 14.8138 5.26389 14.6413C5.05093 14.4688 4.94444 14.255 4.94444 14ZM9.38889 17.6V1.4C9.38889 1.145 9.49537 0.93125 9.70833 0.75875C9.9213 0.58625 10.1852 0.5 10.5 0.5C10.8148 0.5 11.0787 0.58625 11.2917 0.75875C11.5046 0.93125 11.6111 1.145 11.6111 1.4V17.6C11.6111 17.855 11.5046 18.0688 11.2917 18.2413C11.0787 18.4138 10.8148 18.5 10.5 18.5C10.1852 18.5 9.9213 18.4138 9.70833 18.2413C9.49537 18.0688 9.38889 17.855 9.38889 17.6ZM0.5 10.4V8.6C0.5 8.345 0.606481 8.13125 0.819444 7.95875C1.03241 7.78625 1.2963 7.7 1.61111 7.7C1.92593 7.7 2.18981 7.78625 2.40278 7.95875C2.61574 8.13125 2.72222 8.345 2.72222 8.6V10.4C2.72222 10.655 2.61574 10.8688 2.40278 11.0413C2.18981 11.2138 1.92593 11.3 1.61111 11.3C1.2963 11.3 1.03241 11.2138 0.819444 11.0413C0.606481 10.8688 0.5 10.655 0.5 10.4ZM13.8333 14V5C13.8333 4.745 13.9398 4.53125 14.1528 4.35875C14.3657 4.18625 14.6296 4.1 14.9444 4.1C15.2593 4.1 15.5231 4.18625 15.7361 4.35875C15.9491 4.53125 16.0556 4.745 16.0556 5V14C16.0556 14.255 15.9491 14.4688 15.7361 14.6413C15.5231 14.8138 15.2593 14.9 14.9444 14.9C14.6296 14.9 14.3657 14.8138 14.1528 14.6413C13.9398 14.4688 13.8333 14.255 13.8333 14ZM18.2778 10.4V8.6C18.2778 8.345 18.3843 8.13125 18.5972 7.95875C18.8102 7.78625 19.0741 7.7 19.3889 7.7C19.7037 7.7 19.9676 7.78625 20.1806 7.95875C20.3935 8.13125 20.5 8.345 20.5 8.6V10.4C20.5 10.655 20.3935 10.8688 20.1806 11.0413C19.9676 11.2138 19.7037 11.3 19.3889 11.3C19.0741 11.3 18.8102 11.2138 18.5972 11.0413C18.3843 10.8688 18.2778 10.655 18.2778 10.4Z" fill="#EBEBEB"/>
</svg>