<svg width="14" height="11" viewBox="0 0 14 11" fill="none" xmlns="http://www.w3.org/2000/svg">
<path d="M0 11V9.77778H14V11H0ZM1.90909 9.16667C1.55909 9.16667 1.25947 9.04699 1.01023 8.80764C0.760985 8.56829 0.636364 8.28056 0.636364 7.94444V1.22222C0.636364 0.886111 0.760985 0.59838 1.01023 0.359028C1.25947 0.119676 1.55909 0 1.90909 0H12.0909C12.4409 0 12.7405 0.119676 12.9898 0.359028C13.239 0.59838 13.3636 0.886111 13.3636 1.22222V7.94444C13.3636 8.28056 13.239 8.56829 12.9898 8.80764C12.7405 9.04699 12.4409 9.16667 12.0909 9.16667H1.90909ZM1.90909 7.94444H12.0909V1.22222H1.90909V7.94444Z" fill="#AAAAAA"/>
</svg>
