<svg width="14" height="7" viewBox="0 0 14 7" fill="none" xmlns="http://www.w3.org/2000/svg">
<path d="M6.3 7H3.5C2.53167 7 1.70625 6.65875 1.02375 5.97625C0.34125 5.29375 0 4.46833 0 3.5C0 2.53167 0.34125 1.70625 1.02375 1.02375C1.70625 0.34125 2.53167 0 3.5 0H6.3V1.4H3.5C2.91667 1.4 2.42083 1.60417 2.0125 2.0125C1.60417 2.42083 1.4 2.91667 1.4 3.5C1.4 4.08333 1.60417 4.57917 2.0125 4.9875C2.42083 5.39583 2.91667 5.6 3.5 5.6H6.3V7ZM4.2 4.2V2.8H9.8V4.2H4.2ZM7.7 7V5.6H10.5C11.0833 5.6 11.5792 5.39583 11.9875 4.9875C12.3958 4.57917 12.6 4.08333 12.6 3.5C12.6 2.91667 12.3958 2.42083 11.9875 2.0125C11.5792 1.60417 11.0833 1.4 10.5 1.4H7.7V0H10.5C11.4683 0 12.2937 0.34125 12.9762 1.02375C13.6587 1.70625 14 2.53167 14 3.5C14 4.46833 13.6587 5.29375 12.9762 5.97625C12.2937 6.65875 11.4683 7 10.5 7H7.7Z" fill="#AAAAAA"/>
</svg>
