<svg width="1660" height="905" viewBox="0 0 1660 905" fill="none" xmlns="http://www.w3.org/2000/svg">
<rect x="210" y="513" width="72" height="72" rx="8" fill="#191C24"/>
<rect x="1378.2" y="72.2" width="69.6" height="69.6" rx="6.8" stroke="#C5073D" stroke-width="2.4"/>
<line x1="1448.11" y1="118.907" x2="1424.91" y2="142.107" stroke="#C5073D" stroke-width="2"/>
<line x1="1447.31" y1="85.3072" x2="1390.51" y2="142.107" stroke="#C5073D" stroke-width="2"/>
<line x1="1422.51" y1="72.5069" x2="1377.71" y2="117.307" stroke="#C5073D" stroke-width="2"/>
<line x1="1448.11" y1="129.307" x2="1435.31" y2="142.107" stroke="#C5073D" stroke-width="2"/>
<line x1="1448.11" y1="107.707" x2="1413.71" y2="142.107" stroke="#C5073D" stroke-width="2"/>
<line x1="1445.71" y1="75.7071" x2="1380.91" y2="140.507" stroke="#C5073D" stroke-width="2"/>
<line x1="1410.51" y1="71.7071" x2="1377.71" y2="104.507" stroke="#C5073D" stroke-width="2"/>
<line x1="1447.31" y1="96.5069" x2="1401.71" y2="142.107" stroke="#C5073D" stroke-width="2"/>
<line x1="1436.11" y1="72.5069" x2="1377.71" y2="130.907" stroke="#C5073D" stroke-width="2"/>
<line x1="1396.91" y1="72.5069" x2="1378.51" y2="90.9069" stroke="#C5073D" stroke-width="2"/>
<g clip-path="url(#clip0_231_2)">
<path d="M1255.9 233.227C1262.95 216.042 1273.23 200.268 1282.13 183.99C1294.16 162.015 1304.73 139.339 1316.57 117.279C1321.31 108.452 1326.24 99.6719 1331.49 91.1263C1333.49 87.8556 1335.68 84.6888 1338.43 81.9757C1339.96 80.4694 1340.59 80.2887 1340.17 82.6841C1338.64 91.4256 1335.76 99.92 1332.74 108.247C1316.32 153.545 1297.41 197.998 1280.1 242.967C1270.19 268.704 1260.62 294.564 1250.57 320.246C1248.79 324.8 1253.94 311.068 1255.66 306.49C1272.1 262.72 1287.5 218.6 1304.41 174.987C1312.95 152.965 1322.82 131.395 1334.75 110.933C1334.97 110.556 1337.77 105.338 1337.77 108.837C1337.77 112.874 1336.46 117.269 1335.56 121.117C1330.98 140.559 1325.51 159.862 1319.69 178.972C1305.12 226.812 1286.52 273.208 1269.44 320.187C1267.49 325.532 1263.45 333.134 1263.45 339.138C1263.45 340.395 1264.32 336.775 1264.76 335.595C1267.61 327.992 1270.08 320.252 1273.03 312.689C1279.48 296.165 1287.44 280.206 1295.19 264.25C1305.25 243.524 1315.46 222.869 1326.24 202.498C1331.99 191.651 1337.85 180.86 1343.73 170.087C1345.58 166.711 1347.92 162.433 1349.87 159.047C1350.38 158.174 1352.34 153.904 1353.89 153.232C1354.63 152.908 1354.55 155.406 1354.54 155.476C1354.43 160.575 1353.35 165.765 1352.21 170.707C1347.94 189.113 1341.79 207.172 1335.8 225.08C1326.78 252.023 1316.81 278.571 1306.09 304.896C1300.68 318.181 1295.46 331.644 1289.32 344.628C1287.94 347.542 1286.42 350.645 1284.29 353.129C1283.46 354.091 1283.36 353.362 1283.51 352.539C1284.31 348.187 1286.18 343.902 1287.73 339.787C1292.99 325.852 1299.03 312.323 1305.4 298.845C1318.46 271.22 1331.62 243.632 1345.08 216.195C1363.12 179.421 1380.7 142.261 1400.72 106.476C1401.86 104.446 1402.15 103.988 1403.12 102.166C1403.28 101.87 1403.41 101.002 1403.6 101.281C1404.2 102.175 1402.9 106.173 1402.76 106.653C1399.14 119.271 1393.55 131.445 1388.68 143.61C1376.9 173.078 1365.23 202.566 1353.02 231.869C1337.67 268.69 1292.4 379.444 1308.31 342.857C1309.44 340.254 1310.2 337.484 1311.18 334.828C1316.06 321.655 1321.6 308.693 1327.47 295.923C1349.37 248.295 1375.79 202.579 1400.33 156.243C1403.62 150.035 1406.64 143.149 1410.72 137.352C1411.89 135.693 1411.55 137.109 1411.35 138.149C1410.38 143.397 1408.93 148.521 1407.43 153.646C1399.27 181.509 1390.41 209.209 1381.08 236.71C1369.92 269.571 1357.81 302.087 1345.8 334.651C1341.38 346.626 1336.64 358.613 1333.34 370.958C1333.01 372.183 1331.46 376.138 1332.02 377.629C1332.81 379.706 1333.46 373.422 1334.15 371.312C1337.7 360.539 1342.23 350.103 1346.88 339.757C1357.71 315.669 1368.88 291.737 1379.64 267.615C1392.28 239.268 1404.93 210.939 1418.06 182.81C1426.63 164.454 1435.01 145.948 1445.01 128.29C1445.17 128.005 1450.71 116.415 1452.56 116.187C1454.79 115.912 1452.67 120.673 1452.14 122.829C1449.25 134.593 1445.05 146.128 1440.79 157.454C1422.51 206.027 1402.57 253.991 1384.19 302.535C1375.2 326.296 1366.41 350.11 1358.2 374.146C1355.39 382.355 1352.31 390.56 1350.05 398.941C1349.15 402.303 1348.09 411.968 1350.62 403.015C1357.88 377.305 1366.53 351.99 1375.63 326.858C1390.04 287.04 1409.01 249.491 1430.13 212.741C1432.92 207.888 1435.79 203.054 1438.81 198.336C1439.26 197.64 1439.71 196.828 1439.71 198.1C1439.71 217.236 1432.17 236.672 1426.6 254.657C1413.41 297.179 1398.09 338.999 1383.83 381.171C1383.19 383.085 1382.22 388.965 1382.04 386.957C1381.65 382.783 1383.86 377.345 1385.12 373.644C1392.3 352.498 1401.15 331.784 1409.62 311.125C1424.32 275.248 1439.98 239.828 1456.72 204.83C1471.35 174.266 1486.38 143.862 1502.21 113.885C1508.9 101.217 1515.57 88.4071 1523.2 76.2492C1523.41 75.9268 1524.48 73.704 1524.34 75.4817C1523.84 82.128 1521.41 89.1125 1519.61 95.436C1512.25 121.363 1502.65 146.523 1492.9 171.652C1474.34 219.468 1454.53 266.777 1435.49 314.401C1431.23 325.049 1427.38 335.829 1423.48 346.606C1422.17 350.235 1420.51 353.962 1419.86 357.793C1419.82 358.036 1419.77 358.727 1419.92 358.531C1420.51 357.77 1420.89 356.867 1421.36 356.022C1425.61 348.246 1429.11 340.066 1432.8 332.024C1452.84 288.31 1472.1 244.012 1494.19 201.258C1499.39 191.179 1504.87 181.215 1510.45 171.327C1511.75 169.01 1514.42 162.228 1515.06 164.804C1515.9 168.207 1513.89 174.17 1513.14 177.201C1508.52 196.012 1501.99 214.479 1495.95 232.872C1476.96 290.702 1456.21 347.835 1434.71 404.786C1433.19 408.805 1431.35 413.037 1431.12 417.39C1431.1 417.788 1430.88 419.815 1431.51 418.158C1435.26 408.289 1438.56 398.236 1442.26 388.344C1455.53 352.824 1471.37 318.375 1487.93 284.234C1499.36 260.659 1511.65 237.602 1524.7 214.866C1531.49 203.046 1538.09 190.888 1546.08 179.799C1546.3 179.495 1552.06 170.975 1553.45 171.416C1555.66 172.116 1552.29 184.708 1552.1 185.466C1541.94 226.36 1525.35 265.714 1511.2 305.339C1504.53 324.015 1497.86 342.714 1492.21 361.719C1490.46 367.609 1489.31 374.305 1486.73 379.932C1485.93 381.677 1487.19 376.115 1487.69 374.264C1490.36 364.381 1493.84 354.672 1497.93 345.277C1503.33 332.873 1509.78 320.99 1516.44 309.206C1518.71 305.177 1522.07 296.144 1526.59 293.65C1527.83 292.965 1528.01 296.276 1528.03 296.661C1528.23 302.218 1526.9 308.216 1526.02 313.634C1524.06 325.662 1521.11 337.288 1517.63 348.967C1513.99 361.234 1511.66 373.116 1509.79 385.717" stroke="#191C24" stroke-width="2.4" stroke-linecap="round"/>
</g>
<rect x="1291.8" y="158.8" width="69.6" height="69.6" rx="7.2" stroke="#C5073D" stroke-width="1.6"/>
<g clip-path="url(#clip1_231_2)">
<path d="M87.8998 874.227C94.9519 857.042 105.228 841.268 114.133 824.99C126.156 803.015 136.735 780.339 148.572 758.279C153.308 749.452 158.24 740.672 163.485 732.126C165.493 728.856 167.68 725.689 170.433 722.976C171.961 721.469 172.589 721.289 172.17 723.684C170.639 732.426 167.762 740.92 164.743 749.247C148.321 794.545 129.414 838.998 112.097 883.967C102.186 909.704 92.6189 935.564 82.5692 961.246C80.7873 965.8 85.9414 952.068 87.6602 947.49C104.096 903.72 119.5 859.6 136.413 815.987C144.954 793.965 154.819 772.395 166.75 751.933C166.969 751.556 169.774 746.338 169.774 749.837C169.774 753.874 168.464 758.269 167.558 762.117C162.981 781.559 157.505 800.862 151.686 819.972C137.119 867.812 118.52 914.208 101.436 961.187C99.492 966.532 95.4463 974.134 95.4463 980.138C95.4463 981.395 96.3229 977.775 96.764 976.595C99.606 968.992 102.078 961.252 105.029 953.689C111.477 937.165 119.444 921.206 127.19 905.25C137.251 884.524 147.46 863.869 158.245 843.498C163.987 832.651 169.849 821.86 175.734 811.087C177.578 807.711 179.917 803.433 181.873 800.047C182.377 799.174 184.341 794.904 185.885 794.232C186.631 793.908 186.546 796.406 186.544 796.476C186.433 801.575 185.354 806.765 184.208 811.707C179.941 830.113 173.79 848.172 167.798 866.08C158.782 893.023 148.814 919.571 138.09 945.896C132.679 959.181 127.457 972.644 121.32 985.628C119.943 988.542 118.422 991.645 116.289 994.129C115.464 995.091 115.36 994.362 115.511 993.539C116.307 989.187 118.18 984.902 119.733 980.787C124.991 966.852 131.032 953.323 137.402 939.845C150.457 912.22 163.624 884.632 177.081 857.195C195.117 820.421 212.702 783.261 232.722 747.476C233.858 745.446 234.148 744.988 235.118 743.166C235.276 742.87 235.409 742.002 235.597 742.281C236.202 743.175 234.896 747.173 234.759 747.653C231.143 760.271 225.549 772.445 220.684 784.61C208.897 814.078 197.227 843.566 185.017 872.869C169.674 909.69 124.399 1020.44 140.307 983.857C141.438 981.254 142.197 978.484 143.181 975.828C148.061 962.655 153.602 949.693 159.472 936.923C181.367 889.295 207.787 843.579 232.333 797.243C235.622 791.035 238.64 784.149 242.724 778.352C243.893 776.693 243.547 778.109 243.353 779.149C242.375 784.397 240.932 789.521 239.43 794.646C231.266 822.509 222.412 850.209 213.077 877.71C201.923 910.571 189.806 943.087 177.8 975.651C173.384 987.626 168.64 999.613 165.342 1011.96C165.015 1013.18 163.457 1017.14 164.024 1018.63C164.815 1020.71 165.456 1014.42 166.151 1012.31C169.697 1001.54 174.228 991.103 178.878 980.757C189.706 956.669 200.884 932.737 211.64 908.615C224.28 880.268 236.928 851.939 250.061 823.81C258.632 805.454 267.015 786.948 277.013 769.29C277.175 769.005 282.709 757.415 284.56 757.187C286.793 756.912 284.67 761.673 284.141 763.829C281.25 775.593 277.053 787.128 272.791 798.454C254.513 847.027 234.571 894.991 216.192 943.535C207.196 967.296 198.407 991.11 190.198 1015.15C187.394 1023.36 184.308 1031.56 182.052 1039.94C181.147 1043.3 180.093 1052.97 182.621 1044.01C189.882 1018.3 198.528 992.99 207.627 967.858C222.042 928.04 241.014 890.491 262.13 853.741C264.918 848.888 267.794 844.054 270.814 839.336C271.26 838.64 271.713 837.828 271.713 839.1C271.713 858.236 264.174 877.672 258.596 895.657C245.407 938.179 230.094 979.999 215.832 1022.17C215.185 1024.08 214.221 1029.97 214.035 1027.96C213.65 1023.78 215.863 1018.34 217.12 1014.64C224.3 993.498 233.149 972.784 241.616 952.125C256.321 916.248 271.975 880.828 288.723 845.83C303.348 815.266 318.381 784.862 334.212 754.885C340.902 742.217 347.574 729.407 355.204 717.249C355.407 716.927 356.478 714.704 356.342 716.482C355.837 723.128 353.406 730.113 351.611 736.436C344.251 762.363 334.649 787.523 324.898 812.652C306.343 860.468 286.532 907.777 267.49 955.401C263.233 966.049 259.382 976.829 255.482 987.606C254.168 991.235 252.506 994.962 251.858 998.793C251.817 999.036 251.765 999.727 251.918 999.531C252.512 998.77 252.893 997.867 253.356 997.022C257.611 989.246 261.108 981.066 264.795 973.024C284.838 929.31 304.096 885.012 326.186 842.258C331.394 832.179 336.874 822.215 342.447 812.327C343.753 810.01 346.423 803.228 347.059 805.804C347.899 809.207 345.888 815.17 345.142 818.201C340.517 837.012 333.993 855.479 327.953 873.872C308.962 931.702 288.211 988.835 266.712 1045.79C265.195 1049.8 263.351 1054.04 263.118 1058.39C263.097 1058.79 262.877 1060.81 263.507 1059.16C267.262 1049.29 270.562 1039.24 274.258 1029.34C287.531 993.824 303.372 959.375 319.927 925.234C331.359 901.659 343.649 878.602 356.702 855.866C363.488 844.046 370.085 831.888 378.084 820.799C378.303 820.495 384.059 811.975 385.451 812.416C387.663 813.116 384.291 825.708 384.103 826.466C373.943 867.36 357.346 906.714 343.196 946.339C336.527 965.015 329.861 983.714 324.209 1002.72C322.458 1008.61 321.307 1015.31 318.729 1020.93C317.93 1022.68 319.188 1017.11 319.688 1015.26C322.357 1005.38 325.838 995.672 329.929 986.277C335.331 973.873 341.783 961.99 348.436 950.206C350.711 946.177 354.069 937.144 358.588 934.65C359.829 933.965 360.012 937.276 360.026 937.661C360.227 943.218 358.901 949.216 358.019 954.634C356.061 966.662 353.107 978.288 349.634 989.967C345.987 1002.23 343.663 1014.12 341.788 1026.72" stroke="#191C24" stroke-width="2.4" stroke-linecap="round"/>
</g>
<rect x="123.8" y="799.8" width="69.6" height="69.6" rx="7.2" stroke="#C5073D" stroke-width="1.6"/>
<rect x="1485" y="773" width="72" height="72" rx="8" fill="#191C24"/>
<rect x="290.2" y="662.8" width="69.6" height="69.6" rx="6.8" transform="rotate(-90 290.2 662.8)" stroke="#C5073D" stroke-width="2.4"/>
<line x1="336.907" y1="592.893" x2="360.107" y2="616.093" stroke="#C5073D" stroke-width="2"/>
<line x1="303.307" y1="593.693" x2="360.107" y2="650.493" stroke="#C5073D" stroke-width="2"/>
<line x1="290.507" y1="618.493" x2="335.307" y2="663.293" stroke="#C5073D" stroke-width="2"/>
<line x1="347.307" y1="592.893" x2="360.107" y2="605.693" stroke="#C5073D" stroke-width="2"/>
<line x1="325.707" y1="592.893" x2="360.107" y2="627.293" stroke="#C5073D" stroke-width="2"/>
<line x1="293.707" y1="595.293" x2="358.507" y2="660.093" stroke="#C5073D" stroke-width="2"/>
<line x1="289.707" y1="630.493" x2="322.507" y2="663.293" stroke="#C5073D" stroke-width="2"/>
<line x1="314.507" y1="593.693" x2="360.107" y2="639.293" stroke="#C5073D" stroke-width="2"/>
<line x1="290.507" y1="604.893" x2="348.907" y2="663.293" stroke="#C5073D" stroke-width="2"/>
<line x1="290.507" y1="644.093" x2="308.907" y2="662.493" stroke="#C5073D" stroke-width="2"/>
<g clip-path="url(#clip2_231_2)">
<path d="M1307.14 578.328C1311.76 573.919 1316.22 569.355 1320.69 564.791C1328.69 556.604 1334.14 546.453 1342.08 538.21C1343.82 536.4 1345.79 534.481 1347.82 532.943C1348.5 532.422 1348.66 532.499 1348.38 533.149C1343.84 543.424 1336.47 553.032 1330.48 562.61C1313.38 589.921 1295.51 617.278 1282 646.426C1281.62 647.239 1278.69 651.637 1279.28 652.681C1279.48 653.043 1279.93 652.611 1279.97 652.392C1280.17 651.154 1281.26 649.719 1281.87 648.648C1285.38 642.391 1288.96 636.146 1292.91 630.132C1303.44 614.098 1313.32 597.769 1324.72 582.258C1328.67 576.878 1332.42 571.411 1336.17 565.902C1337.43 564.053 1338.78 561.647 1340.66 560.285C1341.62 559.586 1340.24 564.12 1340.05 564.791C1338.7 569.672 1336 573.972 1333.47 578.369C1323.26 596.187 1313.06 614.014 1303.3 632.066C1297.45 642.886 1291.98 653.773 1287.43 665.148C1286.17 668.303 1284.15 671.877 1283.87 675.311C1283.66 677.988 1284.69 678.012 1286.35 675.846C1303.84 653.011 1317.69 627.894 1332.27 603.325C1339.67 590.854 1347.03 578.36 1354.57 565.963C1357.61 560.954 1360.3 555.456 1363.93 550.801C1364.2 550.447 1366.54 547.445 1366.54 549.299C1366.54 552.654 1363.59 556.466 1362.18 559.318C1353.52 576.83 1344.66 594.237 1334.79 611.163C1327.5 623.66 1320.78 636.192 1314.69 649.265C1311.45 656.219 1308.75 663.267 1306.06 670.415C1305.25 672.569 1305.2 672.152 1306.15 670.333C1311.12 660.78 1318.05 651.998 1324.14 643.093C1333.12 629.955 1341.58 616.542 1350.19 603.181C1357.56 591.744 1365.03 580.351 1372.32 568.864C1375.02 564.598 1377.32 560.232 1380.64 556.356C1382.33 554.384 1383.43 553.54 1383.23 556.479C1382.96 560.427 1380.82 564.783 1379.26 568.371C1373.34 582.014 1366.2 595.193 1360.02 608.736C1354.54 620.764 1349.4 633.032 1344.93 645.439C1343 650.777 1341.25 656.228 1340.31 661.815C1340.26 662.124 1339.68 664.245 1340.4 663.338C1347.28 654.58 1353.59 645.437 1359.79 636.222C1377.45 609.932 1393.23 582.542 1410.44 555.985C1411.07 555.02 1412.38 552.26 1412.71 553.352C1412.94 554.108 1412.69 555.24 1412.49 555.965C1408.49 570.809 1401.81 585.116 1396.45 599.519C1391.75 612.136 1387.52 624.916 1383.36 637.703C1381.78 642.548 1380.92 647.348 1380.34 652.372C1380.22 653.402 1379.84 655.322 1380.86 653.421C1383.79 647.947 1387.03 642.583 1390.24 637.25C1393.84 631.255 1397.69 625.26 1401.95 619.66C1402.4 619.065 1404.84 615.158 1406.28 615.772C1407.35 616.226 1405.46 622.433 1405.36 623.302C1404.65 628.996 1403.31 634.567 1402.06 640.172C1399.91 649.745 1398.36 659.383 1396.81 669.057" stroke="#C5073D" stroke-width="2.4" stroke-linecap="round"/>
</g>
<rect x="1309.2" y="564.2" width="69.6" height="69.6" rx="6.8" stroke="#C5073D" stroke-width="2.4"/>
<g clip-path="url(#clip3_231_2)">
<path d="M209.142 86.3281C213.764 81.9191 218.222 77.3549 222.685 72.7908C230.691 64.604 236.145 54.4528 244.079 46.2099C245.821 44.4002 247.79 42.4806 249.816 40.9431C250.503 40.4221 250.663 40.4992 250.377 41.1489C245.842 51.4236 238.473 61.032 232.477 70.61C215.379 97.9212 197.515 125.278 183.995 154.426C183.618 155.239 180.689 159.637 181.278 160.681C181.483 161.043 181.932 160.611 181.968 160.392C182.173 159.154 183.265 157.719 183.866 156.648C187.376 150.391 190.956 144.146 194.908 138.132C205.443 122.098 215.315 105.769 226.718 90.2577C230.673 84.8783 234.424 79.4112 238.17 73.9018C239.427 72.0535 240.782 69.6469 242.656 68.2852C243.618 67.5856 242.238 72.1199 242.052 72.7908C240.698 77.672 237.996 81.972 235.474 86.3693C225.257 104.187 215.061 122.014 205.303 140.066C199.454 150.886 193.98 161.773 189.43 173.148C188.168 176.303 186.148 179.877 185.871 183.311C185.656 185.988 186.693 186.012 188.352 183.846C205.845 161.011 219.688 135.894 234.267 111.325C241.666 98.8538 249.029 86.3599 256.566 73.9635C259.612 68.9539 262.303 63.4561 265.926 58.8009C266.202 58.4466 268.536 55.4452 268.536 57.299C268.536 60.6538 265.589 64.4664 264.179 67.3183C255.521 84.8299 246.659 102.237 236.79 119.163C229.503 131.66 222.778 144.192 216.69 157.265C213.452 164.219 210.752 171.267 208.063 178.415C207.253 180.569 207.203 180.152 208.15 178.333C213.117 168.78 220.047 159.998 226.136 151.093C235.119 137.955 243.578 124.542 252.188 111.181C259.559 99.7436 267.032 88.3511 274.315 76.8643C277.021 72.5979 279.323 68.2317 282.64 64.3557C284.328 62.3837 285.43 61.5396 285.228 64.4791C284.957 68.4271 282.815 72.7827 281.26 76.3706C275.345 90.0139 268.201 103.193 262.023 116.736C256.535 128.764 251.4 141.032 246.926 153.439C245.001 158.777 243.246 164.228 242.311 169.815C242.259 170.124 241.683 172.245 242.397 171.338C249.283 162.58 255.593 153.437 261.785 144.222C279.453 117.932 295.229 90.5421 312.445 63.9854C313.071 63.0198 314.382 60.2603 314.709 61.352C314.936 62.1077 314.689 63.2403 314.494 63.9648C310.493 78.8087 303.812 93.1158 298.448 107.519C293.75 120.136 289.517 132.916 285.358 145.703C283.781 150.548 282.923 155.348 282.338 160.372C282.218 161.402 281.837 163.322 282.856 161.421C285.789 155.947 289.034 150.583 292.237 145.25C295.838 139.255 299.695 133.26 303.948 127.66C304.4 127.065 306.835 123.158 308.283 123.772C309.354 124.226 307.462 130.433 307.355 131.302C306.653 136.996 305.311 142.567 304.056 148.172C301.912 157.745 300.362 167.383 298.815 177.057" stroke="#C5073D" stroke-width="2.4" stroke-linecap="round"/>
</g>
<rect x="211.2" y="72.2" width="69.6" height="69.6" rx="6.8" stroke="#C5073D" stroke-width="2.4"/>
<defs>
<clipPath id="clip0_231_2">
<rect x="1291" y="158" width="71.2" height="71.2" rx="8" fill="white"/>
</clipPath>
<clipPath id="clip1_231_2">
<rect x="123" y="799" width="71.2" height="71.2" rx="8" fill="white"/>
</clipPath>
<clipPath id="clip2_231_2">
<rect x="1308" y="563" width="72" height="72" rx="8" fill="white"/>
</clipPath>
<clipPath id="clip3_231_2">
<rect x="210" y="71" width="72" height="72" rx="8" fill="white"/>
</clipPath>
</defs>
</svg>
