<svg width="17" height="16" viewBox="0 0 17 16" fill="none" xmlns="http://www.w3.org/2000/svg">
<path d="M3.77778 11.75V4.25C3.77778 4.0375 3.86829 3.85938 4.04931 3.71563C4.23032 3.57188 4.45463 3.5 4.72222 3.5C4.98981 3.5 5.21412 3.57188 5.39514 3.71563C5.57616 3.85938 5.66667 4.0375 5.66667 4.25V11.75C5.66667 11.9625 5.57616 12.1406 5.39514 12.2844C5.21412 12.4281 4.98981 12.5 4.72222 12.5C4.45463 12.5 4.23032 12.4281 4.04931 12.2844C3.86829 12.1406 3.77778 11.9625 3.77778 11.75ZM7.55556 14.75V1.25C7.55556 1.0375 7.64606 0.859375 7.82708 0.715625C8.0081 0.571875 8.23241 0.5 8.5 0.5C8.76759 0.5 8.9919 0.571875 9.17292 0.715625C9.35394 0.859375 9.44444 1.0375 9.44444 1.25V14.75C9.44444 14.9625 9.35394 15.1406 9.17292 15.2844C8.9919 15.4281 8.76759 15.5 8.5 15.5C8.23241 15.5 8.0081 15.4281 7.82708 15.2844C7.64606 15.1406 7.55556 14.9625 7.55556 14.75ZM0 8.75V7.25C0 7.0375 0.0905093 6.85938 0.271528 6.71563C0.452546 6.57188 0.676852 6.5 0.944444 6.5C1.21204 6.5 1.43634 6.57188 1.61736 6.71563C1.79838 6.85938 1.88889 7.0375 1.88889 7.25V8.75C1.88889 8.9625 1.79838 9.14062 1.61736 9.28438C1.43634 9.42813 1.21204 9.5 0.944444 9.5C0.676852 9.5 0.452546 9.42813 0.271528 9.28438C0.0905093 9.14062 0 8.9625 0 8.75ZM11.3333 11.75V4.25C11.3333 4.0375 11.4238 3.85938 11.6049 3.71563C11.7859 3.57188 12.0102 3.5 12.2778 3.5C12.5454 3.5 12.7697 3.57188 12.9507 3.71563C13.1317 3.85938 13.2222 4.0375 13.2222 4.25V11.75C13.2222 11.9625 13.1317 12.1406 12.9507 12.2844C12.7697 12.4281 12.5454 12.5 12.2778 12.5C12.0102 12.5 11.7859 12.4281 11.6049 12.2844C11.4238 12.1406 11.3333 11.9625 11.3333 11.75ZM15.1111 8.75V7.25C15.1111 7.0375 15.2016 6.85938 15.3826 6.71563C15.5637 6.57188 15.788 6.5 16.0556 6.5C16.3231 6.5 16.5475 6.57188 16.7285 6.71563C16.9095 6.85938 17 7.0375 17 7.25V8.75C17 8.9625 16.9095 9.14062 16.7285 9.28438C16.5475 9.42813 16.3231 9.5 16.0556 9.5C15.788 9.5 15.5637 9.42813 15.3826 9.28438C15.2016 9.14062 15.1111 8.9625 15.1111 8.75Z" fill="#EBEBEB"/>
</svg>
