<svg width="36" height="36" viewBox="0 0 36 36" fill="none" xmlns="http://www.w3.org/2000/svg">
<rect x="0.35" y="0.35" width="35.3" height="35.3" rx="17.65" fill="#13161D"/>
<rect x="0.35" y="0.35" width="35.3" height="35.3" rx="17.65" stroke="#25272E" stroke-width="0.7"/>
<path d="M22.1666 26.632C21.1986 26.632 20.4579 26.5147 19.9446 26.28C19.4459 26.0453 19.1013 25.7227 18.9106 25.312C18.7346 24.8867 18.6466 24.41 18.6466 23.882V23.53C18.6466 23.2807 18.6466 23.1267 18.6466 23.068C18.6466 22.9947 18.6466 22.9433 18.6466 22.914C18.6466 22.8847 18.6466 22.826 18.6466 22.738V22.716C18.6466 22.6133 18.6466 22.5547 18.6466 22.54C18.6466 22.5107 18.6466 22.4593 18.6466 22.386C18.6466 22.298 18.6466 22.1367 18.6466 21.902V20.78C18.6466 20.5307 18.6466 20.3767 18.6466 20.318C18.6466 20.2447 18.6466 20.1933 18.6466 20.164C18.6466 20.1347 18.6466 20.076 18.6466 19.988V19.966C18.6466 19.8633 18.6466 19.8047 18.6466 19.79C18.6466 19.7607 18.6466 19.7093 18.6466 19.636C18.6466 19.548 18.6466 19.3867 18.6466 19.152V16.952C18.6466 16.468 18.5293 16.0793 18.2946 15.786C18.0746 15.4927 17.7153 15.346 17.2166 15.346H15.8966C15.8966 15.8593 16.0066 16.2407 16.2266 16.49C16.4466 16.7247 16.8353 16.842 17.3926 16.842V26.5H10.9466V23.53C10.9466 23.2807 10.9466 23.1267 10.9466 23.068C10.9466 22.9947 10.9466 22.9433 10.9466 22.914C10.9466 22.8847 10.9466 22.826 10.9466 22.738V22.716C10.9466 22.6133 10.9466 22.5547 10.9466 22.54C10.9466 22.5107 10.9466 22.4593 10.9466 22.386C10.9466 22.298 10.9466 22.1367 10.9466 21.902V20.78C10.9466 20.5307 10.9466 20.3767 10.9466 20.318C10.9466 20.2447 10.9466 20.1933 10.9466 20.164C10.9466 20.1347 10.9466 20.076 10.9466 19.988V19.966C10.9466 19.8633 10.9466 19.8047 10.9466 19.79C10.9466 19.7607 10.9466 19.7093 10.9466 19.636C10.9466 19.548 10.9466 19.3867 10.9466 19.152V16.952C11.5039 16.952 11.8853 16.842 12.0906 16.622C12.3106 16.3873 12.4206 16.05 12.4206 15.61V13.982C12.4206 13.542 12.3106 13.19 12.0906 12.926C11.8853 12.6473 11.5039 12.508 10.9466 12.508V10.748H20.4286C20.6486 10.748 20.9126 10.7627 21.2206 10.792C21.5433 10.8213 21.8586 10.902 22.1666 11.034C22.4893 11.1513 22.7533 11.342 22.9586 11.606C23.1639 11.8553 23.2666 12.2147 23.2666 12.684C23.2666 13.1827 23.1346 13.564 22.8706 13.828C22.6213 14.0773 22.2986 14.2533 21.9026 14.356C21.5213 14.444 21.1326 14.488 20.7366 14.488H20.5606V14.708C21.2206 14.708 21.7046 14.7887 22.0126 14.95C22.3206 15.0967 22.5406 15.28 22.6726 15.5C22.8193 15.72 22.9586 15.94 23.0906 16.16C23.2373 16.38 23.4499 16.5707 23.7286 16.732C24.0073 16.8787 24.4546 16.952 25.0706 16.952V26.5C24.8506 26.5293 24.4619 26.5587 23.9046 26.588C23.3619 26.6173 22.7826 26.632 22.1666 26.632ZM15.8966 13.938H18.2066C18.4853 13.938 18.7053 13.8793 18.8666 13.762C19.0279 13.63 19.1086 13.4467 19.1086 13.212C19.1086 13.0067 19.0353 12.838 18.8886 12.706C18.7419 12.574 18.5146 12.508 18.2066 12.508H15.8966V13.938Z" fill="#C5073D"/>
</svg>
