<svg width="200" height="195" viewBox="0 0 200 195" fill="none" xmlns="http://www.w3.org/2000/svg">
<rect width="90" height="90" rx="10" fill="#191C24"/>
<rect x="111.5" y="1.5" width="87" height="87" rx="8.5" stroke="#C5073D" stroke-width="3"/>
<line x1="198.884" y1="59.8839" x2="169.884" y2="88.8839" stroke="#C5073D" stroke-width="2.5"/>
<line x1="197.884" y1="17.8839" x2="126.884" y2="88.8839" stroke="#C5073D" stroke-width="2.5"/>
<line x1="166.884" y1="1.88388" x2="110.884" y2="57.8839" stroke="#C5073D" stroke-width="2.5"/>
<line x1="198.884" y1="72.8839" x2="182.884" y2="88.8839" stroke="#C5073D" stroke-width="2.5"/>
<line x1="198.884" y1="45.8839" x2="155.884" y2="88.8839" stroke="#C5073D" stroke-width="2.5"/>
<line x1="195.884" y1="5.88388" x2="114.884" y2="86.8839" stroke="#C5073D" stroke-width="2.5"/>
<line x1="151.884" y1="0.883883" x2="110.884" y2="41.8839" stroke="#C5073D" stroke-width="2.5"/>
<line x1="197.884" y1="31.8839" x2="140.884" y2="88.8839" stroke="#C5073D" stroke-width="2.5"/>
<line x1="183.884" y1="1.88388" x2="110.884" y2="74.8839" stroke="#C5073D" stroke-width="2.5"/>
<line x1="134.884" y1="1.88388" x2="111.884" y2="24.8839" stroke="#C5073D" stroke-width="2.5"/>
<g clip-path="url(#clip0_67_2)">
<path d="M-1.07271 124.159C4.7046 118.648 10.2779 112.943 15.857 107.238C25.8644 97.0043 32.6815 84.3153 42.5994 74.0117C44.7769 71.7495 47.2376 69.35 49.7702 67.4282C50.6285 66.7769 50.8296 66.8733 50.4711 67.6854C44.8023 80.5288 35.5911 92.5393 28.0959 104.512C6.72379 138.651 -15.606 172.847 -32.5058 209.282C-32.9773 210.298 -36.6388 215.795 -35.9025 217.1C-35.6464 217.554 -35.085 217.012 -35.0399 216.74C-34.7835 215.191 -33.4186 213.398 -32.6676 212.059C-28.2795 204.238 -23.8043 196.432 -18.865 188.914C-5.69583 168.871 6.64436 148.46 20.8981 129.071C25.8414 122.347 30.5302 115.513 35.2128 108.626C36.7838 106.316 38.4782 103.308 40.8201 101.606C42.0233 100.731 40.298 106.399 40.0653 107.238C38.3722 113.339 34.9949 118.714 31.8431 124.211C19.072 146.483 6.32697 168.767 -5.87124 191.332C-13.1825 204.856 -20.025 218.466 -25.7124 232.684C-27.2899 236.628 -29.8143 241.096 -30.1605 245.388C-30.4302 248.734 -29.134 248.764 -27.0603 246.057C-5.19409 217.513 12.1102 186.117 30.3334 155.405C39.5832 139.817 48.7869 124.199 58.2081 108.704C62.0153 102.442 65.3792 95.5694 69.9079 89.7504C70.2525 89.3076 73.1698 85.5557 73.1698 87.873C73.1698 92.0666 69.4868 96.8323 67.7243 100.397C56.9016 122.287 45.8245 144.046 33.4875 165.203C24.3788 180.825 15.9722 196.49 8.36262 212.831C4.31501 221.523 0.939953 230.332 -2.42061 239.268C-3.4333 241.96 -3.49573 241.44 -2.31278 239.165C3.89667 227.224 12.5595 216.247 20.1702 205.116C31.3991 188.693 41.9726 171.927 52.7356 155.225C61.9487 140.929 71.2905 126.688 80.3946 112.33C83.776 106.997 86.6544 101.539 90.8004 96.6939C92.9098 94.2289 94.2879 93.1738 94.0353 96.8482C93.6961 101.783 91.0194 107.228 89.0751 111.713C81.6814 128.767 72.7512 145.241 65.0285 162.169C58.1695 177.204 51.7502 192.539 46.1578 208.048C43.7514 214.721 41.5577 221.535 40.3888 228.518C40.3242 228.904 39.6044 231.556 40.4966 230.421C49.1035 219.474 56.9911 208.045 64.7319 196.526C86.8163 163.665 106.537 129.427 128.056 96.231C128.839 95.024 130.478 91.5747 130.887 92.9392C131.17 93.8838 130.862 95.2996 130.617 96.2053C125.616 114.76 117.265 132.644 110.561 150.648C104.687 166.419 99.3971 182.394 94.1971 198.378C92.227 204.434 91.1544 210.435 90.423 216.714C90.2731 218.001 89.7969 220.402 91.07 218.026C94.7361 211.183 98.7927 204.478 102.797 197.812C107.298 190.318 112.119 182.824 117.435 175.824C118 175.081 121.044 170.197 122.854 170.964C124.193 171.532 121.828 179.291 121.694 180.376C120.816 187.495 119.139 194.458 117.57 201.464C114.89 213.43 112.953 225.478 111.019 237.57" stroke="#C5073D" stroke-width="3" stroke-linecap="round"/>
</g>
<rect x="1.5" y="106.5" width="87" height="87" rx="8.5" stroke="#C5073D" stroke-width="3"/>
<defs>
<clipPath id="clip0_67_2">
<rect y="105" width="90" height="90" rx="10" fill="white"/>
</clipPath>
</defs>
</svg>
