<svg width="16" height="20" viewBox="0 0 16 20" fill="none" xmlns="http://www.w3.org/2000/svg">
<path d="M6.25 20C4.51667 20 3.04167 19.3917 1.825 18.175C0.608333 16.9583 0 15.4833 0 13.75V4.5C0 3.25 0.4375 2.1875 1.3125 1.3125C2.1875 0.4375 3.25 0 4.5 0C5.75 0 6.8125 0.4375 7.6875 1.3125C8.5625 2.1875 9 3.25 9 4.5V11C9 11.2833 8.90417 11.5208 8.7125 11.7125C8.52083 11.9042 8.28333 12 8 12C7.71667 12 7.47917 11.9042 7.2875 11.7125C7.09583 11.5208 7 11.2833 7 11V4.5C6.98333 3.8 6.7375 3.20833 6.2625 2.725C5.7875 2.24167 5.2 2 4.5 2C3.8 2 3.20833 2.24167 2.725 2.725C2.24167 3.20833 2 3.8 2 4.5V13.75C1.98333 14.9333 2.39167 15.9375 3.225 16.7625C4.05833 17.5875 5.06667 18 6.25 18C6.53333 18 6.8 17.9708 7.05 17.9125C7.3 17.8542 7.54167 17.7833 7.775 17.7C8.04167 17.6 8.3 17.6042 8.55 17.7125C8.8 17.8208 8.975 18.0083 9.075 18.275C9.175 18.5417 9.17083 18.8 9.0625 19.05C8.95417 19.3 8.76667 19.475 8.5 19.575C8.15 19.7083 7.7875 19.8125 7.4125 19.8875C7.0375 19.9625 6.65 20 6.25 20ZM11.5 19C11.2167 19 10.9792 18.9042 10.7875 18.7125C10.5958 18.5208 10.5 18.2833 10.5 18V16H8.5C8.21667 16 7.97917 15.9042 7.7875 15.7125C7.59583 15.5208 7.5 15.2833 7.5 15C7.5 14.7167 7.59583 14.4792 7.7875 14.2875C7.97917 14.0958 8.21667 14 8.5 14H10.5V12C10.5 11.7167 10.5958 11.4792 10.7875 11.2875C10.9792 11.0958 11.2167 11 11.5 11C11.7833 11 12.0208 11.0958 12.2125 11.2875C12.4042 11.4792 12.5 11.7167 12.5 12V14H14.5C14.7833 14 15.0208 14.0958 15.2125 14.2875C15.4042 14.4792 15.5 14.7167 15.5 15C15.5 15.2833 15.4042 15.5208 15.2125 15.7125C15.0208 15.9042 14.7833 16 14.5 16H12.5V18C12.5 18.2833 12.4042 18.5208 12.2125 18.7125C12.0208 18.9042 11.7833 19 11.5 19ZM4.5 15C4.21667 15 3.97917 14.9042 3.7875 14.7125C3.59583 14.5208 3.5 14.2833 3.5 14V5C3.5 4.71667 3.59583 4.47917 3.7875 4.2875C3.97917 4.09583 4.21667 4 4.5 4C4.78333 4 5.02083 4.09583 5.2125 4.2875C5.40417 4.47917 5.5 4.71667 5.5 5V14C5.5 14.2833 5.40417 14.5208 5.2125 14.7125C5.02083 14.9042 4.78333 15 4.5 15ZM11.5 9C11.2167 9 10.9792 8.90417 10.7875 8.7125C10.5958 8.52083 10.5 8.28333 10.5 8V5C10.5 4.71667 10.5958 4.47917 10.7875 4.2875C10.9792 4.09583 11.2167 4 11.5 4C11.7833 4 12.0208 4.09583 12.2125 4.2875C12.4042 4.47917 12.5 4.71667 12.5 5V8C12.5 8.28333 12.4042 8.52083 12.2125 8.7125C12.0208 8.90417 11.7833 9 11.5 9Z" fill="#AAAAAA"/>
</svg>
