<svg width="140" height="46" viewBox="0 0 140 46" fill="none" xmlns="http://www.w3.org/2000/svg">
<path d="M8.05725 37.21C6.42391 37.21 5.01225 36.755 3.82225 35.845C2.65558 34.9117 1.90891 33.7217 1.58225 32.275C1.55891 32.1583 1.53558 32.0417 1.51225 31.925C1.48891 31.785 1.46558 31.645 1.44225 31.505C1.44225 31.3417 1.44225 31.19 1.44225 31.05V31.015C1.44225 30.8517 1.44225 30.7583 1.44225 30.735C1.44225 30.6883 1.44225 30.6067 1.44225 30.49C1.44225 30.35 1.44225 30.0817 1.44225 29.685V27.9C1.44225 27.5033 1.44225 27.2583 1.44225 27.165C1.44225 27.0483 1.44225 26.9667 1.44225 26.92C1.44225 26.8733 1.44225 26.78 1.44225 26.64V26.605C1.44225 26.4417 1.44225 26.3483 1.44225 26.325C1.44225 26.2783 1.44225 26.1967 1.44225 26.08C1.44225 25.94 1.44225 25.6833 1.44225 25.31V18.24C1.44225 16.98 1.73391 15.86 2.31725 14.88C2.90058 13.9 3.68225 13.13 4.66225 12.57C5.66558 12.01 6.79725 11.73 8.05725 11.73H15.3372C16.4106 11.73 17.3672 11.975 18.2072 12.465C19.0472 12.955 19.7122 13.62 20.2022 14.46C20.7156 15.3 20.9722 16.2333 20.9722 17.26H15.2322C15.2322 15.58 14.4389 14.74 12.8522 14.74H10.8922C9.30558 14.74 8.51225 15.5217 8.51225 17.085V19.78C8.51225 21.0167 9.04891 21.635 10.1222 21.635C10.4956 21.635 10.8339 21.5067 11.1372 21.25C11.4639 20.9933 11.6622 20.3983 11.7322 19.465H11.9772C12.0472 20.3983 12.2456 20.9933 12.5722 21.25C12.8989 21.5067 13.2489 21.635 13.6222 21.635C14.6956 21.635 15.2322 20.9233 15.2322 19.5H20.9722V25.31C20.9722 25.6833 20.9722 25.94 20.9722 26.08C20.9722 26.1967 20.9722 26.2783 20.9722 26.325C20.9722 26.3483 20.9722 26.4417 20.9722 26.605V26.64C20.9722 26.78 20.9722 26.8733 20.9722 26.92C20.9722 26.9667 20.9722 27.0483 20.9722 27.165C20.9722 27.2583 20.9722 27.5033 20.9722 27.9V29.685C20.9722 30.0583 20.9722 30.315 20.9722 30.455C20.9722 30.5717 20.9722 30.6533 20.9722 30.7C20.9722 30.7233 20.9722 30.8167 20.9722 30.98V31.015C20.9722 31.155 20.9606 31.3067 20.9372 31.47C20.9372 31.6333 20.9256 31.785 20.9022 31.925C20.8789 32.0417 20.8556 32.1583 20.8322 32.275C20.5056 33.7217 19.7472 34.9117 18.5572 35.845C17.3906 36.755 15.9906 37.21 14.3572 37.21H8.05725ZM23.0096 37V32.275C23.0096 31.8783 23.0096 31.6333 23.0096 31.54C23.0096 31.4233 23.0096 31.3417 23.0096 31.295C23.0096 31.2483 23.0096 31.155 23.0096 31.015V30.98C23.0096 30.8167 23.0096 30.7233 23.0096 30.7C23.0096 30.6533 23.0096 30.5717 23.0096 30.455C23.0096 30.315 23.0096 30.0583 23.0096 29.685V27.9C23.0096 27.5033 23.0096 27.2583 23.0096 27.165C23.0096 27.0483 23.0096 26.9667 23.0096 26.92C23.0096 26.8733 23.0096 26.78 23.0096 26.64V26.605C23.0096 26.4417 23.0096 26.3483 23.0096 26.325C23.0096 26.2783 23.0096 26.1967 23.0096 26.08C23.0096 25.94 23.0096 25.6833 23.0096 25.31V21.81C23.8963 21.81 24.503 21.6 24.8296 21.18C25.1796 20.76 25.3546 20.2 25.3546 19.5V17.26C25.3546 16.56 25.1796 15.965 24.8296 15.475C24.503 14.985 23.8963 14.74 23.0096 14.74V11.94H33.2296V14.915C32.4363 14.915 31.8413 15.09 31.4446 15.44C31.0713 15.79 30.8846 16.2683 30.8846 16.875H37.6046C37.6046 16.2683 37.4063 15.79 37.0096 15.44C36.6363 15.09 36.053 14.915 35.2596 14.915V11.94H45.4796V14.74C44.6163 14.74 44.0096 14.985 43.6596 15.475C43.3096 15.965 43.1346 16.56 43.1346 17.26V19.5C43.1346 20.2 43.3096 20.76 43.6596 21.18C44.0096 21.6 44.6163 21.81 45.4796 21.81V37H35.2596V32.275C35.2596 31.8783 35.2596 31.6333 35.2596 31.54C35.2596 31.4233 35.2596 31.3417 35.2596 31.295C35.2596 31.2483 35.2596 31.155 35.2596 31.015V30.98C35.2596 30.8167 35.2596 30.7233 35.2596 30.7C35.2596 30.6533 35.2596 30.5717 35.2596 30.455C35.2596 30.315 35.2596 30.0583 35.2596 29.685V27.9C35.2596 27.5033 35.2596 27.2583 35.2596 27.165C35.2596 27.0483 35.2596 26.9667 35.2596 26.92C35.2596 26.8733 35.2596 26.78 35.2596 26.64V26.605C35.2596 26.4417 35.2596 26.3483 35.2596 26.325C35.2596 26.2783 35.2596 26.1967 35.2596 26.08C35.2596 25.94 35.2596 25.6833 35.2596 25.31V21.635C36.1463 21.635 36.753 21.425 37.0796 21.005C37.4296 20.585 37.6046 20.025 37.6046 19.325H30.8846C30.8846 20.025 31.0596 20.585 31.4096 21.005C31.7596 21.425 32.3663 21.635 33.2296 21.635V37H23.0096ZM47.5515 37V32.275C47.5515 31.8783 47.5515 31.6333 47.5515 31.54C47.5515 31.4233 47.5515 31.3417 47.5515 31.295C47.5515 31.2483 47.5515 31.155 47.5515 31.015V30.98C47.5515 30.8167 47.5515 30.7233 47.5515 30.7C47.5515 30.6533 47.5515 30.5717 47.5515 30.455C47.5515 30.315 47.5515 30.0583 47.5515 29.685V27.9C47.5515 27.5033 47.5515 27.2583 47.5515 27.165C47.5515 27.0483 47.5515 26.9667 47.5515 26.92C47.5515 26.8733 47.5515 26.78 47.5515 26.64V26.605C47.5515 26.4417 47.5515 26.3367 47.5515 26.29C47.5515 26.2433 47.5515 26.1617 47.5515 26.045C47.5515 25.9283 47.5515 25.6833 47.5515 25.31V21.81C48.4381 21.81 49.0448 21.6 49.3715 21.18C49.7215 20.76 49.8965 20.2 49.8965 19.5V17.26C49.8965 16.56 49.7215 15.965 49.3715 15.475C49.0215 14.985 48.4031 14.74 47.5165 14.74V11.94H65.4365V17.085H62.2865C62.2865 16.385 62.1115 15.825 61.7615 15.405C61.4348 14.9617 60.8281 14.74 59.9415 14.74H55.7065V16.875H59.8015V19.325H55.7065V21.635H60.1515C61.0381 21.635 61.6448 21.46 61.9715 21.11C62.3215 20.7367 62.4965 20.2 62.4965 19.5H65.6465V25.31C65.6465 25.6833 65.6465 25.94 65.6465 26.08C65.6465 26.1967 65.6465 26.2783 65.6465 26.325C65.6465 26.3483 65.6465 26.4417 65.6465 26.605V26.64C65.6465 26.78 65.6465 26.8733 65.6465 26.92C65.6465 26.9667 65.6465 27.0483 65.6465 27.165C65.6465 27.2583 65.6465 27.5033 65.6465 27.9V29.685C65.6465 30.0583 65.6465 30.315 65.6465 30.455C65.6465 30.5717 65.6465 30.6533 65.6465 30.7C65.6465 30.7233 65.6465 30.8167 65.6465 30.98V31.015C65.6465 31.155 65.6465 31.2483 65.6465 31.295C65.6465 31.3417 65.6465 31.4233 65.6465 31.54C65.6465 31.6333 65.6465 31.8783 65.6465 32.275V37H47.5515ZM116.838 37V32.275C116.838 31.8783 116.838 31.6333 116.838 31.54C116.838 31.4233 116.838 31.3417 116.838 31.295C116.838 31.2483 116.838 31.155 116.838 31.015V30.98C116.838 30.8167 116.838 30.7233 116.838 30.7C116.838 30.6533 116.838 30.5717 116.838 30.455C116.838 30.315 116.838 30.0583 116.838 29.685V27.9C116.838 27.5033 116.838 27.2583 116.838 27.165C116.838 27.0483 116.838 26.9667 116.838 26.92C116.838 26.8733 116.838 26.78 116.838 26.64V26.605C116.838 26.4417 116.838 26.3483 116.838 26.325C116.838 26.2783 116.838 26.1967 116.838 26.08C116.838 25.94 116.838 25.6833 116.838 25.31V21.635H128.108C128.738 21.635 129.263 21.4483 129.683 21.075C130.126 20.7017 130.348 20.2817 130.348 19.815L119.043 18.87V17.155C119.043 16.455 118.856 15.8833 118.483 15.44C118.133 14.9733 117.514 14.74 116.628 14.74V11.94H126.393V14.915C125.319 14.915 124.783 15.5333 124.783 16.77L130.348 17.225C130.348 16.385 130.173 15.79 129.823 15.44C129.473 15.09 128.948 14.915 128.248 14.915V11.94H138.328V14.74C137.464 14.74 136.858 14.985 136.508 15.475C136.158 15.965 135.983 16.56 135.983 17.26V19.5C135.983 20.2 136.158 20.76 136.508 21.18C136.858 21.6 137.464 21.81 138.328 21.81V25.31C138.328 25.6833 138.328 25.94 138.328 26.08C138.328 26.1967 138.328 26.2783 138.328 26.325C138.328 26.3483 138.328 26.4417 138.328 26.605V26.64C138.328 26.78 138.328 26.8733 138.328 26.92C138.328 26.9667 138.328 27.0483 138.328 27.165C138.328 27.2583 138.328 27.5033 138.328 27.9V29.685C138.328 30.0583 138.328 30.315 138.328 30.455C138.328 30.5717 138.328 30.6533 138.328 30.7C138.328 30.7233 138.328 30.8167 138.328 30.98V31.015C138.328 31.155 138.316 31.3067 138.293 31.47C138.293 31.61 138.281 31.75 138.258 31.89C138.234 32.03 138.211 32.1583 138.188 32.275C137.861 33.7217 137.103 34.8767 135.913 35.74C134.746 36.58 133.346 37 131.713 37H116.838Z" fill="white"/>
<path d="M85.5325 37.21C83.9925 37.21 82.8141 37.0233 81.9975 36.65C81.2041 36.2767 80.6558 35.7633 80.3525 35.11C80.0725 34.4333 79.9325 33.675 79.9325 32.835V32.275C79.9325 31.8783 79.9325 31.6333 79.9325 31.54C79.9325 31.4233 79.9325 31.3417 79.9325 31.295C79.9325 31.2483 79.9325 31.155 79.9325 31.015V30.98C79.9325 30.8167 79.9325 30.7233 79.9325 30.7C79.9325 30.6533 79.9325 30.5717 79.9325 30.455C79.9325 30.315 79.9325 30.0583 79.9325 29.685V27.9C79.9325 27.5033 79.9325 27.2583 79.9325 27.165C79.9325 27.0483 79.9325 26.9667 79.9325 26.92C79.9325 26.8733 79.9325 26.78 79.9325 26.64V26.605C79.9325 26.4417 79.9325 26.3483 79.9325 26.325C79.9325 26.2783 79.9325 26.1967 79.9325 26.08C79.9325 25.94 79.9325 25.6833 79.9325 25.31V21.81C79.9325 21.04 79.7458 20.4217 79.3725 19.955C79.0225 19.4883 78.4508 19.255 77.6575 19.255H75.5575C75.5575 20.0717 75.7325 20.6783 76.0825 21.075C76.4325 21.4483 77.0508 21.635 77.9375 21.635V37H67.6825V32.275C67.6825 31.8783 67.6825 31.6333 67.6825 31.54C67.6825 31.4233 67.6825 31.3417 67.6825 31.295C67.6825 31.2483 67.6825 31.155 67.6825 31.015V30.98C67.6825 30.8167 67.6825 30.7233 67.6825 30.7C67.6825 30.6533 67.6825 30.5717 67.6825 30.455C67.6825 30.315 67.6825 30.0583 67.6825 29.685V27.9C67.6825 27.5033 67.6825 27.2583 67.6825 27.165C67.6825 27.0483 67.6825 26.9667 67.6825 26.92C67.6825 26.8733 67.6825 26.78 67.6825 26.64V26.605C67.6825 26.4417 67.6825 26.3483 67.6825 26.325C67.6825 26.2783 67.6825 26.1967 67.6825 26.08C67.6825 25.94 67.6825 25.6833 67.6825 25.31V21.81C68.5691 21.81 69.1758 21.635 69.5025 21.285C69.8525 20.9117 70.0275 20.375 70.0275 19.675V17.085C70.0275 16.385 69.8525 15.825 69.5025 15.405C69.1758 14.9617 68.5691 14.74 67.6825 14.74V11.94H82.7675C83.1175 11.94 83.5375 11.9633 84.0275 12.01C84.5408 12.0567 85.0425 12.185 85.5325 12.395C86.0458 12.5817 86.4658 12.885 86.7925 13.305C87.1191 13.7017 87.2825 14.2733 87.2825 15.02C87.2825 15.8133 87.0725 16.42 86.6525 16.84C86.2558 17.2367 85.7425 17.5167 85.1125 17.68C84.5058 17.82 83.8875 17.89 83.2575 17.89H82.9775V18.24C84.0275 18.24 84.7975 18.3683 85.2875 18.625C85.7775 18.8583 86.1275 19.15 86.3375 19.5C86.5708 19.85 86.7925 20.2 87.0025 20.55C87.2358 20.9 87.5741 21.2033 88.0175 21.46C88.4608 21.6933 89.1725 21.81 90.1525 21.81V37C89.8025 37.0467 89.1841 37.0933 88.2975 37.14C87.4341 37.1867 86.5125 37.21 85.5325 37.21ZM75.5575 17.015H79.2325C79.6758 17.015 80.0258 16.9217 80.2825 16.735C80.5391 16.525 80.6675 16.2333 80.6675 15.86C80.6675 15.5333 80.5508 15.265 80.3175 15.055C80.0841 14.845 79.7225 14.74 79.2325 14.74H75.5575V17.015ZM110.005 37.21C108.465 37.21 107.287 37.0233 106.47 36.65C105.677 36.2767 105.128 35.7633 104.825 35.11C104.545 34.4333 104.405 33.675 104.405 32.835V32.275C104.405 31.8783 104.405 31.6333 104.405 31.54C104.405 31.4233 104.405 31.3417 104.405 31.295C104.405 31.2483 104.405 31.155 104.405 31.015V30.98C104.405 30.8167 104.405 30.7233 104.405 30.7C104.405 30.6533 104.405 30.5717 104.405 30.455C104.405 30.315 104.405 30.0583 104.405 29.685V27.9C104.405 27.5033 104.405 27.2583 104.405 27.165C104.405 27.0483 104.405 26.9667 104.405 26.92C104.405 26.8733 104.405 26.78 104.405 26.64V26.605C104.405 26.4417 104.405 26.3483 104.405 26.325C104.405 26.2783 104.405 26.1967 104.405 26.08C104.405 25.94 104.405 25.6833 104.405 25.31V21.81C104.405 21.04 104.218 20.4217 103.845 19.955C103.495 19.4883 102.923 19.255 102.13 19.255H100.03C100.03 20.0717 100.205 20.6783 100.555 21.075C100.905 21.4483 101.523 21.635 102.41 21.635V37H92.1551V32.275C92.1551 31.8783 92.1551 31.6333 92.1551 31.54C92.1551 31.4233 92.1551 31.3417 92.1551 31.295C92.1551 31.2483 92.1551 31.155 92.1551 31.015V30.98C92.1551 30.8167 92.1551 30.7233 92.1551 30.7C92.1551 30.6533 92.1551 30.5717 92.1551 30.455C92.1551 30.315 92.1551 30.0583 92.1551 29.685V27.9C92.1551 27.5033 92.1551 27.2583 92.1551 27.165C92.1551 27.0483 92.1551 26.9667 92.1551 26.92C92.1551 26.8733 92.1551 26.78 92.1551 26.64V26.605C92.1551 26.4417 92.1551 26.3483 92.1551 26.325C92.1551 26.2783 92.1551 26.1967 92.1551 26.08C92.1551 25.94 92.1551 25.6833 92.1551 25.31V21.81C93.0418 21.81 93.6485 21.635 93.9751 21.285C94.3251 20.9117 94.5001 20.375 94.5001 19.675V17.085C94.5001 16.385 94.3251 15.825 93.9751 15.405C93.6485 14.9617 93.0418 14.74 92.1551 14.74V11.94H107.24C107.59 11.94 108.01 11.9633 108.5 12.01C109.013 12.0567 109.515 12.185 110.005 12.395C110.518 12.5817 110.938 12.885 111.265 13.305C111.592 13.7017 111.755 14.2733 111.755 15.02C111.755 15.8133 111.545 16.42 111.125 16.84C110.728 17.2367 110.215 17.5167 109.585 17.68C108.978 17.82 108.36 17.89 107.73 17.89H107.45V18.24C108.5 18.24 109.27 18.3683 109.76 18.625C110.25 18.8583 110.6 19.15 110.81 19.5C111.043 19.85 111.265 20.2 111.475 20.55C111.708 20.9 112.047 21.2033 112.49 21.46C112.933 21.6933 113.645 21.81 114.625 21.81V37C114.275 37.0467 113.657 37.0933 112.77 37.14C111.907 37.1867 110.985 37.21 110.005 37.21ZM100.03 17.015H103.705C104.148 17.015 104.498 16.9217 104.755 16.735C105.012 16.525 105.14 16.2333 105.14 15.86C105.14 15.5333 105.023 15.265 104.79 15.055C104.557 14.845 104.195 14.74 103.705 14.74H100.03V17.015Z" fill="#13161D"/>
<path d="M85.5325 37.21C83.9925 37.21 82.8141 37.0233 81.9975 36.65C81.2041 36.2767 80.6558 35.7633 80.3525 35.11C80.0725 34.4333 79.9325 33.675 79.9325 32.835V32.275C79.9325 31.8783 79.9325 31.6333 79.9325 31.54C79.9325 31.4233 79.9325 31.3417 79.9325 31.295C79.9325 31.2483 79.9325 31.155 79.9325 31.015V30.98C79.9325 30.8167 79.9325 30.7233 79.9325 30.7C79.9325 30.6533 79.9325 30.5717 79.9325 30.455C79.9325 30.315 79.9325 30.0583 79.9325 29.685V27.9C79.9325 27.5033 79.9325 27.2583 79.9325 27.165C79.9325 27.0483 79.9325 26.9667 79.9325 26.92C79.9325 26.8733 79.9325 26.78 79.9325 26.64V26.605C79.9325 26.4417 79.9325 26.3483 79.9325 26.325C79.9325 26.2783 79.9325 26.1967 79.9325 26.08C79.9325 25.94 79.9325 25.6833 79.9325 25.31V21.81C79.9325 21.04 79.7458 20.4217 79.3725 19.955C79.0225 19.4883 78.4508 19.255 77.6575 19.255H75.5575C75.5575 20.0717 75.7325 20.6783 76.0825 21.075C76.4325 21.4483 77.0508 21.635 77.9375 21.635V37H67.6825V32.275C67.6825 31.8783 67.6825 31.6333 67.6825 31.54C67.6825 31.4233 67.6825 31.3417 67.6825 31.295C67.6825 31.2483 67.6825 31.155 67.6825 31.015V30.98C67.6825 30.8167 67.6825 30.7233 67.6825 30.7C67.6825 30.6533 67.6825 30.5717 67.6825 30.455C67.6825 30.315 67.6825 30.0583 67.6825 29.685V27.9C67.6825 27.5033 67.6825 27.2583 67.6825 27.165C67.6825 27.0483 67.6825 26.9667 67.6825 26.92C67.6825 26.8733 67.6825 26.78 67.6825 26.64V26.605C67.6825 26.4417 67.6825 26.3483 67.6825 26.325C67.6825 26.2783 67.6825 26.1967 67.6825 26.08C67.6825 25.94 67.6825 25.6833 67.6825 25.31V21.81C68.5691 21.81 69.1758 21.635 69.5025 21.285C69.8525 20.9117 70.0275 20.375 70.0275 19.675V17.085C70.0275 16.385 69.8525 15.825 69.5025 15.405C69.1758 14.9617 68.5691 14.74 67.6825 14.74V11.94H82.7675C83.1175 11.94 83.5375 11.9633 84.0275 12.01C84.5408 12.0567 85.0425 12.185 85.5325 12.395C86.0458 12.5817 86.4658 12.885 86.7925 13.305C87.1191 13.7017 87.2825 14.2733 87.2825 15.02C87.2825 15.8133 87.0725 16.42 86.6525 16.84C86.2558 17.2367 85.7425 17.5167 85.1125 17.68C84.5058 17.82 83.8875 17.89 83.2575 17.89H82.9775V18.24C84.0275 18.24 84.7975 18.3683 85.2875 18.625C85.7775 18.8583 86.1275 19.15 86.3375 19.5C86.5708 19.85 86.7925 20.2 87.0025 20.55C87.2358 20.9 87.5741 21.2033 88.0175 21.46C88.4608 21.6933 89.1725 21.81 90.1525 21.81V37C89.8025 37.0467 89.1841 37.0933 88.2975 37.14C87.4341 37.1867 86.5125 37.21 85.5325 37.21ZM75.5575 17.015H79.2325C79.6758 17.015 80.0258 16.9217 80.2825 16.735C80.5391 16.525 80.6675 16.2333 80.6675 15.86C80.6675 15.5333 80.5508 15.265 80.3175 15.055C80.0841 14.845 79.7225 14.74 79.2325 14.74H75.5575V17.015ZM110.005 37.21C108.465 37.21 107.287 37.0233 106.47 36.65C105.677 36.2767 105.128 35.7633 104.825 35.11C104.545 34.4333 104.405 33.675 104.405 32.835V32.275C104.405 31.8783 104.405 31.6333 104.405 31.54C104.405 31.4233 104.405 31.3417 104.405 31.295C104.405 31.2483 104.405 31.155 104.405 31.015V30.98C104.405 30.8167 104.405 30.7233 104.405 30.7C104.405 30.6533 104.405 30.5717 104.405 30.455C104.405 30.315 104.405 30.0583 104.405 29.685V27.9C104.405 27.5033 104.405 27.2583 104.405 27.165C104.405 27.0483 104.405 26.9667 104.405 26.92C104.405 26.8733 104.405 26.78 104.405 26.64V26.605C104.405 26.4417 104.405 26.3483 104.405 26.325C104.405 26.2783 104.405 26.1967 104.405 26.08C104.405 25.94 104.405 25.6833 104.405 25.31V21.81C104.405 21.04 104.218 20.4217 103.845 19.955C103.495 19.4883 102.923 19.255 102.13 19.255H100.03C100.03 20.0717 100.205 20.6783 100.555 21.075C100.905 21.4483 101.523 21.635 102.41 21.635V37H92.1551V32.275C92.1551 31.8783 92.1551 31.6333 92.1551 31.54C92.1551 31.4233 92.1551 31.3417 92.1551 31.295C92.1551 31.2483 92.1551 31.155 92.1551 31.015V30.98C92.1551 30.8167 92.1551 30.7233 92.1551 30.7C92.1551 30.6533 92.1551 30.5717 92.1551 30.455C92.1551 30.315 92.1551 30.0583 92.1551 29.685V27.9C92.1551 27.5033 92.1551 27.2583 92.1551 27.165C92.1551 27.0483 92.1551 26.9667 92.1551 26.92C92.1551 26.8733 92.1551 26.78 92.1551 26.64V26.605C92.1551 26.4417 92.1551 26.3483 92.1551 26.325C92.1551 26.2783 92.1551 26.1967 92.1551 26.08C92.1551 25.94 92.1551 25.6833 92.1551 25.31V21.81C93.0418 21.81 93.6485 21.635 93.9751 21.285C94.3251 20.9117 94.5001 20.375 94.5001 19.675V17.085C94.5001 16.385 94.3251 15.825 93.9751 15.405C93.6485 14.9617 93.0418 14.74 92.1551 14.74V11.94H107.24C107.59 11.94 108.01 11.9633 108.5 12.01C109.013 12.0567 109.515 12.185 110.005 12.395C110.518 12.5817 110.938 12.885 111.265 13.305C111.592 13.7017 111.755 14.2733 111.755 15.02C111.755 15.8133 111.545 16.42 111.125 16.84C110.728 17.2367 110.215 17.5167 109.585 17.68C108.978 17.82 108.36 17.89 107.73 17.89H107.45V18.24C108.5 18.24 109.27 18.3683 109.76 18.625C110.25 18.8583 110.6 19.15 110.81 19.5C111.043 19.85 111.265 20.2 111.475 20.55C111.708 20.9 112.047 21.2033 112.49 21.46C112.933 21.6933 113.645 21.81 114.625 21.81V37C114.275 37.0467 113.657 37.0933 112.77 37.14C111.907 37.1867 110.985 37.21 110.005 37.21ZM100.03 17.015H103.705C104.148 17.015 104.498 16.9217 104.755 16.735C105.012 16.525 105.14 16.2333 105.14 15.86C105.14 15.5333 105.023 15.265 104.79 15.055C104.557 14.845 104.195 14.74 103.705 14.74H100.03V17.015Z" fill="#C5073D"/>
</svg>
