<svg width="18" height="19" viewBox="0 0 18 19" fill="none" xmlns="http://www.w3.org/2000/svg">
<path d="M17.4819 11.525L11.0388 17.96C10.8586 18.14 10.6558 18.275 10.4305 18.365C10.2053 18.455 9.97997 18.5 9.75469 18.5C9.52941 18.5 9.30413 18.455 9.07885 18.365C8.85357 18.275 8.65081 18.14 8.47059 17.96L0.518148 10.0175C0.352941 9.8525 0.225282 9.66125 0.135169 9.44375C0.0450563 9.22625 0 8.9975 0 8.7575V2.3C0 1.805 0.176471 1.38125 0.529412 1.02875C0.882353 0.67625 1.30663 0.5 1.80225 0.5H8.26783C8.50813 0.5 8.74093 0.54875 8.96621 0.64625C9.19149 0.74375 9.38673 0.875 9.55194 1.04L17.4819 8.9825C17.6621 9.1625 17.7935 9.365 17.8761 9.59C17.9587 9.815 18 10.04 18 10.265C18 10.49 17.9587 10.7113 17.8761 10.9288C17.7935 11.1463 17.6621 11.345 17.4819 11.525ZM4.05507 5.9C4.43054 5.9 4.74969 5.76875 5.01252 5.50625C5.27534 5.24375 5.40676 4.925 5.40676 4.55C5.40676 4.175 5.27534 3.85625 5.01252 3.59375C4.74969 3.33125 4.43054 3.2 4.05507 3.2C3.6796 3.2 3.36045 3.33125 3.09762 3.59375C2.83479 3.85625 2.70338 4.175 2.70338 4.55C2.70338 4.925 2.83479 5.24375 3.09762 5.50625C3.36045 5.76875 3.6796 5.9 4.05507 5.9Z" fill="#C5073D"/>
</svg>
