<svg width="230" height="555" viewBox="0 0 230 555" fill="none" xmlns="http://www.w3.org/2000/svg">
<rect x="3" y="113" width="224" height="224" rx="7" stroke="#191C24" stroke-width="6"/>
<rect x="125" y="360" width="90" height="90" rx="10" fill="#191C24"/>
<rect x="126.5" y="466.5" width="87" height="87" rx="8.5" stroke="#C5073D" stroke-width="3"/>
<line x1="213.884" y1="524.884" x2="184.884" y2="553.884" stroke="#C5073D" stroke-width="2.5"/>
<line x1="212.884" y1="482.884" x2="141.884" y2="553.884" stroke="#C5073D" stroke-width="2.5"/>
<line x1="181.884" y1="466.884" x2="125.884" y2="522.884" stroke="#C5073D" stroke-width="2.5"/>
<line x1="213.884" y1="537.884" x2="197.884" y2="553.884" stroke="#C5073D" stroke-width="2.5"/>
<line x1="213.884" y1="510.884" x2="170.884" y2="553.884" stroke="#C5073D" stroke-width="2.5"/>
<line x1="210.884" y1="470.884" x2="129.884" y2="551.884" stroke="#C5073D" stroke-width="2.5"/>
<line x1="166.884" y1="465.884" x2="125.884" y2="506.884" stroke="#C5073D" stroke-width="2.5"/>
<line x1="212.884" y1="496.884" x2="155.884" y2="553.884" stroke="#C5073D" stroke-width="2.5"/>
<line x1="198.884" y1="466.884" x2="125.884" y2="539.884" stroke="#C5073D" stroke-width="2.5"/>
<line x1="149.884" y1="466.884" x2="126.884" y2="489.884" stroke="#C5073D" stroke-width="2.5"/>
<g clip-path="url(#clip0_67_3)">
<path d="M13.9273 484.159C19.7046 478.648 25.2779 472.943 30.857 467.238C40.8644 457.004 47.6815 444.315 57.5994 434.012C59.7769 431.749 62.2376 429.35 64.7702 427.428C65.6285 426.777 65.8296 426.873 65.4711 427.685C59.8023 440.529 50.5911 452.539 43.0959 464.512C21.7238 498.651 -0.606039 532.847 -17.5058 569.282C-17.9773 570.298 -21.6388 575.795 -20.9025 577.1C-20.6464 577.554 -20.085 577.012 -20.0399 576.74C-19.7835 575.191 -18.4186 573.398 -17.6676 572.059C-13.2795 564.238 -8.80435 556.432 -3.86503 548.914C9.30417 528.871 21.6444 508.46 35.8981 489.071C40.8414 482.347 45.5302 475.513 50.2128 468.626C51.7838 466.316 53.4782 463.308 55.8201 461.606C57.0233 460.731 55.298 466.399 55.0653 467.238C53.3722 473.339 49.9949 478.714 46.8431 484.211C34.072 506.483 21.327 528.767 9.12876 551.332C1.81752 564.856 -5.02498 578.466 -10.7124 592.684C-12.2899 596.628 -14.8143 601.096 -15.1605 605.388C-15.4302 608.734 -14.134 608.764 -12.0603 606.057C9.80591 577.513 27.1102 546.117 45.3334 515.405C54.5832 499.817 63.7869 484.199 73.2081 468.704C77.0153 462.442 80.3792 455.569 84.9079 449.75C85.2525 449.308 88.1698 445.556 88.1698 447.873C88.1698 452.067 84.4868 456.832 82.7243 460.397C71.9016 482.287 60.8245 504.046 48.4875 525.203C39.3788 540.825 30.9722 556.49 23.3626 572.831C19.315 581.523 15.94 590.332 12.5794 599.268C11.5667 601.96 11.5043 601.44 12.6872 599.165C18.8967 587.224 27.5595 576.247 35.1702 565.116C46.3991 548.693 56.9726 531.927 67.7356 515.225C76.9487 500.929 86.2905 486.688 95.3946 472.33C98.776 466.997 101.654 461.539 105.8 456.694C107.91 454.229 109.288 453.174 109.035 456.848C108.696 461.783 106.019 467.228 104.075 471.713C96.6814 488.767 87.7512 505.241 80.0285 522.169C73.1695 537.204 66.7502 552.539 61.1578 568.048C58.7514 574.721 56.5577 581.535 55.3888 588.518C55.3242 588.904 54.6044 591.556 55.4966 590.421C64.1035 579.474 71.9911 568.045 79.7319 556.526C101.816 523.665 121.537 489.427 143.056 456.231C143.839 455.024 145.478 451.575 145.887 452.939C146.17 453.884 145.862 455.3 145.617 456.205C140.616 474.76 132.265 492.644 125.561 510.648C119.687 526.419 114.397 542.394 109.197 558.378C107.227 564.434 106.154 570.435 105.423 576.714C105.273 578.001 104.797 580.402 106.07 578.026C109.736 571.183 113.793 564.478 117.797 557.812C122.298 550.318 127.119 542.824 132.435 535.824C133 535.081 136.044 530.197 137.854 530.964C139.193 531.532 136.828 539.291 136.694 540.376C135.816 547.495 134.139 554.458 132.57 561.464C129.89 573.43 127.953 585.478 126.019 597.57" stroke="#C5073D" stroke-width="3" stroke-linecap="round"/>
</g>
<rect x="16.5" y="466.5" width="87" height="87" rx="8.5" stroke="#C5073D" stroke-width="3"/>
<g clip-path="url(#clip1_67_3)">
<path d="M-28.8752 94.0334C-20.06 72.5522 -7.21518 52.8351 3.91644 32.4881C18.9448 5.01855 32.1687 -23.3254 46.9649 -50.9005C52.8854 -61.9344 59.0495 -72.9099 65.6067 -83.5919C68.1164 -87.6803 70.8506 -91.6387 74.2913 -95.0301C76.2015 -96.913 76.9869 -97.1388 76.4624 -94.1446C74.5484 -83.2178 70.9523 -72.5998 67.1789 -62.1912C46.6519 -5.56827 23.0175 49.9972 1.37097 106.21C-11.0173 138.38 -22.9763 170.705 -35.5384 202.808C-37.7658 208.5 -31.3232 191.335 -29.1747 185.613C-8.62968 130.9 10.6257 75.7506 31.7669 21.2343C42.4424 -6.29412 54.7737 -33.2558 69.687 -58.8335C69.9619 -59.3051 73.4677 -65.8272 73.4677 -61.4533C73.4677 -56.4074 71.83 -50.9132 70.6977 -46.1039C64.9758 -21.8005 58.1316 2.32788 50.858 26.2155C32.6493 86.0155 9.40001 144.01 -11.9553 202.734C-14.3849 209.415 -19.442 218.918 -19.442 226.422C-19.442 227.994 -18.3463 223.47 -17.7949 221.994C-14.2424 212.49 -11.1523 202.816 -7.46332 193.362C0.596468 172.706 10.5555 152.757 20.2374 132.813C32.8138 106.906 45.575 81.0864 59.0559 55.6229C66.234 42.0645 73.5609 28.5751 80.917 15.1093C83.2222 10.8895 86.1458 5.54192 88.5909 1.30962C89.2216 0.217833 91.6762 -5.1196 93.6069 -5.95922C94.5383 -6.36424 94.4324 -3.24177 94.4305 -3.155C94.2914 3.21896 92.943 9.70604 91.5107 15.8842C86.1767 38.8918 78.4873 61.4657 70.9971 83.8496C59.7272 117.529 47.2673 150.714 33.8632 183.621C27.0992 200.226 20.5715 217.055 12.9005 233.285C11.179 236.927 9.2772 240.807 6.61165 243.912C5.57977 245.114 5.45009 244.203 5.63838 243.174C6.63364 237.733 8.97545 232.378 10.9165 227.234C17.4892 209.816 25.0405 192.904 33.0022 176.057C49.3217 141.525 65.78 107.041 82.6015 72.7435C105.147 26.7762 127.128 -19.6732 152.153 -64.4051C153.572 -66.9421 153.934 -67.5148 155.147 -69.7921C155.345 -70.1624 155.511 -71.247 155.746 -70.8991C156.502 -69.7813 154.87 -64.7837 154.698 -64.1837C150.179 -48.4116 143.186 -33.1934 137.105 -17.9879C122.372 18.8481 107.784 55.7082 92.5214 92.3361C73.3421 138.362 16.7483 276.805 36.6333 231.071C38.0481 227.817 38.9968 224.356 40.2269 221.035C46.3265 204.569 53.2526 188.367 60.5906 172.404C87.9594 112.868 120.984 55.7244 151.666 -2.19566C155.777 -9.956 159.55 -18.5638 164.656 -25.8101C166.117 -27.8841 165.684 -26.1131 165.442 -24.8139C164.219 -18.2535 162.415 -11.8485 160.538 -5.44265C150.333 29.3861 139.265 64.0111 127.596 98.3873C113.654 139.464 98.5075 180.109 83.4999 220.814C77.9807 235.783 72.0504 250.767 67.9276 266.198C67.5184 267.729 65.5715 272.673 66.2805 274.537C67.2684 277.133 68.0699 269.278 68.9383 266.641C73.3716 253.174 79.0346 240.129 84.8475 227.197C98.3825 197.086 112.355 167.172 125.8 137.019C141.599 101.586 157.41 66.1739 173.827 31.0122C184.539 8.06796 195.018 -15.0653 207.517 -37.1377C207.718 -37.4937 214.636 -51.9806 216.95 -52.2658C219.741 -52.6097 217.088 -46.6586 216.426 -43.9638C212.813 -29.2583 207.566 -14.8402 202.239 -0.682855C179.391 60.034 154.464 119.989 131.49 180.669C120.244 210.37 109.258 240.138 98.9973 270.183C95.4929 280.444 91.6352 290.7 88.8154 301.177C87.6844 305.379 86.3662 317.461 89.5267 306.269C98.602 274.131 109.411 242.488 120.784 211.073C138.802 161.301 162.518 114.364 188.912 68.4264C192.398 62.3603 195.993 56.3183 199.768 50.4204C200.325 49.5508 200.891 48.5346 200.891 50.1252C200.891 74.045 191.468 98.3408 184.495 120.821C168.009 173.974 148.867 226.249 131.04 278.964C130.232 281.356 129.026 288.707 128.794 286.196C128.313 280.979 131.079 274.181 132.65 269.556C141.625 243.123 152.686 217.23 163.271 191.406C181.651 146.56 201.219 102.285 222.153 58.5379C240.435 20.3328 259.227 -17.6719 279.015 -55.1438C287.377 -70.979 295.717 -86.9909 305.255 -102.188C305.508 -102.591 306.847 -105.37 306.678 -103.148C306.046 -94.8398 303.007 -86.1091 300.763 -78.2048C291.564 -45.7955 279.562 -14.3459 267.373 17.0649C244.179 76.8355 219.416 135.972 195.613 195.502C190.291 208.812 185.477 222.286 180.602 235.757C178.96 240.294 176.882 244.953 176.073 249.741C176.021 250.046 175.957 250.908 176.148 250.664C176.89 249.712 177.366 248.584 177.944 247.528C183.264 237.808 187.634 227.583 192.244 217.53C217.298 162.888 241.37 107.516 268.983 54.0733C275.492 41.4741 282.342 29.019 289.309 16.659C290.941 13.763 294.279 5.28556 295.074 8.50466C296.123 12.7586 293.61 20.2123 292.678 24.0017C286.896 47.5152 278.742 70.5984 271.191 93.5906C247.452 165.877 221.513 237.293 194.64 308.483C192.743 313.506 190.438 318.796 190.148 324.238C190.121 324.735 189.846 327.269 190.634 325.197C195.327 312.862 199.453 300.296 204.073 287.931C220.664 243.53 240.465 200.469 261.159 157.793C275.448 128.324 290.812 99.5022 307.127 71.0831C315.609 56.3081 323.857 41.1107 333.855 27.2487C334.129 26.8686 341.323 16.2184 343.063 16.7697C345.828 17.6458 341.614 33.3858 341.379 34.333C328.678 85.4507 307.933 134.643 290.245 184.174C281.908 207.519 273.576 230.893 266.512 254.649C264.322 262.012 262.884 270.382 259.662 277.415C258.662 279.597 260.235 272.644 260.859 270.33C264.196 257.977 268.547 245.84 273.662 234.097C280.414 218.592 288.479 203.738 296.796 189.008C299.639 183.971 303.837 172.681 309.485 169.563C311.036 168.707 311.265 172.845 311.282 173.326C311.534 180.272 309.877 187.771 308.774 194.543C306.327 209.578 302.634 224.11 298.293 238.709C293.733 254.043 290.829 268.895 288.485 284.647" stroke="#191C24" stroke-width="3" stroke-linecap="round"/>
</g>
<rect x="16.5" y="1.5" width="87" height="87" rx="8.5" stroke="#C5073D" stroke-width="3"/>
<defs>
<clipPath id="clip0_67_3">
<rect x="15" y="465" width="90" height="90" rx="10" fill="white"/>
</clipPath>
<clipPath id="clip1_67_3">
<rect x="15" width="90" height="90" rx="10" fill="white"/>
</clipPath>
</defs>
</svg>
