<svg width="230" height="445" viewBox="0 0 230 445" fill="none" xmlns="http://www.w3.org/2000/svg">
<rect x="125" y="250" width="90" height="90" rx="10" fill="#191C24"/>
<rect x="16.5" y="251.5" width="87" height="87" rx="8.5" stroke="#C5073D" stroke-width="3"/>
<line x1="71.25" y1="253" x2="71.25" y2="340" stroke="#C5073D" stroke-width="2.5"/>
<line x1="82.25" y1="253" x2="82.25" y2="340" stroke="#C5073D" stroke-width="2.5"/>
<line x1="93.25" y1="253" x2="93.25" y2="340" stroke="#C5073D" stroke-width="2.5"/>
<line x1="60.25" y1="251" x2="60.25" y2="338" stroke="#C5073D" stroke-width="2.5"/>
<line x1="49.25" y1="252" x2="49.25" y2="339" stroke="#C5073D" stroke-width="2.5"/>
<line x1="38.25" y1="253" x2="38.25" y2="340" stroke="#C5073D" stroke-width="2.5"/>
<line x1="27.25" y1="253" x2="27.25" y2="340" stroke="#C5073D" stroke-width="2.5"/>
<g clip-path="url(#clip0_67_4)">
<path d="M81.1248 449.033C89.94 427.552 102.785 407.835 113.916 387.488C128.945 360.019 142.169 331.675 156.965 304.099C162.885 293.066 169.049 282.09 175.607 271.408C178.116 267.32 180.851 263.361 184.291 259.97C186.202 258.087 186.987 257.861 186.462 260.855C184.548 271.782 180.952 282.4 177.179 292.809C156.652 349.432 133.018 404.997 111.371 461.21C98.9827 493.38 87.0237 525.705 74.4616 557.808C72.2342 563.5 78.6768 546.335 80.8253 540.613C101.37 485.9 120.626 430.751 141.767 376.234C152.442 348.706 164.774 321.744 179.687 296.166C179.962 295.695 183.468 289.173 183.468 293.547C183.468 298.593 181.83 304.087 180.698 308.896C174.976 333.199 168.132 357.328 160.858 381.216C142.649 441.016 119.4 499.01 98.0447 557.734C95.6151 564.415 90.558 573.918 90.558 581.422C90.558 582.994 91.6537 578.47 92.2051 576.994C95.7576 567.49 98.8477 557.816 102.537 548.362C110.596 527.706 120.556 507.757 130.237 487.813C142.814 461.906 155.575 436.086 169.056 410.623C176.234 397.064 183.561 383.575 190.917 370.109C193.222 365.889 196.146 360.542 198.591 356.31C199.222 355.218 201.676 349.88 203.607 349.041C204.538 348.636 204.432 351.758 204.43 351.845C204.291 358.219 202.943 364.706 201.511 370.884C196.177 393.892 188.487 416.466 180.997 438.85C169.727 472.529 157.267 505.714 143.863 538.621C137.099 555.226 130.572 572.055 122.9 588.285C121.179 591.927 119.277 595.807 116.612 598.912C115.58 600.114 115.45 599.203 115.638 598.174C116.634 592.733 118.975 587.378 120.916 582.234C127.489 564.816 135.041 547.904 143.002 531.057C159.322 496.525 175.78 462.041 192.602 427.743C215.147 381.776 237.128 335.327 262.153 290.595C263.572 288.058 263.934 287.485 265.147 285.208C265.345 284.838 265.511 283.753 265.746 284.101C266.502 285.219 264.87 290.216 264.698 290.816C260.179 306.588 253.186 321.807 247.105 337.012C232.372 373.848 217.784 410.708 202.521 447.336C183.342 493.362 126.748 631.805 146.633 586.071C148.048 582.817 148.997 579.356 150.227 576.035C156.327 559.569 163.253 543.367 170.591 527.404C197.959 467.868 230.984 410.724 261.666 352.804C265.777 345.044 269.55 336.436 274.656 329.19C276.117 327.116 275.684 328.887 275.442 330.186C274.219 336.746 272.415 343.152 270.538 349.557C260.333 384.386 249.265 419.011 237.596 453.387C223.654 494.464 208.507 535.109 193.5 575.814C187.981 590.783 182.05 605.767 177.928 621.198C177.518 622.729 175.571 627.673 176.281 629.537C177.268 632.133 178.07 624.278 178.938 621.641C183.372 608.174 189.035 595.129 194.848 582.197C208.383 552.086 222.355 522.172 235.8 492.019C251.599 456.586 267.41 421.174 283.827 386.012C294.539 363.068 305.018 339.935 317.517 317.862C317.718 317.506 324.636 303.019 326.95 302.734C329.741 302.39 327.088 308.341 326.426 311.036C322.813 325.742 317.566 340.16 312.239 354.317C289.391 415.034 264.464 474.989 241.49 535.669C230.244 565.37 219.258 595.138 208.997 625.183C205.493 635.444 201.635 645.7 198.815 656.177C197.684 660.379 196.366 672.461 199.527 661.269C208.602 629.131 219.411 597.488 230.784 566.073C248.802 516.301 272.518 469.364 298.912 423.426C302.398 417.36 305.993 411.318 309.768 405.42C310.325 404.551 310.891 403.535 310.891 405.125C310.891 429.045 301.468 453.341 294.495 475.821C278.009 528.974 258.867 581.249 241.04 633.964C240.232 636.356 239.026 643.707 238.794 641.196C238.313 635.979 241.079 629.181 242.65 624.556C251.625 598.123 262.686 572.23 273.271 546.406C291.651 501.56 311.219 457.285 332.153 413.538C350.435 375.333 369.227 337.328 389.015 299.856C397.377 284.021 405.717 268.009 415.255 252.812C415.508 252.409 416.847 249.63 416.678 251.852C416.046 260.16 413.007 268.891 410.763 276.795C401.564 309.204 389.562 340.654 377.373 372.065C354.179 431.835 329.416 490.972 305.613 550.502C300.291 563.812 295.477 577.286 290.602 590.757C288.96 595.294 286.882 599.953 286.073 604.741C286.021 605.046 285.957 605.908 286.148 605.664C286.89 604.712 287.366 603.584 287.944 602.528C293.264 592.808 297.634 582.583 302.244 572.53C327.298 517.888 351.37 462.516 378.983 409.073C385.492 396.474 392.342 384.019 399.309 371.659C400.941 368.763 404.279 360.286 405.074 363.505C406.123 367.759 403.61 375.212 402.678 379.002C396.896 402.515 388.742 425.598 381.191 448.591C357.452 520.877 331.513 592.293 304.64 663.483C302.743 668.506 300.438 673.796 300.148 679.238C300.121 679.735 299.846 682.269 300.634 680.197C305.327 667.862 309.453 655.296 314.073 642.931C330.664 598.53 350.465 555.469 371.159 512.793C385.448 483.324 400.812 454.502 417.127 426.083C425.609 411.308 433.857 396.111 443.855 382.249C444.129 381.869 451.323 371.218 453.063 371.77C455.828 372.646 451.614 388.386 451.379 389.333C438.678 440.451 417.933 489.643 400.245 539.174C391.908 562.519 383.576 585.893 376.512 609.649C374.322 617.012 372.884 625.382 369.662 632.415C368.662 634.597 370.235 627.644 370.859 625.33C374.196 612.977 378.547 600.84 383.662 589.097C390.414 573.592 398.479 558.738 406.796 544.008C409.639 538.971 413.837 527.681 419.485 524.563C421.036 523.707 421.265 527.845 421.282 528.326C421.534 535.272 419.877 542.771 418.774 549.543C416.327 564.578 412.634 579.11 408.293 593.709C403.733 609.043 400.829 623.895 398.485 639.647" stroke="#191C24" stroke-width="3" stroke-linecap="round"/>
</g>
<rect x="126.5" y="356.5" width="87" height="87" rx="8.5" stroke="#C5073D" stroke-width="3"/>
<g clip-path="url(#clip1_67_4)">
<path d="M-43.8752 94.0334C-35.06 72.5522 -22.2152 52.8351 -11.0836 32.4881C3.94477 5.01855 17.1687 -23.3254 31.9649 -50.9005C37.8854 -61.9344 44.0495 -72.9099 50.6067 -83.5919C53.1164 -87.6803 55.8506 -91.6387 59.2913 -95.0301C61.2015 -96.913 61.9869 -97.1388 61.4624 -94.1446C59.5484 -83.2178 55.9523 -72.5998 52.1789 -62.1912C31.6519 -5.56827 8.01752 49.9972 -13.629 106.21C-26.0173 138.38 -37.9763 170.705 -50.5384 202.808C-52.7658 208.5 -46.3232 191.335 -44.1747 185.613C-23.6297 130.9 -4.37432 75.7506 16.7669 21.2343C27.4424 -6.29412 39.7737 -33.2558 54.687 -58.8335C54.9619 -59.3051 58.4677 -65.8272 58.4677 -61.4533C58.4677 -56.4074 56.83 -50.9132 55.6977 -46.1039C49.9758 -21.8005 43.1316 2.32788 35.858 26.2155C17.6493 86.0155 -5.59999 144.01 -26.9553 202.734C-29.3849 209.415 -34.442 218.918 -34.442 226.422C-34.442 227.994 -33.3463 223.47 -32.7949 221.994C-29.2424 212.49 -26.1523 202.816 -22.4633 193.362C-14.4035 172.706 -4.44446 152.757 5.23741 132.813C17.8138 106.906 30.575 81.0864 44.0559 55.6229C51.234 42.0645 58.5609 28.5751 65.917 15.1093C68.2222 10.8895 71.1458 5.54192 73.5909 1.30962C74.2216 0.217833 76.6762 -5.1196 78.6069 -5.95922C79.5383 -6.36424 79.4324 -3.24177 79.4305 -3.155C79.2914 3.21896 77.943 9.70604 76.5107 15.8842C71.1767 38.8918 63.4873 61.4657 55.9971 83.8496C44.7272 117.529 32.2673 150.714 18.8632 183.621C12.0992 200.226 5.57152 217.055 -2.09954 233.285C-3.82105 236.927 -5.7228 240.807 -8.38835 243.912C-9.42023 245.114 -9.54991 244.203 -9.36162 243.174C-8.36636 237.733 -6.02455 232.378 -4.08351 227.234C2.48924 209.816 10.0405 192.904 18.0022 176.057C34.3217 141.525 50.78 107.041 67.6015 72.7435C90.1468 26.7762 112.128 -19.6732 137.153 -64.4051C138.572 -66.9421 138.934 -67.5148 140.147 -69.7921C140.345 -70.1624 140.511 -71.247 140.746 -70.8991C141.502 -69.7813 139.87 -64.7837 139.698 -64.1837C135.179 -48.4116 128.186 -33.1934 122.105 -17.9879C107.372 18.8481 92.7844 55.7082 77.5214 92.3361C58.3421 138.362 1.74826 276.805 21.6333 231.071C23.0481 227.817 23.9968 224.356 25.2269 221.035C31.3265 204.569 38.2526 188.367 45.5906 172.404C72.9594 112.868 105.984 55.7244 136.666 -2.19566C140.777 -9.956 144.55 -18.5638 149.656 -25.8101C151.117 -27.8841 150.684 -26.1131 150.442 -24.8139C149.219 -18.2535 147.415 -11.8485 145.538 -5.44265C135.333 29.3861 124.265 64.0111 112.596 98.3873C98.6537 139.464 83.5075 180.109 68.4999 220.814C62.9807 235.783 57.0504 250.767 52.9276 266.198C52.5184 267.729 50.5715 272.673 51.2805 274.537C52.2684 277.133 53.0699 269.278 53.9383 266.641C58.3716 253.174 64.0346 240.129 69.8475 227.197C83.3825 197.086 97.3548 167.172 110.8 137.019C126.599 101.586 142.41 66.1739 158.827 31.0122C169.539 8.06796 180.018 -15.0653 192.517 -37.1377C192.718 -37.4937 199.636 -51.9806 201.95 -52.2658C204.741 -52.6097 202.088 -46.6586 201.426 -43.9638C197.813 -29.2583 192.566 -14.8402 187.239 -0.682855C164.391 60.034 139.464 119.989 116.49 180.669C105.244 210.37 94.2582 240.138 83.9973 270.183C80.4929 280.444 76.6352 290.7 73.8154 301.177C72.6844 305.379 71.3662 317.461 74.5267 306.269C83.602 274.131 94.4105 242.488 105.784 211.073C123.802 161.301 147.518 114.364 173.912 68.4264C177.398 62.3603 180.993 56.3183 184.768 50.4204C185.325 49.5508 185.891 48.5346 185.891 50.1252C185.891 74.045 176.468 98.3408 169.495 120.821C153.009 173.974 133.867 226.249 116.04 278.964C115.232 281.356 114.026 288.707 113.794 286.196C113.313 280.979 116.079 274.181 117.65 269.556C126.625 243.123 137.686 217.23 148.271 191.406C166.651 146.56 186.219 102.285 207.153 58.5379C225.435 20.3328 244.227 -17.6719 264.015 -55.1438C272.377 -70.979 280.717 -86.9909 290.255 -102.188C290.508 -102.591 291.847 -105.37 291.678 -103.148C291.046 -94.8398 288.007 -86.1091 285.763 -78.2048C276.564 -45.7955 264.562 -14.3459 252.373 17.0649C229.179 76.8355 204.416 135.972 180.613 195.502C175.291 208.812 170.477 222.286 165.602 235.757C163.96 240.294 161.882 244.953 161.073 249.741C161.021 250.046 160.957 250.908 161.148 250.664C161.89 249.712 162.366 248.584 162.944 247.528C168.264 237.808 172.634 227.583 177.244 217.53C202.298 162.888 226.37 107.516 253.983 54.0733C260.492 41.4741 267.342 29.019 274.309 16.659C275.941 13.763 279.279 5.28556 280.074 8.50466C281.123 12.7586 278.61 20.2123 277.678 24.0017C271.896 47.5152 263.742 70.5984 256.191 93.5906C232.452 165.877 206.513 237.293 179.64 308.483C177.743 313.506 175.438 318.796 175.148 324.238C175.121 324.735 174.846 327.269 175.634 325.197C180.327 312.862 184.453 300.296 189.073 287.931C205.664 243.53 225.465 200.469 246.159 157.793C260.448 128.324 275.812 99.5022 292.127 71.0831C300.609 56.3081 308.857 41.1107 318.855 27.2487C319.129 26.8686 326.323 16.2184 328.063 16.7697C330.828 17.6458 326.614 33.3858 326.379 34.333C313.678 85.4507 292.933 134.643 275.245 184.174C266.908 207.519 258.576 230.893 251.512 254.649C249.322 262.012 247.884 270.382 244.662 277.415C243.662 279.597 245.235 272.644 245.859 270.33C249.196 257.977 253.547 245.84 258.662 234.097C265.414 218.592 273.479 203.738 281.796 189.008C284.639 183.971 288.837 172.681 294.485 169.563C296.036 168.707 296.265 172.845 296.282 173.326C296.534 180.272 294.877 187.771 293.774 194.543C291.327 209.578 287.634 224.11 283.293 238.709C278.733 254.043 275.829 268.895 273.485 284.647" stroke="#191C24" stroke-width="6" stroke-linecap="round"/>
</g>
<rect x="2.5" y="2.5" width="225" height="225" rx="7.5" stroke="#C5073D" stroke-width="5"/>
<defs>
<clipPath id="clip0_67_4">
<rect x="125" y="355" width="90" height="90" rx="10" fill="white"/>
</clipPath>
<clipPath id="clip1_67_4">
<rect width="230" height="230" rx="10" fill="white"/>
</clipPath>
</defs>
</svg>
