<svg width="476" height="50" viewBox="0 0 476 50" fill="none" xmlns="http://www.w3.org/2000/svg">
<path d="M5.5 31.8518C5.5 30.4711 4.38071 29.3518 3 29.3518C1.61929 29.3518 0.5 30.4711 0.5 31.8518L5.5 31.8518ZM0.500001 46.9993L0.500001 49.4993L5.5 49.4993L5.5 46.9993L0.500001 46.9993ZM0.5 31.8518L0.500001 46.9993L5.5 46.9993L5.5 31.8518L0.5 31.8518Z" fill="#C5073D"/>
<path d="M15.0815 11.6553C15.0815 10.2746 13.9623 9.15527 12.5815 9.15527C11.2008 9.15527 10.0815 10.2746 10.0815 11.6553L15.0815 11.6553ZM10.0815 46.9993L10.0815 49.4993L15.0815 49.4993L15.0815 46.9993L10.0815 46.9993ZM10.0815 11.6553L10.0815 46.9993L15.0815 46.9993L15.0815 11.6553L10.0815 11.6553Z" fill="#C5073D"/>
<path d="M24.6624 36.9011C24.6624 35.5204 23.5431 34.4011 22.1624 34.4011C20.7816 34.4011 19.6624 35.5204 19.6624 36.9011L24.6624 36.9011ZM19.6624 46.9994L19.6624 49.4994L24.6624 49.4994L24.6624 46.9994L19.6624 46.9994ZM19.6624 36.9011L19.6624 46.9994L24.6624 46.9994L24.6624 36.9011L19.6624 36.9011Z" fill="#C5073D"/>
<path d="M34.2439 15.2622C34.2439 13.8815 33.1246 12.7622 31.7439 12.7622C30.3632 12.7622 29.2439 13.8815 29.2439 15.2622L34.2439 15.2622ZM29.2439 46.9997L29.2439 49.4997L34.2439 49.4997L34.2439 46.9997L29.2439 46.9997ZM29.2439 15.2622L29.2439 46.9997L34.2439 46.9997L34.2439 15.2622L29.2439 15.2622Z" fill="#C5073D"/>
<path d="M43.8252 31.8518C43.8252 30.4711 42.7059 29.3518 41.3252 29.3518C39.9445 29.3518 38.8252 30.4711 38.8252 31.8518L43.8252 31.8518ZM38.8252 46.9993L38.8252 49.4993L43.8252 49.4993L43.8252 46.9993L38.8252 46.9993ZM38.8252 31.8518L38.8252 46.9993L43.8252 46.9993L43.8252 31.8518L38.8252 31.8518Z" fill="#C5073D"/>
<path d="M53.4062 15.2622C53.4062 13.8815 52.287 12.7622 50.9062 12.7622C49.5255 12.7622 48.4062 13.8815 48.4062 15.2622L53.4062 15.2622ZM48.4063 46.9997L48.4063 49.4997L53.4063 49.4997L53.4063 46.9997L48.4063 46.9997ZM48.4062 15.2622L48.4063 46.9997L53.4063 46.9997L53.4062 15.2622L48.4062 15.2622Z" fill="#C5073D"/>
<path d="M62.9878 5.88501C62.9878 4.5043 61.8685 3.38501 60.4878 3.38501C59.1071 3.38501 57.9878 4.5043 57.9878 5.88501L62.9878 5.88501ZM57.9878 46.9995L57.9878 49.4995L62.9878 49.4995L62.9878 46.9995L57.9878 46.9995ZM57.9878 5.88501L57.9878 46.9995L62.9878 46.9995L62.9878 5.88501L57.9878 5.88501Z" fill="#C5073D"/>
<path d="M72.5686 21.033C72.5686 19.6522 71.4493 18.533 70.0686 18.533C68.6879 18.533 67.5686 19.6522 67.5686 21.033H72.5686ZM67.5686 47V49.5H72.5686V47H67.5686ZM67.5686 21.033V47H72.5686V21.033H67.5686Z" fill="#C5073D"/>
<path d="M82.1501 26.8032C82.1501 25.4225 81.0309 24.3032 79.6501 24.3032C78.2694 24.3032 77.1501 25.4225 77.1501 26.8032L82.1501 26.8032ZM77.1501 46.9998L77.1501 49.4998L82.1501 49.4998L82.1501 46.9998L77.1501 46.9998ZM77.1501 26.8032L77.1501 46.9998L82.1501 46.9998L82.1501 26.8032L77.1501 26.8032Z" fill="#C5073D"/>
<path d="M91.7314 34.0166C91.7314 32.6359 90.6122 31.5166 89.2314 31.5166C87.8507 31.5166 86.7314 32.6359 86.7314 34.0166L91.7314 34.0166ZM86.7314 47.0001L86.7314 49.5001L91.7314 49.5001L91.7314 47.0001L86.7314 47.0001ZM86.7314 34.0166L86.7314 47.0001L91.7314 47.0001L91.7314 34.0166L86.7314 34.0166Z" fill="#C5073D"/>
<path d="M101.312 40.5081C101.312 39.1273 100.193 38.0081 98.8125 38.0081C97.4318 38.0081 96.3125 39.1273 96.3125 40.5081L101.312 40.5081ZM96.3125 46.9998L96.3125 49.4998L101.313 49.4998L101.313 46.9998L96.3125 46.9998ZM96.3125 40.5081L96.3125 46.9998L101.313 46.9998L101.312 40.5081L96.3125 40.5081Z" fill="#C5073D"/>
<path d="M110.894 29.6882C110.894 28.3075 109.775 27.1882 108.394 27.1882C107.013 27.1882 105.894 28.3075 105.894 29.6882L110.894 29.6882ZM105.894 46.9996L105.894 49.4996L110.894 49.4996L110.894 46.9996L105.894 46.9996ZM105.894 29.6882L105.894 46.9996L110.894 46.9996L110.894 29.6882L105.894 29.6882Z" fill="#C5073D"/>
<path d="M120.475 8.04932C120.475 6.6686 119.356 5.54932 117.975 5.54932C116.595 5.54932 115.475 6.6686 115.475 8.04932L120.475 8.04932ZM115.475 46.9999L115.475 49.4999L120.475 49.4999L120.475 46.9999L115.475 46.9999ZM115.475 8.04932L115.475 46.9999L120.475 46.9999L120.475 8.04932L115.475 8.04932Z" fill="#C5073D"/>
<path d="M130.056 3C130.056 1.61929 128.937 0.5 127.556 0.5C126.176 0.5 125.056 1.61929 125.056 3L130.056 3ZM125.056 46.9997L125.056 49.4997L130.056 49.4997L130.056 46.9997L125.056 46.9997ZM125.056 3L125.056 46.9997L130.056 46.9997L130.056 3L125.056 3Z" fill="#C5073D"/>
<path d="M139.638 23.1965C139.638 21.8158 138.519 20.6965 137.138 20.6965C135.757 20.6965 134.638 21.8158 134.638 23.1965L139.638 23.1965ZM134.638 46.9997L134.638 49.4997L139.638 49.4997L139.638 46.9997L134.638 46.9997ZM134.638 23.1965L134.638 46.9997L139.638 46.9997L139.638 23.1965L134.638 23.1965Z" fill="#C5073D"/>
<path d="M149.219 21.033C149.219 19.6522 148.099 18.533 146.719 18.533C145.338 18.533 144.219 19.6522 144.219 21.033H149.219ZM144.219 47V49.5H149.219V47H144.219ZM144.219 21.033V47H149.219V21.033H144.219Z" fill="#C5073D"/>
<path d="M158.8 25.3604C158.8 23.9796 157.681 22.8604 156.3 22.8604C154.92 22.8604 153.8 23.9796 153.8 25.3604L158.8 25.3604ZM153.8 46.9996L153.8 49.4996L158.8 49.4996L158.8 46.9996L153.8 46.9996ZM153.8 25.3604L153.8 46.9996L158.8 46.9996L158.8 25.3604L153.8 25.3604Z" fill="#C5073D"/>
<path d="M168.382 15.2622C168.382 13.8815 167.262 12.7622 165.882 12.7622C164.501 12.7622 163.382 13.8815 163.382 15.2622L168.382 15.2622ZM163.382 46.9997L163.382 49.4997L168.382 49.4997L168.382 46.9997L163.382 46.9997ZM163.382 15.2622L163.382 46.9997L168.382 46.9997L168.382 15.2622L163.382 15.2622Z" fill="#C5073D"/>
<path d="M177.963 25.3604C177.963 23.9796 176.843 22.8604 175.463 22.8604C174.082 22.8604 172.963 23.9796 172.963 25.3604L177.963 25.3604ZM172.963 46.9996L172.963 49.4996L177.963 49.4996L177.963 46.9996L172.963 46.9996ZM172.963 25.3604L172.963 46.9996L177.963 46.9996L177.963 25.3604L172.963 25.3604Z" fill="#C5073D"/>
<path d="M187.544 11.6553C187.544 10.2746 186.425 9.15527 185.044 9.15527C183.663 9.15527 182.544 10.2746 182.544 11.6553L187.544 11.6553ZM182.544 46.9993L182.544 49.4993L187.544 49.4993L187.544 46.9993L182.544 46.9993ZM182.544 11.6553L182.544 46.9993L187.544 46.9993L187.544 11.6553L182.544 11.6553Z" fill="#C5073D"/>
<path d="M197.125 25.3604C197.125 23.9796 196.006 22.8604 194.625 22.8604C193.245 22.8604 192.125 23.9796 192.125 25.3604L197.125 25.3604ZM192.125 46.9996L192.125 49.4996L197.125 49.4996L197.125 46.9996L192.125 46.9996ZM192.125 25.3604L192.125 46.9996L197.125 46.9996L197.125 25.3604L192.125 25.3604Z" fill="#C5073D"/>
<path d="M206.707 34.0166C206.707 32.6359 205.587 31.5166 204.207 31.5166C202.826 31.5166 201.707 32.6359 201.707 34.0166L206.707 34.0166ZM201.707 47.0001L201.707 49.5001L206.707 49.5001L206.707 47.0001L201.707 47.0001ZM201.707 34.0166L201.707 47.0001L206.707 47.0001L206.707 34.0166L201.707 34.0166Z" fill="#C5073D"/>
<path d="M216.288 39.7869C216.288 38.4062 215.169 37.2869 213.788 37.2869C212.407 37.2869 211.288 38.4062 211.288 39.7869L216.288 39.7869ZM211.288 46.9999L211.288 49.4999L216.288 49.4999L216.288 46.9999L211.288 46.9999ZM211.288 39.7869L211.288 46.9999L216.288 46.9999L216.288 39.7869L211.288 39.7869Z" fill="#C5073D"/>
<path d="M225.869 21.033C225.869 19.6522 224.75 18.533 223.369 18.533C221.988 18.533 220.869 19.6522 220.869 21.033H225.869ZM220.869 47V49.5H225.869V47H220.869ZM220.869 21.033V47H225.869V21.033H220.869Z" fill="#C5073D"/>
<path d="M235.45 15.2622C235.45 13.8815 234.331 12.7622 232.95 12.7622C231.57 12.7622 230.45 13.8815 230.45 15.2622L235.45 15.2622ZM230.45 46.9997L230.45 49.4997L235.45 49.4997L235.45 46.9997L230.45 46.9997ZM230.45 15.2622L230.45 46.9997L235.45 46.9997L235.45 15.2622L230.45 15.2622Z" fill="#C5073D"/>
<path d="M245.032 5.88501C245.032 4.5043 243.912 3.38501 242.532 3.38501C241.151 3.38501 240.032 4.5043 240.032 5.88501L245.032 5.88501ZM240.032 46.9995L240.032 49.4995L245.032 49.4995L245.032 46.9995L240.032 46.9995ZM240.032 5.88501L240.032 46.9995L245.032 46.9995L245.032 5.88501L240.032 5.88501Z" fill="#C5073D"/>
<path d="M254.613 27.5244C254.613 26.1437 253.494 25.0244 252.113 25.0244C250.732 25.0244 249.613 26.1437 249.613 27.5244L254.613 27.5244ZM249.613 46.9997L249.613 49.4997L254.613 49.4997L254.613 46.9997L249.613 46.9997ZM249.613 27.5244L249.613 46.9997L254.613 46.9997L254.613 27.5244L249.613 27.5244Z" fill="#C5073D"/>
<path d="M264.194 21.033C264.194 19.6522 263.075 18.533 261.694 18.533C260.314 18.533 259.194 19.6522 259.194 21.033H264.194ZM259.194 47V49.5H264.194V47H259.194ZM259.194 21.033V47H264.194V21.033H259.194Z" fill="#C5073D"/>
<path d="M274.182 31.8518C274.182 30.4711 273.063 29.3518 271.682 29.3518C270.302 29.3518 269.182 30.4711 269.182 31.8518L274.182 31.8518ZM269.182 46.9993L269.182 49.4993L274.182 49.4993L274.182 46.9993L269.182 46.9993ZM269.182 31.8518L269.182 46.9993L274.182 46.9993L274.182 31.8518L269.182 31.8518Z" fill="#C5073D"/>
<path d="M283.764 11.6553C283.764 10.2746 282.645 9.15527 281.264 9.15527C279.883 9.15527 278.764 10.2746 278.764 11.6553L283.764 11.6553ZM278.764 46.9993L278.764 49.4993L283.764 49.4993L283.764 46.9993L278.764 46.9993ZM278.764 11.6553L278.764 46.9993L283.764 46.9993L283.764 11.6553L278.764 11.6553Z" fill="#C5073D"/>
<path d="M293.345 36.9011C293.345 35.5204 292.225 34.4011 290.845 34.4011C289.464 34.4011 288.345 35.5204 288.345 36.9011L293.345 36.9011ZM288.345 46.9994L288.345 49.4994L293.345 49.4994L293.345 46.9994L288.345 46.9994ZM288.345 36.9011L288.345 46.9994L293.345 46.9994L293.345 36.9011L288.345 36.9011Z" fill="#C5073D"/>
<path d="M302.926 15.2622C302.926 13.8815 301.807 12.7622 300.426 12.7622C299.046 12.7622 297.926 13.8815 297.926 15.2622L302.926 15.2622ZM297.926 46.9997L297.926 49.4997L302.926 49.4997L302.926 46.9997L297.926 46.9997ZM297.926 15.2622L297.926 46.9997L302.926 46.9997L302.926 15.2622L297.926 15.2622Z" fill="#C5073D"/>
<path d="M312.508 31.8518C312.508 30.4711 311.389 29.3518 310.008 29.3518C308.627 29.3518 307.508 30.4711 307.508 31.8518L312.508 31.8518ZM307.508 46.9993L307.508 49.4993L312.508 49.4993L312.508 46.9993L307.508 46.9993ZM307.508 31.8518L307.508 46.9993L312.508 46.9993L312.508 31.8518L307.508 31.8518Z" fill="#C5073D"/>
<path d="M322.089 15.2622C322.089 13.8815 320.969 12.7622 319.589 12.7622C318.208 12.7622 317.089 13.8815 317.089 15.2622L322.089 15.2622ZM317.089 46.9997L317.089 49.4997L322.089 49.4997L322.089 46.9997L317.089 46.9997ZM317.089 15.2622L317.089 46.9997L322.089 46.9997L322.089 15.2622L317.089 15.2622Z" fill="#C5073D"/>
<path d="M331.67 5.88501C331.67 4.5043 330.551 3.38501 329.17 3.38501C327.789 3.38501 326.67 4.5043 326.67 5.88501L331.67 5.88501ZM326.67 46.9995L326.67 49.4995L331.67 49.4995L331.67 46.9995L326.67 46.9995ZM326.67 5.88501L326.67 46.9995L331.67 46.9995L331.67 5.88501L326.67 5.88501Z" fill="#C5073D"/>
<path d="M341.251 21.033C341.251 19.6522 340.132 18.533 338.751 18.533C337.37 18.533 336.251 19.6522 336.251 21.033H341.251ZM336.251 47V49.5H341.251V47H336.251ZM336.251 21.033V47H341.251V21.033H336.251Z" fill="#C5073D"/>
<path d="M350.833 26.8032C350.833 25.4225 349.713 24.3032 348.333 24.3032C346.952 24.3032 345.833 25.4225 345.833 26.8032L350.833 26.8032ZM345.833 46.9998L345.833 49.4998L350.833 49.4998L350.833 46.9998L345.833 46.9998ZM345.833 26.8032L345.833 46.9998L350.833 46.9998L350.833 26.8032L345.833 26.8032Z" fill="#C5073D"/>
<path d="M360.414 34.0166C360.414 32.6359 359.295 31.5166 357.914 31.5166C356.533 31.5166 355.414 32.6359 355.414 34.0166L360.414 34.0166ZM355.414 47.0001L355.414 49.5001L360.414 49.5001L360.414 47.0001L355.414 47.0001ZM355.414 34.0166L355.414 47.0001L360.414 47.0001L360.414 34.0166L355.414 34.0166Z" fill="#C5073D"/>
<path d="M369.995 40.5081C369.995 39.1273 368.876 38.0081 367.495 38.0081C366.114 38.0081 364.995 39.1273 364.995 40.5081L369.995 40.5081ZM364.995 46.9998L364.995 49.4998L369.995 49.4998L369.995 46.9998L364.995 46.9998ZM364.995 40.5081L364.995 46.9998L369.995 46.9998L369.995 40.5081L364.995 40.5081Z" fill="#C5073D"/>
<path d="M379.576 29.6882C379.576 28.3075 378.457 27.1882 377.076 27.1882C375.695 27.1882 374.576 28.3075 374.576 29.6882L379.576 29.6882ZM374.576 46.9996L374.576 49.4996L379.576 49.4996L379.576 46.9996L374.576 46.9996ZM374.576 29.6882L374.576 46.9996L379.576 46.9996L379.576 29.6882L374.576 29.6882Z" fill="#C5073D"/>
<path d="M389.158 8.04932C389.158 6.6686 388.038 5.54932 386.658 5.54932C385.277 5.54932 384.158 6.6686 384.158 8.04932L389.158 8.04932ZM384.158 46.9999L384.158 49.4999L389.158 49.4999L389.158 46.9999L384.158 46.9999ZM384.158 8.04932L384.158 46.9999L389.158 46.9999L389.158 8.04932L384.158 8.04932Z" fill="#C5073D"/>
<path d="M398.739 3C398.739 1.61929 397.619 0.5 396.239 0.5C394.858 0.5 393.739 1.61929 393.739 3L398.739 3ZM393.739 46.9997L393.739 49.4997L398.739 49.4997L398.739 46.9997L393.739 46.9997ZM393.739 3L393.739 46.9997L398.739 46.9997L398.739 3L393.739 3Z" fill="#C5073D"/>
<path d="M408.32 23.1965C408.32 21.8158 407.201 20.6965 405.82 20.6965C404.44 20.6965 403.32 21.8158 403.32 23.1965L408.32 23.1965ZM403.32 46.9997L403.32 49.4997L408.32 49.4997L408.32 46.9997L403.32 46.9997ZM403.32 23.1965L403.32 46.9997L408.32 46.9997L408.32 23.1965L403.32 23.1965Z" fill="#C5073D"/>
<path d="M418.012 31.8516C418.012 30.4709 416.893 29.3516 415.512 29.3516C414.131 29.3516 413.012 30.4709 413.012 31.8516L418.012 31.8516ZM413.012 46.999L413.012 49.499L418.012 49.499L418.012 46.999L413.012 46.999ZM413.012 31.8516L413.012 46.999L418.012 46.999L418.012 31.8516L413.012 31.8516Z" fill="#C5073D"/>
<path d="M427.594 11.655C427.594 10.2743 426.474 9.15503 425.094 9.15503C423.713 9.15503 422.594 10.2743 422.594 11.655L427.594 11.655ZM422.594 46.9991L422.594 49.4991L427.594 49.4991L427.594 46.9991L422.594 46.9991ZM422.594 11.655L422.594 46.9991L427.594 46.9991L427.594 11.655L422.594 11.655Z" fill="#C5073D"/>
<path d="M437.175 36.9009C437.175 35.5202 436.056 34.4009 434.675 34.4009C433.294 34.4009 432.175 35.5202 432.175 36.9009L437.175 36.9009ZM432.175 46.9992L432.175 49.4992L437.175 49.4992L437.175 46.9992L432.175 46.9992ZM432.175 36.9009L432.175 46.9992L437.175 46.9992L437.175 36.9009L432.175 36.9009Z" fill="#C5073D"/>
<path d="M446.756 15.262C446.756 13.8813 445.637 12.762 444.256 12.762C442.876 12.762 441.756 13.8813 441.756 15.262L446.756 15.262ZM441.756 46.9995L441.756 49.4995L446.756 49.4995L446.756 46.9995L441.756 46.9995ZM441.756 15.262L441.756 46.9995L446.756 46.9995L446.756 15.262L441.756 15.262Z" fill="#C5073D"/>
<path d="M456.338 31.8516C456.338 30.4709 455.219 29.3516 453.838 29.3516C452.457 29.3516 451.338 30.4709 451.338 31.8516L456.338 31.8516ZM451.338 46.999L451.338 49.499L456.338 49.499L456.338 46.999L451.338 46.999ZM451.338 31.8516L451.338 46.999L456.338 46.999L456.338 31.8516L451.338 31.8516Z" fill="#C5073D"/>
<path d="M465.918 15.262C465.918 13.8813 464.799 12.762 463.418 12.762C462.038 12.762 460.918 13.8813 460.918 15.262L465.918 15.262ZM460.918 46.9995L460.918 49.4995L465.918 49.4995L465.918 46.9995L460.918 46.9995ZM460.918 15.262L460.918 46.9995L465.918 46.9995L465.918 15.262L460.918 15.262Z" fill="#C5073D"/>
<path d="M475.5 5.88501C475.5 4.5043 474.381 3.38501 473 3.38501C471.619 3.38501 470.5 4.5043 470.5 5.88501L475.5 5.88501ZM470.5 46.9995L470.5 49.4995L475.5 49.4995L475.5 46.9995L470.5 46.9995ZM470.5 5.88501L470.5 46.9995L475.5 46.9995L475.5 5.88501L470.5 5.88501Z" fill="#C5073D"/>
</svg>
